<ttFont>
    <TTGlyph name="A" xMin="34" yMin="0" xMax="562" yMax="648">
      <contour>
        <pt x="253" y="648" on="1"/>
        <pt x="343" y="648" on="1"/>
        <pt x="562" y="0" on="1"/>
        <pt x="491" y="0" on="1"/>
        <pt x="424" y="201" on="1"/>
        <pt x="172" y="201" on="1"/>
        <pt x="105" y="0" on="1"/>
        <pt x="34" y="0" on="1"/>
      </contour>
      <contour>
        <pt x="190" y="257" on="1"/>
        <pt x="407" y="257" on="1"/>
        <pt x="301" y="593" on="1"/>
        <pt x="298" y="593" on="1"/>
      </contour>
    </TTGlyph>
    <TTGlyph name="AE" xMin="9" yMin="0" xMax="750" yMax="648">
      <contour>
        <pt x="382" y="0" on="1"/>
        <pt x="382" y="201" on="1"/>
        <pt x="183" y="201" on="1"/>
        <pt x="80" y="0" on="1"/>
        <pt x="9" y="0" on="1"/>
        <pt x="338" y="648" on="1"/>
        <pt x="426" y="648" on="1"/>
        <pt x="427" y="0" on="1"/>
      </contour>
      <contour>
        <pt x="382" y="257" on="1"/>
        <pt x="382" y="595" on="1"/>
        <pt x="210" y="257" on="1"/>
      </contour>
      <contour>
        <pt x="750" y="0" on="1"/>
        <pt x="382" y="0" on="1"/>
        <pt x="382" y="648" on="1"/>
        <pt x="739" y="648" on="1"/>
        <pt x="732" y="592" on="1"/>
        <pt x="449" y="592" on="1"/>
        <pt x="449" y="363" on="1"/>
        <pt x="699" y="363" on="1"/>
        <pt x="699" y="307" on="1"/>
        <pt x="448" y="307" on="1"/>
        <pt x="448" y="56" on="1"/>
        <pt x="750" y="56" on="1"/>
      </contour>
    </TTGlyph>
    <TTGlyph name="Aacute" xMin="34" yMin="0" xMax="562" yMax="875">
      <contour>
        <pt x="253" y="648" on="1"/>
        <pt x="343" y="648" on="1"/>
        <pt x="562" y="0" on="1"/>
        <pt x="491" y="0" on="1"/>
        <pt x="424" y="201" on="1"/>
        <pt x="172" y="201" on="1"/>
        <pt x="105" y="0" on="1"/>
        <pt x="34" y="0" on="1"/>
      </contour>
      <contour>
        <pt x="190" y="257" on="1"/>
        <pt x="407" y="257" on="1"/>
        <pt x="301" y="593" on="1"/>
        <pt x="298" y="593" on="1"/>
      </contour>
      <contour>
        <pt x="346" y="875" on="1"/>
        <pt x="394" y="830" on="1"/>
        <pt x="352" y="792" on="0"/>
        <pt x="298" y="755" on="1"/>
        <pt x="230" y="727" on="1"/>
        <pt x="225" y="733" on="0"/>
        <pt x="207" y="749" on="0"/>
        <pt x="202" y="756" on="1"/>
        <pt x="222" y="770" on="1"/>
        <pt x="283" y="811" on="0"/>
        <pt x="328" y="855" on="0"/>
      </contour>
    </TTGlyph>
    <TTGlyph name="Acircumflex" xMin="34" yMin="0" xMax="562" yMax="879">
      <contour>
        <pt x="253" y="648" on="1"/>
        <pt x="343" y="648" on="1"/>
        <pt x="562" y="0" on="1"/>
        <pt x="491" y="0" on="1"/>
        <pt x="424" y="201" on="1"/>
        <pt x="172" y="201" on="1"/>
        <pt x="105" y="0" on="1"/>
        <pt x="34" y="0" on="1"/>
      </contour>
      <contour>
        <pt x="190" y="257" on="1"/>
        <pt x="407" y="257" on="1"/>
        <pt x="301" y="593" on="1"/>
        <pt x="298" y="593" on="1"/>
      </contour>
      <contour>
        <pt x="298" y="830" on="1"/>
        <pt x="192" y="743" on="1"/>
        <pt x="164" y="773" on="1"/>
        <pt x="268" y="879" on="1"/>
        <pt x="328" y="879" on="1"/>
        <pt x="432" y="773" on="1"/>
        <pt x="403" y="743" on="1"/>
      </contour>
    </TTGlyph>
    <TTGlyph name="Adieresis" xMin="34" yMin="0" xMax="562" yMax="814">
      <contour>
        <pt x="253" y="648" on="1"/>
        <pt x="343" y="648" on="1"/>
        <pt x="562" y="0" on="1"/>
        <pt x="491" y="0" on="1"/>
        <pt x="424" y="201" on="1"/>
        <pt x="172" y="201" on="1"/>
        <pt x="105" y="0" on="1"/>
        <pt x="34" y="0" on="1"/>
      </contour>
      <contour>
        <pt x="190" y="257" on="1"/>
        <pt x="407" y="257" on="1"/>
        <pt x="301" y="593" on="1"/>
        <pt x="298" y="593" on="1"/>
      </contour>
      <contour>
        <pt x="189" y="814" on="1"/>
        <pt x="261" y="814" on="1"/>
        <pt x="261" y="740" on="1"/>
        <pt x="189" y="740" on="1"/>
      </contour>
      <contour>
        <pt x="335" y="814" on="1"/>
        <pt x="407" y="814" on="1"/>
        <pt x="407" y="740" on="1"/>
        <pt x="335" y="740" on="1"/>
      </contour>
    </TTGlyph>
    <TTGlyph name="Agrave" xMin="34" yMin="0" xMax="562" yMax="872">
      <contour>
        <pt x="253" y="648" on="1"/>
        <pt x="343" y="648" on="1"/>
        <pt x="562" y="0" on="1"/>
        <pt x="491" y="0" on="1"/>
        <pt x="424" y="201" on="1"/>
        <pt x="172" y="201" on="1"/>
        <pt x="105" y="0" on="1"/>
        <pt x="34" y="0" on="1"/>
      </contour>
      <contour>
        <pt x="190" y="257" on="1"/>
        <pt x="407" y="257" on="1"/>
        <pt x="301" y="593" on="1"/>
        <pt x="298" y="593" on="1"/>
      </contour>
      <contour>
        <pt x="202" y="827" on="1"/>
        <pt x="250" y="872" on="1"/>
        <pt x="288" y="830" on="0"/>
        <pt x="313" y="811" on="1"/>
        <pt x="348" y="784" on="0"/>
        <pt x="374" y="767" on="1"/>
        <pt x="394" y="753" on="1"/>
        <pt x="389" y="746" on="0"/>
        <pt x="371" y="730" on="0"/>
        <pt x="366" y="724" on="1"/>
        <pt x="298" y="752" on="1"/>
        <pt x="244" y="789" on="0"/>
      </contour>
    </TTGlyph>
    <TTGlyph name="Aring" xMin="34" yMin="0" xMax="562" yMax="921">
      <contour>
        <pt x="253" y="648" on="1"/>
        <pt x="343" y="648" on="1"/>
        <pt x="562" y="0" on="1"/>
        <pt x="491" y="0" on="1"/>
        <pt x="424" y="201" on="1"/>
        <pt x="172" y="201" on="1"/>
        <pt x="105" y="0" on="1"/>
        <pt x="34" y="0" on="1"/>
      </contour>
      <contour>
        <pt x="190" y="257" on="1"/>
        <pt x="407" y="257" on="1"/>
        <pt x="301" y="593" on="1"/>
        <pt x="298" y="593" on="1"/>
      </contour>
      <contour>
        <pt x="395" y="866" on="0"/>
        <pt x="395" y="786" on="0"/>
        <pt x="344" y="728" on="0"/>
        <pt x="250" y="728" on="0"/>
        <pt x="201" y="784" on="0"/>
        <pt x="201" y="865" on="0"/>
        <pt x="251" y="921" on="0"/>
        <pt x="346" y="921" on="0"/>
      </contour>
      <contour>
        <pt x="326" y="762" on="0"/>
        <pt x="356" y="801" on="0"/>
        <pt x="356" y="850" on="0"/>
        <pt x="327" y="887" on="0"/>
        <pt x="270" y="887" on="0"/>
        <pt x="240" y="850" on="0"/>
        <pt x="240" y="800" on="0"/>
        <pt x="268" y="762" on="0"/>
      </contour>
    </TTGlyph>
    <TTGlyph name="Atilde" xMin="34" yMin="0" xMax="562" yMax="820">
      <contour>
        <pt x="253" y="648" on="1"/>
        <pt x="343" y="648" on="1"/>
        <pt x="562" y="0" on="1"/>
        <pt x="491" y="0" on="1"/>
        <pt x="424" y="201" on="1"/>
        <pt x="172" y="201" on="1"/>
        <pt x="105" y="0" on="1"/>
        <pt x="34" y="0" on="1"/>
      </contour>
      <contour>
        <pt x="190" y="257" on="1"/>
        <pt x="407" y="257" on="1"/>
        <pt x="301" y="593" on="1"/>
        <pt x="298" y="593" on="1"/>
      </contour>
      <contour>
        <pt x="399" y="752" on="1"/>
        <pt x="380" y="737" on="0"/>
        <pt x="362" y="734" on="0"/>
        <pt x="345" y="734" on="0"/>
        <pt x="327" y="739" on="1"/>
        <pt x="242" y="759" on="1"/>
        <pt x="167" y="727" on="1"/>
        <pt x="149" y="755" on="1"/>
        <pt x="191" y="790" on="1"/>
        <pt x="212" y="808" on="0"/>
        <pt x="227" y="811" on="0"/>
        <pt x="242" y="811" on="0"/>
        <pt x="259" y="807" on="1"/>
        <pt x="354" y="785" on="1"/>
        <pt x="428" y="820" on="1"/>
        <pt x="446" y="791" on="1"/>
      </contour>
    </TTGlyph>
    <TTGlyph name="B" xMin="91" yMin="-1" xMax="491" yMax="648">
      <contour>
        <pt x="260" y="-1" on="1"/>
        <pt x="157" y="0" on="1"/>
        <pt x="91" y="0" on="1"/>
        <pt x="91" y="648" on="1"/>
        <pt x="248" y="648" on="1"/>
        <pt x="290" y="648" on="0"/>
        <pt x="345" y="643" on="0"/>
        <pt x="404" y="622" on="0"/>
        <pt x="421" y="603" on="1"/>
        <pt x="460" y="559" on="0"/>
        <pt x="460" y="368" on="0"/>
        <pt x="407" y="333" on="1"/>
        <pt x="427" y="325" on="0"/>
        <pt x="449" y="310" on="0"/>
        <pt x="464" y="294" on="1"/>
        <pt x="491" y="262" on="0"/>
        <pt x="491" y="73" on="0"/>
        <pt x="382" y="-1" on="0"/>
      </contour>
      <contour>
        <pt x="157" y="60" on="1"/>
        <pt x="295" y="59" on="1"/>
        <pt x="366" y="59" on="0"/>
        <pt x="422" y="99" on="0"/>
        <pt x="422" y="175" on="1"/>
        <pt x="422" y="302" on="0"/>
        <pt x="322" y="302" on="1"/>
        <pt x="157" y="302" on="1"/>
      </contour>
      <contour>
        <pt x="237" y="587" on="1"/>
        <pt x="157" y="587" on="1"/>
        <pt x="157" y="358" on="1"/>
        <pt x="343" y="358" on="1"/>
        <pt x="392" y="358" on="0"/>
        <pt x="392" y="466" on="1"/>
        <pt x="392" y="527" on="0"/>
        <pt x="370" y="563" on="0"/>
        <pt x="351" y="577" on="0"/>
        <pt x="330" y="581" on="1"/>
        <pt x="300" y="587" on="0"/>
      </contour>
    </TTGlyph>
    <TTGlyph name="C" xMin="62" yMin="-9" xMax="514" yMax="660">
      <contour>
        <pt x="245" y="647" on="0"/>
        <pt x="317" y="660" on="0"/>
        <pt x="431" y="660" on="0"/>
        <pt x="514" y="633" on="1"/>
        <pt x="498" y="580" on="1"/>
        <pt x="408" y="598" on="0"/>
        <pt x="321" y="598" on="0"/>
        <pt x="259" y="589" on="0"/>
        <pt x="194" y="557" on="0"/>
        <pt x="175" y="528" on="1"/>
        <pt x="132" y="462" on="0"/>
        <pt x="132" y="326" on="1"/>
        <pt x="132" y="159" on="0"/>
        <pt x="192" y="102" on="1"/>
        <pt x="221" y="75" on="0"/>
        <pt x="283" y="54" on="0"/>
        <pt x="358" y="54" on="0"/>
        <pt x="376" y="56" on="1"/>
        <pt x="434" y="60" on="0"/>
        <pt x="491" y="94" on="1"/>
        <pt x="514" y="40" on="1"/>
        <pt x="442" y="-9" on="0"/>
        <pt x="326" y="-9" on="1"/>
        <pt x="281" y="-9" on="0"/>
        <pt x="215" y="2" on="0"/>
        <pt x="141" y="41" on="0"/>
        <pt x="94" y="111" on="0"/>
        <pt x="62" y="237" on="0"/>
        <pt x="62" y="408" on="0"/>
        <pt x="102" y="534" on="0"/>
        <pt x="161" y="604" on="0"/>
      </contour>
    </TTGlyph>
    <TTGlyph name="Ccedilla" xMin="62" yMin="-178" xMax="514" yMax="660">
      <contour>
        <pt x="317" y="660" on="0"/>
        <pt x="245" y="647" on="0"/>
        <pt x="161" y="604" on="0"/>
        <pt x="102" y="534" on="0"/>
        <pt x="62" y="408" on="0"/>
        <pt x="62" y="237" on="0"/>
        <pt x="94" y="111" on="0"/>
        <pt x="141" y="41" on="0"/>
        <pt x="215" y="2" on="0"/>
        <pt x="281" y="-9" on="0"/>
        <pt x="326" y="-9" on="1"/>
        <pt x="442" y="-9" on="0"/>
        <pt x="514" y="40" on="1"/>
        <pt x="491" y="94" on="1"/>
        <pt x="434" y="60" on="0"/>
        <pt x="376" y="56" on="1"/>
        <pt x="358" y="54" on="0"/>
        <pt x="283" y="54" on="0"/>
        <pt x="221" y="75" on="0"/>
        <pt x="192" y="102" on="1"/>
        <pt x="132" y="159" on="0"/>
        <pt x="132" y="326" on="1"/>
        <pt x="132" y="462" on="0"/>
        <pt x="175" y="528" on="1"/>
        <pt x="194" y="557" on="0"/>
        <pt x="259" y="589" on="0"/>
        <pt x="321" y="598" on="0"/>
        <pt x="408" y="598" on="0"/>
        <pt x="498" y="580" on="1"/>
        <pt x="514" y="633" on="1"/>
        <pt x="431" y="660" on="0"/>
      </contour>
      <contour>
        <pt x="282" y="-5" on="1"/>
        <pt x="342" y="-5" on="1"/>
        <pt x="342" y="-64" on="1"/>
        <pt x="300" y="-174" on="1"/>
        <pt x="297" y="-178" on="1"/>
        <pt x="253" y="-178" on="1"/>
        <pt x="282" y="-64" on="1"/>
      </contour>
    </TTGlyph>
    <TTGlyph name="D" xMin="91" yMin="0" xMax="559" yMax="648">
      <contour>
        <pt x="91" y="648" on="1"/>
        <pt x="262" y="648" on="1"/>
        <pt x="323" y="648" on="0"/>
        <pt x="405" y="636" on="0"/>
        <pt x="485" y="597" on="0"/>
        <pt x="508" y="563" on="1"/>
        <pt x="559" y="488" on="0"/>
        <pt x="559" y="329" on="1"/>
        <pt x="559" y="231" on="0"/>
        <pt x="533" y="155" on="1"/>
        <pt x="515" y="103" on="0"/>
        <pt x="464" y="57" on="1"/>
        <pt x="436" y="31" on="0"/>
        <pt x="372" y="12" on="1"/>
        <pt x="336" y="2" on="0"/>
        <pt x="255" y="0" on="0"/>
        <pt x="224" y="0" on="1"/>
        <pt x="91" y="0" on="1"/>
      </contour>
      <contour>
        <pt x="157" y="58" on="1"/>
        <pt x="224" y="58" on="1"/>
        <pt x="229" y="58" on="0"/>
        <pt x="271" y="58" on="0"/>
        <pt x="304" y="59" on="0"/>
        <pt x="358" y="63" on="0"/>
        <pt x="383" y="73" on="0"/>
        <pt x="423" y="91" on="0"/>
        <pt x="441" y="118" on="0"/>
        <pt x="466" y="158" on="0"/>
        <pt x="472" y="185" on="1"/>
        <pt x="486" y="258" on="0"/>
        <pt x="488" y="414" on="0"/>
        <pt x="467" y="515" on="0"/>
        <pt x="409" y="570" on="0"/>
        <pt x="331" y="587" on="0"/>
        <pt x="263" y="587" on="1"/>
        <pt x="157" y="587" on="1"/>
      </contour>
    </TTGlyph>
    <TTGlyph name="E" xMin="91" yMin="0" xMax="459" yMax="648">
      <contour>
        <pt x="459" y="0" on="1"/>
        <pt x="91" y="0" on="1"/>
        <pt x="91" y="648" on="1"/>
        <pt x="448" y="648" on="1"/>
        <pt x="441" y="592" on="1"/>
        <pt x="158" y="592" on="1"/>
        <pt x="158" y="363" on="1"/>
        <pt x="408" y="363" on="1"/>
        <pt x="408" y="307" on="1"/>
        <pt x="157" y="307" on="1"/>
        <pt x="157" y="56" on="1"/>
        <pt x="459" y="56" on="1"/>
      </contour>
    </TTGlyph>
    <TTGlyph name="Eacute" xMin="91" yMin="0" xMax="459" yMax="875">
      <contour>
        <pt x="459" y="0" on="1"/>
        <pt x="91" y="0" on="1"/>
        <pt x="91" y="648" on="1"/>
        <pt x="448" y="648" on="1"/>
        <pt x="441" y="592" on="1"/>
        <pt x="158" y="592" on="1"/>
        <pt x="158" y="363" on="1"/>
        <pt x="408" y="363" on="1"/>
        <pt x="408" y="307" on="1"/>
        <pt x="157" y="307" on="1"/>
        <pt x="157" y="56" on="1"/>
        <pt x="459" y="56" on="1"/>
      </contour>
      <contour>
        <pt x="296" y="875" on="1"/>
        <pt x="344" y="830" on="1"/>
        <pt x="302" y="792" on="0"/>
        <pt x="248" y="755" on="1"/>
        <pt x="180" y="727" on="1"/>
        <pt x="175" y="733" on="0"/>
        <pt x="157" y="749" on="0"/>
        <pt x="152" y="756" on="1"/>
        <pt x="172" y="770" on="1"/>
        <pt x="233" y="811" on="0"/>
        <pt x="278" y="855" on="0"/>
      </contour>
    </TTGlyph>
    <TTGlyph name="Ecircumflex" xMin="91" yMin="0" xMax="459" yMax="879">
      <contour>
        <pt x="459" y="0" on="1"/>
        <pt x="91" y="0" on="1"/>
        <pt x="91" y="648" on="1"/>
        <pt x="448" y="648" on="1"/>
        <pt x="441" y="592" on="1"/>
        <pt x="158" y="592" on="1"/>
        <pt x="158" y="363" on="1"/>
        <pt x="408" y="363" on="1"/>
        <pt x="408" y="307" on="1"/>
        <pt x="157" y="307" on="1"/>
        <pt x="157" y="56" on="1"/>
        <pt x="459" y="56" on="1"/>
      </contour>
      <contour>
        <pt x="248" y="830" on="1"/>
        <pt x="142" y="743" on="1"/>
        <pt x="114" y="773" on="1"/>
        <pt x="218" y="879" on="1"/>
        <pt x="278" y="879" on="1"/>
        <pt x="382" y="773" on="1"/>
        <pt x="353" y="743" on="1"/>
      </contour>
    </TTGlyph>
    <TTGlyph name="Edieresis" xMin="91" yMin="0" xMax="459" yMax="814">
      <contour>
        <pt x="459" y="0" on="1"/>
        <pt x="91" y="0" on="1"/>
        <pt x="91" y="648" on="1"/>
        <pt x="448" y="648" on="1"/>
        <pt x="441" y="592" on="1"/>
        <pt x="158" y="592" on="1"/>
        <pt x="158" y="363" on="1"/>
        <pt x="408" y="363" on="1"/>
        <pt x="408" y="307" on="1"/>
        <pt x="157" y="307" on="1"/>
        <pt x="157" y="56" on="1"/>
        <pt x="459" y="56" on="1"/>
      </contour>
      <contour>
        <pt x="159" y="814" on="1"/>
        <pt x="231" y="814" on="1"/>
        <pt x="231" y="740" on="1"/>
        <pt x="159" y="740" on="1"/>
      </contour>
      <contour>
        <pt x="305" y="814" on="1"/>
        <pt x="377" y="814" on="1"/>
        <pt x="377" y="740" on="1"/>
        <pt x="305" y="740" on="1"/>
      </contour>
    </TTGlyph>
    <TTGlyph name="Egrave" xMin="91" yMin="0" xMax="459" yMax="872">
      <contour>
        <pt x="459" y="0" on="1"/>
        <pt x="91" y="0" on="1"/>
        <pt x="91" y="648" on="1"/>
        <pt x="448" y="648" on="1"/>
        <pt x="441" y="592" on="1"/>
        <pt x="158" y="592" on="1"/>
        <pt x="158" y="363" on="1"/>
        <pt x="408" y="363" on="1"/>
        <pt x="408" y="307" on="1"/>
        <pt x="157" y="307" on="1"/>
        <pt x="157" y="56" on="1"/>
        <pt x="459" y="56" on="1"/>
      </contour>
      <contour>
        <pt x="152" y="827" on="1"/>
        <pt x="200" y="872" on="1"/>
        <pt x="238" y="830" on="0"/>
        <pt x="263" y="811" on="1"/>
        <pt x="298" y="784" on="0"/>
        <pt x="324" y="767" on="1"/>
        <pt x="344" y="753" on="1"/>
        <pt x="339" y="746" on="0"/>
        <pt x="321" y="730" on="0"/>
        <pt x="316" y="724" on="1"/>
        <pt x="248" y="752" on="1"/>
        <pt x="194" y="789" on="0"/>
      </contour>
    </TTGlyph>
    <TTGlyph name="Eth" xMin="33" yMin="0" xMax="581" yMax="648">
      <contour>
        <pt x="33" y="301" on="1"/>
        <pt x="33" y="360" on="1"/>
        <pt x="113" y="360" on="1"/>
        <pt x="113" y="648" on="1"/>
        <pt x="284" y="648" on="1"/>
        <pt x="345" y="648" on="0"/>
        <pt x="427" y="636" on="0"/>
        <pt x="507" y="597" on="0"/>
        <pt x="530" y="563" on="1"/>
        <pt x="581" y="488" on="0"/>
        <pt x="581" y="329" on="1"/>
        <pt x="581" y="231" on="0"/>
        <pt x="555" y="155" on="1"/>
        <pt x="537" y="103" on="0"/>
        <pt x="486" y="57" on="1"/>
        <pt x="458" y="31" on="0"/>
        <pt x="394" y="12" on="1"/>
        <pt x="358" y="2" on="0"/>
        <pt x="277" y="0" on="0"/>
        <pt x="246" y="0" on="1"/>
        <pt x="113" y="0" on="1"/>
        <pt x="113" y="301" on="1"/>
      </contour>
      <contour>
        <pt x="179" y="58" on="1"/>
        <pt x="246" y="58" on="1"/>
        <pt x="251" y="58" on="0"/>
        <pt x="293" y="58" on="0"/>
        <pt x="326" y="59" on="0"/>
        <pt x="380" y="63" on="0"/>
        <pt x="405" y="73" on="0"/>
        <pt x="445" y="91" on="0"/>
        <pt x="463" y="118" on="0"/>
        <pt x="488" y="158" on="0"/>
        <pt x="494" y="185" on="1"/>
        <pt x="508" y="258" on="0"/>
        <pt x="510" y="414" on="0"/>
        <pt x="489" y="515" on="0"/>
        <pt x="431" y="570" on="0"/>
        <pt x="353" y="587" on="0"/>
        <pt x="285" y="587" on="1"/>
        <pt x="179" y="587" on="1"/>
        <pt x="179" y="360" on="1"/>
        <pt x="400" y="360" on="1"/>
        <pt x="400" y="301" on="1"/>
        <pt x="179" y="301" on="1"/>
      </contour>
    </TTGlyph>
    <TTGlyph name="Euro" xMin="55" yMin="-9" xMax="577" yMax="660">
      <contour>
        <pt x="55" y="302" on="1"/>
        <pt x="395" y="302" on="1"/>
        <pt x="395" y="252" on="1"/>
        <pt x="199" y="252" on="1"/>
        <pt x="213" y="133" on="0"/>
        <pt x="269" y="90" on="1"/>
        <pt x="317" y="54" on="0"/>
        <pt x="387" y="54" on="1"/>
        <pt x="421" y="54" on="0"/>
        <pt x="440" y="56" on="1"/>
        <pt x="497" y="60" on="0"/>
        <pt x="554" y="94" on="1"/>
        <pt x="577" y="40" on="1"/>
        <pt x="505" y="-9" on="0"/>
        <pt x="389" y="-9" on="1"/>
        <pt x="349" y="-9" on="0"/>
        <pt x="288" y="0" on="0"/>
        <pt x="218" y="32" on="0"/>
        <pt x="194" y="59" on="1"/>
        <pt x="139" y="122" on="0"/>
        <pt x="128" y="252" on="1"/>
        <pt x="55" y="252" on="1"/>
      </contour>
      <contour>
        <pt x="395" y="374" on="1"/>
        <pt x="55" y="374" on="1"/>
        <pt x="55" y="424" on="1"/>
        <pt x="133" y="424" on="1"/>
        <pt x="175" y="660" on="0"/>
        <pt x="421" y="660" on="1"/>
        <pt x="494" y="660" on="0"/>
        <pt x="577" y="633" on="1"/>
        <pt x="561" y="580" on="1"/>
        <pt x="471" y="598" on="0"/>
        <pt x="391" y="598" on="0"/>
        <pt x="337" y="592" on="0"/>
        <pt x="278" y="571" on="0"/>
        <pt x="259" y="552" on="1"/>
        <pt x="215" y="510" on="0"/>
        <pt x="202" y="424" on="1"/>
        <pt x="395" y="424" on="1"/>
      </contour>
    </TTGlyph>
    <TTGlyph name="F" xMin="91" yMin="0" xMax="416" yMax="648">
      <contour>
        <pt x="158" y="592" on="1"/>
        <pt x="158" y="360" on="1"/>
        <pt x="382" y="360" on="1"/>
        <pt x="382" y="304" on="1"/>
        <pt x="157" y="304" on="1"/>
        <pt x="157" y="0" on="1"/>
        <pt x="91" y="0" on="1"/>
        <pt x="91" y="648" on="1"/>
        <pt x="416" y="648" on="1"/>
        <pt x="409" y="592" on="1"/>
      </contour>
    </TTGlyph>
    <TTGlyph name="G" xMin="62" yMin="-9" xMax="537" yMax="660">
      <contour>
        <pt x="361" y="332" on="1"/>
        <pt x="534" y="332" on="1"/>
        <pt x="533" y="51" on="1"/>
        <pt x="449" y="-9" on="0"/>
        <pt x="345" y="-9" on="1"/>
        <pt x="291" y="-9" on="0"/>
        <pt x="213" y="4" on="0"/>
        <pt x="137" y="45" on="0"/>
        <pt x="114" y="81" on="1"/>
        <pt x="62" y="160" on="0"/>
        <pt x="62" y="324" on="1"/>
        <pt x="62" y="660" on="0"/>
        <pt x="359" y="660" on="1"/>
        <pt x="398" y="660" on="0"/>
        <pt x="505" y="641" on="0"/>
        <pt x="537" y="628" on="1"/>
        <pt x="519" y="576" on="1"/>
        <pt x="448" y="598" on="0"/>
        <pt x="359" y="598" on="1"/>
        <pt x="230" y="598" on="0"/>
        <pt x="132" y="476" on="0"/>
        <pt x="132" y="325" on="1"/>
        <pt x="132" y="152" on="0"/>
        <pt x="196" y="98" on="1"/>
        <pt x="228" y="71" on="0"/>
        <pt x="295" y="53" on="0"/>
        <pt x="344" y="53" on="1"/>
        <pt x="425" y="53" on="0"/>
        <pt x="471" y="84" on="1"/>
        <pt x="471" y="284" on="1"/>
        <pt x="361" y="284" on="1"/>
      </contour>
    </TTGlyph>
    <TTGlyph name="H" xMin="91" yMin="0" xMax="533" yMax="648">
      <contour>
        <pt x="467" y="648" on="1"/>
        <pt x="533" y="648" on="1"/>
        <pt x="533" y="0" on="1"/>
        <pt x="467" y="0" on="1"/>
        <pt x="467" y="308" on="1"/>
        <pt x="157" y="308" on="1"/>
        <pt x="157" y="0" on="1"/>
        <pt x="91" y="0" on="1"/>
        <pt x="91" y="648" on="1"/>
        <pt x="157" y="648" on="1"/>
        <pt x="157" y="364" on="1"/>
        <pt x="467" y="364" on="1"/>
      </contour>
    </TTGlyph>
    <TTGlyph name="I" xMin="91" yMin="0" xMax="157" yMax="648">
      <contour>
        <pt x="91" y="648" on="1"/>
        <pt x="157" y="648" on="1"/>
        <pt x="157" y="0" on="1"/>
        <pt x="91" y="0" on="1"/>
      </contour>
    </TTGlyph>
    <TTGlyph name="Iacute" xMin="40" yMin="0" xMax="232" yMax="875">
      <contour>
        <pt x="91" y="648" on="1"/>
        <pt x="157" y="648" on="1"/>
        <pt x="157" y="0" on="1"/>
        <pt x="91" y="0" on="1"/>
      </contour>
      <contour>
        <pt x="184" y="875" on="1"/>
        <pt x="232" y="830" on="1"/>
        <pt x="190" y="792" on="0"/>
        <pt x="136" y="755" on="1"/>
        <pt x="68" y="727" on="1"/>
        <pt x="63" y="733" on="0"/>
        <pt x="45" y="749" on="0"/>
        <pt x="40" y="756" on="1"/>
        <pt x="60" y="770" on="1"/>
        <pt x="121" y="811" on="0"/>
        <pt x="166" y="855" on="0"/>
      </contour>
    </TTGlyph>
    <TTGlyph name="Icircumflex" xMin="-10" yMin="0" xMax="258" yMax="879">
      <contour>
        <pt x="91" y="648" on="1"/>
        <pt x="157" y="648" on="1"/>
        <pt x="157" y="0" on="1"/>
        <pt x="91" y="0" on="1"/>
      </contour>
      <contour>
        <pt x="124" y="830" on="1"/>
        <pt x="18" y="743" on="1"/>
        <pt x="-10" y="773" on="1"/>
        <pt x="94" y="879" on="1"/>
        <pt x="154" y="879" on="1"/>
        <pt x="258" y="773" on="1"/>
        <pt x="229" y="743" on="1"/>
      </contour>
    </TTGlyph>
    <TTGlyph name="Idieresis" xMin="15" yMin="0" xMax="233" yMax="814">
      <contour>
        <pt x="91" y="648" on="1"/>
        <pt x="157" y="648" on="1"/>
        <pt x="157" y="0" on="1"/>
        <pt x="91" y="0" on="1"/>
      </contour>
      <contour>
        <pt x="15" y="814" on="1"/>
        <pt x="87" y="814" on="1"/>
        <pt x="87" y="740" on="1"/>
        <pt x="15" y="740" on="1"/>
      </contour>
      <contour>
        <pt x="161" y="814" on="1"/>
        <pt x="233" y="814" on="1"/>
        <pt x="233" y="740" on="1"/>
        <pt x="161" y="740" on="1"/>
      </contour>
    </TTGlyph>
    <TTGlyph name="Igrave" xMin="23" yMin="0" xMax="215" yMax="872">
      <contour>
        <pt x="91" y="648" on="1"/>
        <pt x="157" y="648" on="1"/>
        <pt x="157" y="0" on="1"/>
        <pt x="91" y="0" on="1"/>
      </contour>
      <contour>
        <pt x="23" y="827" on="1"/>
        <pt x="71" y="872" on="1"/>
        <pt x="109" y="830" on="0"/>
        <pt x="134" y="811" on="1"/>
        <pt x="169" y="784" on="0"/>
        <pt x="194" y="767" on="1"/>
        <pt x="215" y="753" on="1"/>
        <pt x="210" y="746" on="0"/>
        <pt x="192" y="730" on="0"/>
        <pt x="187" y="724" on="1"/>
        <pt x="119" y="752" on="1"/>
        <pt x="65" y="789" on="0"/>
      </contour>
    </TTGlyph>
    <TTGlyph name="J" xMin="-29" yMin="-136" xMax="173" yMax="648">
      <contour>
        <pt x="107" y="648" on="1"/>
        <pt x="173" y="648" on="1"/>
        <pt x="173" y="78" on="1"/>
        <pt x="172" y="-24" on="0"/>
        <pt x="70" y="-134" on="0"/>
        <pt x="-16" y="-136" on="1"/>
        <pt x="-29" y="-98" on="1"/>
        <pt x="104" y="-71" on="0"/>
        <pt x="107" y="78" on="1"/>
      </contour>
    </TTGlyph>
    <TTGlyph name="K" xMin="91" yMin="0" xMax="553" yMax="648">
      <contour>
        <pt x="157" y="0" on="1"/>
        <pt x="91" y="0" on="1"/>
        <pt x="91" y="648" on="1"/>
        <pt x="158" y="648" on="1"/>
        <pt x="158" y="316" on="1"/>
        <pt x="229" y="399" on="1"/>
        <pt x="300" y="482" on="0"/>
        <pt x="370" y="565" on="1"/>
        <pt x="441" y="648" on="1"/>
        <pt x="514" y="648" on="1"/>
        <pt x="254" y="341" on="1"/>
        <pt x="553" y="0" on="1"/>
        <pt x="470" y="0" on="1"/>
        <pt x="214" y="294" on="1"/>
        <pt x="157" y="227" on="1"/>
      </contour>
    </TTGlyph>
    <TTGlyph name="L" xMin="91" yMin="0" xMax="444" yMax="648">
      <contour>
        <pt x="92" y="1" on="1"/>
        <pt x="91" y="1" on="1"/>
        <pt x="91" y="648" on="1"/>
        <pt x="157" y="648" on="1"/>
        <pt x="156" y="56" on="1"/>
        <pt x="444" y="56" on="1"/>
        <pt x="444" y="0" on="1"/>
        <pt x="92" y="0" on="1"/>
      </contour>
    </TTGlyph>
    <TTGlyph name="Lslash" xMin="31" yMin="0" xMax="470" yMax="648">
      <contour>
        <pt x="31" y="284" on="1"/>
        <pt x="31" y="343" on="1"/>
        <pt x="117" y="343" on="1"/>
        <pt x="117" y="648" on="1"/>
        <pt x="183" y="648" on="1"/>
        <pt x="182" y="343" on="1"/>
        <pt x="313" y="343" on="1"/>
        <pt x="313" y="284" on="1"/>
        <pt x="182" y="284" on="1"/>
        <pt x="182" y="56" on="1"/>
        <pt x="470" y="56" on="1"/>
        <pt x="470" y="0" on="1"/>
        <pt x="118" y="0" on="1"/>
        <pt x="118" y="1" on="1"/>
        <pt x="117" y="1" on="1"/>
        <pt x="117" y="284" on="1"/>
      </contour>
    </TTGlyph>
    <TTGlyph name="M" xMin="81" yMin="0" xMax="680" yMax="648">
      <contour>
        <pt x="181" y="648" on="1"/>
        <pt x="381" y="245" on="1"/>
        <pt x="580" y="648" on="1"/>
        <pt x="660" y="648" on="1"/>
        <pt x="680" y="0" on="1"/>
        <pt x="613" y="0" on="1"/>
        <pt x="607" y="488" on="1"/>
        <pt x="606" y="560" on="1"/>
        <pt x="413" y="180" on="1"/>
        <pt x="348" y="180" on="1"/>
        <pt x="155" y="560" on="1"/>
        <pt x="148" y="0" on="1"/>
        <pt x="81" y="0" on="1"/>
        <pt x="103" y="648" on="1"/>
      </contour>
    </TTGlyph>
    <TTGlyph name="N" xMin="91" yMin="0" xMax="568" yMax="648">
      <contour>
        <pt x="502" y="648" on="1"/>
        <pt x="568" y="648" on="1"/>
        <pt x="568" y="0" on="1"/>
        <pt x="495" y="0" on="1"/>
        <pt x="153" y="547" on="1"/>
        <pt x="157" y="453" on="1"/>
        <pt x="157" y="0" on="1"/>
        <pt x="91" y="0" on="1"/>
        <pt x="91" y="648" on="1"/>
        <pt x="163" y="648" on="1"/>
        <pt x="505" y="103" on="1"/>
        <pt x="502" y="199" on="1"/>
      </contour>
    </TTGlyph>
    <TTGlyph name="Ntilde" xMin="91" yMin="0" xMax="568" yMax="820">
      <contour>
        <pt x="502" y="648" on="1"/>
        <pt x="568" y="648" on="1"/>
        <pt x="568" y="0" on="1"/>
        <pt x="495" y="0" on="1"/>
        <pt x="153" y="547" on="1"/>
        <pt x="157" y="453" on="1"/>
        <pt x="157" y="0" on="1"/>
        <pt x="91" y="0" on="1"/>
        <pt x="91" y="648" on="1"/>
        <pt x="163" y="648" on="1"/>
        <pt x="505" y="103" on="1"/>
        <pt x="502" y="199" on="1"/>
      </contour>
      <contour>
        <pt x="447" y="752" on="1"/>
        <pt x="428" y="737" on="0"/>
        <pt x="410" y="734" on="0"/>
        <pt x="393" y="734" on="0"/>
        <pt x="375" y="739" on="1"/>
        <pt x="290" y="759" on="1"/>
        <pt x="215" y="727" on="1"/>
        <pt x="197" y="755" on="1"/>
        <pt x="239" y="790" on="1"/>
        <pt x="260" y="808" on="0"/>
        <pt x="275" y="811" on="0"/>
        <pt x="290" y="811" on="0"/>
        <pt x="307" y="807" on="1"/>
        <pt x="402" y="785" on="1"/>
        <pt x="476" y="820" on="1"/>
        <pt x="494" y="791" on="1"/>
      </contour>
    </TTGlyph>
    <TTGlyph name="O" xMin="62" yMin="-9" xMax="599" yMax="661">
      <contour>
        <pt x="331" y="661" on="1"/>
        <pt x="482" y="661" on="0"/>
        <pt x="599" y="521" on="0"/>
        <pt x="599" y="329" on="1"/>
        <pt x="599" y="232" on="0"/>
        <pt x="553" y="94" on="0"/>
        <pt x="512" y="58" on="1"/>
        <pt x="437" y="-9" on="0"/>
        <pt x="331" y="-9" on="1"/>
        <pt x="186" y="-9" on="0"/>
        <pt x="136" y="44" on="1"/>
        <pt x="85" y="99" on="0"/>
        <pt x="70" y="196" on="1"/>
        <pt x="62" y="252" on="0"/>
        <pt x="62" y="419" on="0"/>
        <pt x="112" y="555" on="0"/>
        <pt x="153" y="591" on="1"/>
        <pt x="233" y="661" on="0"/>
      </contour>
      <contour>
        <pt x="312" y="599" on="1"/>
        <pt x="221" y="599" on="0"/>
        <pt x="132" y="472" on="0"/>
        <pt x="132" y="328" on="1"/>
        <pt x="132" y="192" on="0"/>
        <pt x="166" y="126" on="1"/>
        <pt x="194" y="71" on="0"/>
        <pt x="268" y="58" on="1"/>
        <pt x="298" y="52" on="0"/>
        <pt x="345" y="52" on="1"/>
        <pt x="439" y="52" on="0"/>
        <pt x="529" y="182" on="0"/>
        <pt x="529" y="329" on="1"/>
        <pt x="529" y="443" on="0"/>
        <pt x="507" y="502" on="1"/>
        <pt x="494" y="537" on="0"/>
        <pt x="470" y="557" on="1"/>
        <pt x="420" y="599" on="0"/>
      </contour>
    </TTGlyph>
    <TTGlyph name="OE" xMin="63" yMin="0" xMax="761" yMax="648">
      <contour>
        <pt x="761" y="0" on="1"/>
        <pt x="311" y="0" on="1"/>
        <pt x="259" y="0" on="0"/>
        <pt x="192" y="10" on="0"/>
        <pt x="124" y="48" on="0"/>
        <pt x="87" y="118" on="0"/>
        <pt x="63" y="239" on="0"/>
        <pt x="63" y="415" on="0"/>
        <pt x="107" y="546" on="0"/>
        <pt x="144" y="581" on="1"/>
        <pt x="215" y="648" on="0"/>
        <pt x="310" y="648" on="1"/>
        <pt x="750" y="648" on="1"/>
        <pt x="743" y="592" on="1"/>
        <pt x="491" y="592" on="1"/>
        <pt x="553" y="527" on="0"/>
        <pt x="556" y="363" on="1"/>
        <pt x="720" y="363" on="1"/>
        <pt x="720" y="307" on="1"/>
        <pt x="557" y="307" on="1"/>
        <pt x="552" y="136" on="0"/>
        <pt x="466" y="56" on="1"/>
        <pt x="761" y="56" on="1"/>
      </contour>
      <contour>
        <pt x="292" y="589" on="1"/>
        <pt x="206" y="589" on="0"/>
        <pt x="131" y="469" on="0"/>
        <pt x="131" y="327" on="1"/>
        <pt x="131" y="239" on="0"/>
        <pt x="151" y="133" on="0"/>
        <pt x="202" y="77" on="0"/>
        <pt x="268" y="59" on="0"/>
        <pt x="324" y="59" on="1"/>
        <pt x="413" y="59" on="0"/>
        <pt x="489" y="183" on="0"/>
        <pt x="489" y="328" on="1"/>
        <pt x="489" y="481" on="0"/>
        <pt x="459" y="525" on="1"/>
        <pt x="428" y="571" on="0"/>
        <pt x="370" y="582" on="1"/>
        <pt x="337" y="589" on="0"/>
      </contour>
    </TTGlyph>
    <TTGlyph name="Oacute" xMin="62" yMin="-9" xMax="599" yMax="875">
      <contour>
        <pt x="331" y="661" on="1"/>
        <pt x="482" y="661" on="0"/>
        <pt x="599" y="521" on="0"/>
        <pt x="599" y="329" on="1"/>
        <pt x="599" y="232" on="0"/>
        <pt x="553" y="94" on="0"/>
        <pt x="512" y="58" on="1"/>
        <pt x="437" y="-9" on="0"/>
        <pt x="331" y="-9" on="1"/>
        <pt x="186" y="-9" on="0"/>
        <pt x="136" y="44" on="1"/>
        <pt x="85" y="99" on="0"/>
        <pt x="70" y="196" on="1"/>
        <pt x="62" y="252" on="0"/>
        <pt x="62" y="419" on="0"/>
        <pt x="112" y="555" on="0"/>
        <pt x="153" y="591" on="1"/>
        <pt x="233" y="661" on="0"/>
      </contour>
      <contour>
        <pt x="312" y="599" on="1"/>
        <pt x="221" y="599" on="0"/>
        <pt x="132" y="472" on="0"/>
        <pt x="132" y="328" on="1"/>
        <pt x="132" y="192" on="0"/>
        <pt x="166" y="126" on="1"/>
        <pt x="194" y="71" on="0"/>
        <pt x="268" y="58" on="1"/>
        <pt x="298" y="52" on="0"/>
        <pt x="345" y="52" on="1"/>
        <pt x="439" y="52" on="0"/>
        <pt x="529" y="182" on="0"/>
        <pt x="529" y="329" on="1"/>
        <pt x="529" y="443" on="0"/>
        <pt x="507" y="502" on="1"/>
        <pt x="494" y="537" on="0"/>
        <pt x="470" y="557" on="1"/>
        <pt x="420" y="599" on="0"/>
      </contour>
      <contour>
        <pt x="391" y="875" on="1"/>
        <pt x="439" y="830" on="1"/>
        <pt x="397" y="792" on="0"/>
        <pt x="343" y="755" on="1"/>
        <pt x="275" y="727" on="1"/>
        <pt x="270" y="733" on="0"/>
        <pt x="252" y="749" on="0"/>
        <pt x="247" y="756" on="1"/>
        <pt x="268" y="770" on="1"/>
        <pt x="328" y="811" on="0"/>
        <pt x="373" y="855" on="0"/>
      </contour>
    </TTGlyph>
    <TTGlyph name="Ocircumflex" xMin="62" yMin="-9" xMax="599" yMax="879">
      <contour>
        <pt x="331" y="661" on="1"/>
        <pt x="482" y="661" on="0"/>
        <pt x="599" y="521" on="0"/>
        <pt x="599" y="329" on="1"/>
        <pt x="599" y="232" on="0"/>
        <pt x="553" y="94" on="0"/>
        <pt x="512" y="58" on="1"/>
        <pt x="437" y="-9" on="0"/>
        <pt x="331" y="-9" on="1"/>
        <pt x="186" y="-9" on="0"/>
        <pt x="136" y="44" on="1"/>
        <pt x="85" y="99" on="0"/>
        <pt x="70" y="196" on="1"/>
        <pt x="62" y="252" on="0"/>
        <pt x="62" y="419" on="0"/>
        <pt x="112" y="555" on="0"/>
        <pt x="153" y="591" on="1"/>
        <pt x="233" y="661" on="0"/>
      </contour>
      <contour>
        <pt x="312" y="599" on="1"/>
        <pt x="221" y="599" on="0"/>
        <pt x="132" y="472" on="0"/>
        <pt x="132" y="328" on="1"/>
        <pt x="132" y="192" on="0"/>
        <pt x="166" y="126" on="1"/>
        <pt x="194" y="71" on="0"/>
        <pt x="268" y="58" on="1"/>
        <pt x="298" y="52" on="0"/>
        <pt x="345" y="52" on="1"/>
        <pt x="439" y="52" on="0"/>
        <pt x="529" y="182" on="0"/>
        <pt x="529" y="329" on="1"/>
        <pt x="529" y="443" on="0"/>
        <pt x="507" y="502" on="1"/>
        <pt x="494" y="537" on="0"/>
        <pt x="470" y="557" on="1"/>
        <pt x="420" y="599" on="0"/>
      </contour>
      <contour>
        <pt x="331" y="830" on="1"/>
        <pt x="225" y="743" on="1"/>
        <pt x="197" y="773" on="1"/>
        <pt x="301" y="879" on="1"/>
        <pt x="361" y="879" on="1"/>
        <pt x="465" y="773" on="1"/>
        <pt x="436" y="743" on="1"/>
      </contour>
    </TTGlyph>
    <TTGlyph name="Odieresis" xMin="62" yMin="-9" xMax="599" yMax="814">
      <contour>
        <pt x="331" y="661" on="1"/>
        <pt x="482" y="661" on="0"/>
        <pt x="599" y="521" on="0"/>
        <pt x="599" y="329" on="1"/>
        <pt x="599" y="232" on="0"/>
        <pt x="553" y="94" on="0"/>
        <pt x="512" y="58" on="1"/>
        <pt x="437" y="-9" on="0"/>
        <pt x="331" y="-9" on="1"/>
        <pt x="186" y="-9" on="0"/>
        <pt x="136" y="44" on="1"/>
        <pt x="85" y="99" on="0"/>
        <pt x="70" y="196" on="1"/>
        <pt x="62" y="252" on="0"/>
        <pt x="62" y="419" on="0"/>
        <pt x="112" y="555" on="0"/>
        <pt x="153" y="591" on="1"/>
        <pt x="233" y="661" on="0"/>
      </contour>
      <contour>
        <pt x="312" y="599" on="1"/>
        <pt x="221" y="599" on="0"/>
        <pt x="132" y="472" on="0"/>
        <pt x="132" y="328" on="1"/>
        <pt x="132" y="192" on="0"/>
        <pt x="166" y="126" on="1"/>
        <pt x="194" y="71" on="0"/>
        <pt x="268" y="58" on="1"/>
        <pt x="298" y="52" on="0"/>
        <pt x="345" y="52" on="1"/>
        <pt x="439" y="52" on="0"/>
        <pt x="529" y="182" on="0"/>
        <pt x="529" y="329" on="1"/>
        <pt x="529" y="443" on="0"/>
        <pt x="507" y="502" on="1"/>
        <pt x="494" y="537" on="0"/>
        <pt x="470" y="557" on="1"/>
        <pt x="420" y="599" on="0"/>
      </contour>
      <contour>
        <pt x="222" y="814" on="1"/>
        <pt x="294" y="814" on="1"/>
        <pt x="294" y="740" on="1"/>
        <pt x="222" y="740" on="1"/>
      </contour>
      <contour>
        <pt x="368" y="814" on="1"/>
        <pt x="440" y="814" on="1"/>
        <pt x="440" y="740" on="1"/>
        <pt x="368" y="740" on="1"/>
      </contour>
    </TTGlyph>
    <TTGlyph name="Ograve" xMin="62" yMin="-9" xMax="599" yMax="872">
      <contour>
        <pt x="331" y="661" on="1"/>
        <pt x="482" y="661" on="0"/>
        <pt x="599" y="521" on="0"/>
        <pt x="599" y="329" on="1"/>
        <pt x="599" y="232" on="0"/>
        <pt x="553" y="94" on="0"/>
        <pt x="512" y="58" on="1"/>
        <pt x="437" y="-9" on="0"/>
        <pt x="331" y="-9" on="1"/>
        <pt x="186" y="-9" on="0"/>
        <pt x="136" y="44" on="1"/>
        <pt x="85" y="99" on="0"/>
        <pt x="70" y="196" on="1"/>
        <pt x="62" y="252" on="0"/>
        <pt x="62" y="419" on="0"/>
        <pt x="112" y="555" on="0"/>
        <pt x="153" y="591" on="1"/>
        <pt x="233" y="661" on="0"/>
      </contour>
      <contour>
        <pt x="312" y="599" on="1"/>
        <pt x="221" y="599" on="0"/>
        <pt x="132" y="472" on="0"/>
        <pt x="132" y="328" on="1"/>
        <pt x="132" y="192" on="0"/>
        <pt x="166" y="126" on="1"/>
        <pt x="194" y="71" on="0"/>
        <pt x="268" y="58" on="1"/>
        <pt x="298" y="52" on="0"/>
        <pt x="345" y="52" on="1"/>
        <pt x="439" y="52" on="0"/>
        <pt x="529" y="182" on="0"/>
        <pt x="529" y="329" on="1"/>
        <pt x="529" y="443" on="0"/>
        <pt x="507" y="502" on="1"/>
        <pt x="494" y="537" on="0"/>
        <pt x="470" y="557" on="1"/>
        <pt x="420" y="599" on="0"/>
      </contour>
      <contour>
        <pt x="235" y="827" on="1"/>
        <pt x="283" y="872" on="1"/>
        <pt x="321" y="830" on="0"/>
        <pt x="346" y="811" on="1"/>
        <pt x="381" y="784" on="0"/>
        <pt x="406" y="767" on="1"/>
        <pt x="427" y="753" on="1"/>
        <pt x="422" y="746" on="0"/>
        <pt x="404" y="730" on="0"/>
        <pt x="399" y="724" on="1"/>
        <pt x="331" y="752" on="1"/>
        <pt x="277" y="789" on="0"/>
      </contour>
    </TTGlyph>
    <TTGlyph name="Oslash" xMin="62" yMin="-99" xMax="599" yMax="743">
      <contour>
        <pt x="116" y="-76" on="1"/>
        <pt x="480" y="743" on="1"/>
        <pt x="533" y="720" on="1"/>
        <pt x="170" y="-99" on="1"/>
      </contour>
      <contour>
        <pt x="331" y="661" on="1"/>
        <pt x="482" y="661" on="0"/>
        <pt x="599" y="521" on="0"/>
        <pt x="599" y="329" on="1"/>
        <pt x="599" y="232" on="0"/>
        <pt x="553" y="94" on="0"/>
        <pt x="512" y="58" on="1"/>
        <pt x="437" y="-9" on="0"/>
        <pt x="331" y="-9" on="1"/>
        <pt x="186" y="-9" on="0"/>
        <pt x="136" y="44" on="1"/>
        <pt x="85" y="99" on="0"/>
        <pt x="70" y="196" on="1"/>
        <pt x="62" y="252" on="0"/>
        <pt x="62" y="419" on="0"/>
        <pt x="112" y="555" on="0"/>
        <pt x="153" y="591" on="1"/>
        <pt x="233" y="661" on="0"/>
      </contour>
      <contour>
        <pt x="312" y="599" on="1"/>
        <pt x="221" y="599" on="0"/>
        <pt x="132" y="472" on="0"/>
        <pt x="132" y="328" on="1"/>
        <pt x="132" y="192" on="0"/>
        <pt x="166" y="126" on="1"/>
        <pt x="194" y="71" on="0"/>
        <pt x="268" y="58" on="1"/>
        <pt x="298" y="52" on="0"/>
        <pt x="345" y="52" on="1"/>
        <pt x="439" y="52" on="0"/>
        <pt x="529" y="182" on="0"/>
        <pt x="529" y="329" on="1"/>
        <pt x="529" y="443" on="0"/>
        <pt x="507" y="502" on="1"/>
        <pt x="494" y="537" on="0"/>
        <pt x="470" y="557" on="1"/>
        <pt x="420" y="599" on="0"/>
      </contour>
    </TTGlyph>
    <TTGlyph name="Otilde" xMin="62" yMin="-9" xMax="599" yMax="820">
      <contour>
        <pt x="331" y="661" on="1"/>
        <pt x="482" y="661" on="0"/>
        <pt x="599" y="521" on="0"/>
        <pt x="599" y="329" on="1"/>
        <pt x="599" y="232" on="0"/>
        <pt x="553" y="94" on="0"/>
        <pt x="512" y="58" on="1"/>
        <pt x="437" y="-9" on="0"/>
        <pt x="331" y="-9" on="1"/>
        <pt x="186" y="-9" on="0"/>
        <pt x="136" y="44" on="1"/>
        <pt x="85" y="99" on="0"/>
        <pt x="70" y="196" on="1"/>
        <pt x="62" y="252" on="0"/>
        <pt x="62" y="419" on="0"/>
        <pt x="112" y="555" on="0"/>
        <pt x="153" y="591" on="1"/>
        <pt x="233" y="661" on="0"/>
      </contour>
      <contour>
        <pt x="312" y="599" on="1"/>
        <pt x="221" y="599" on="0"/>
        <pt x="132" y="472" on="0"/>
        <pt x="132" y="328" on="1"/>
        <pt x="132" y="192" on="0"/>
        <pt x="166" y="126" on="1"/>
        <pt x="194" y="71" on="0"/>
        <pt x="268" y="58" on="1"/>
        <pt x="298" y="52" on="0"/>
        <pt x="345" y="52" on="1"/>
        <pt x="439" y="52" on="0"/>
        <pt x="529" y="182" on="0"/>
        <pt x="529" y="329" on="1"/>
        <pt x="529" y="443" on="0"/>
        <pt x="507" y="502" on="1"/>
        <pt x="494" y="537" on="0"/>
        <pt x="470" y="557" on="1"/>
        <pt x="420" y="599" on="0"/>
      </contour>
      <contour>
        <pt x="432" y="752" on="1"/>
        <pt x="413" y="737" on="0"/>
        <pt x="395" y="734" on="0"/>
        <pt x="378" y="734" on="0"/>
        <pt x="360" y="739" on="1"/>
        <pt x="275" y="759" on="1"/>
        <pt x="200" y="727" on="1"/>
        <pt x="182" y="755" on="1"/>
        <pt x="224" y="790" on="1"/>
        <pt x="245" y="808" on="0"/>
        <pt x="260" y="811" on="0"/>
        <pt x="275" y="811" on="0"/>
        <pt x="292" y="807" on="1"/>
        <pt x="387" y="785" on="1"/>
        <pt x="461" y="820" on="1"/>
        <pt x="479" y="791" on="1"/>
      </contour>
    </TTGlyph>
    <TTGlyph name="P" xMin="91" yMin="0" xMax="509" yMax="648">
      <contour>
        <pt x="264" y="253" on="1"/>
        <pt x="204" y="254" on="1"/>
        <pt x="158" y="254" on="1"/>
        <pt x="158" y="0" on="1"/>
        <pt x="91" y="0" on="1"/>
        <pt x="91" y="648" on="1"/>
        <pt x="281" y="648" on="1"/>
        <pt x="334" y="648" on="0"/>
        <pt x="407" y="635" on="0"/>
        <pt x="441" y="616" on="1"/>
        <pt x="509" y="576" on="0"/>
        <pt x="509" y="453" on="1"/>
        <pt x="509" y="350" on="0"/>
        <pt x="460" y="302" on="1"/>
        <pt x="439" y="282" on="0"/>
        <pt x="369" y="259" on="0"/>
        <pt x="309" y="253" on="0"/>
      </contour>
      <contour>
        <pt x="224" y="311" on="1"/>
        <pt x="300" y="310" on="1"/>
        <pt x="381" y="310" on="0"/>
        <pt x="439" y="361" on="0"/>
        <pt x="439" y="537" on="0"/>
        <pt x="366" y="587" on="0"/>
        <pt x="269" y="587" on="1"/>
        <pt x="158" y="587" on="1"/>
        <pt x="158" y="311" on="1"/>
      </contour>
    </TTGlyph>
    <TTGlyph name="Q" xMin="62" yMin="-197" xMax="598" yMax="661">
      <contour>
        <pt x="328" y="661" on="1"/>
        <pt x="479" y="661" on="0"/>
        <pt x="598" y="520" on="0"/>
        <pt x="598" y="329" on="1"/>
        <pt x="598" y="125" on="0"/>
        <pt x="494" y="44" on="1"/>
        <pt x="437" y="-1" on="0"/>
        <pt x="358" y="-7" on="1"/>
        <pt x="358" y="-34" on="1"/>
        <pt x="358" y="-37" on="0"/>
        <pt x="358" y="-40" on="1"/>
        <pt x="358" y="-94" on="0"/>
        <pt x="391" y="-125" on="0"/>
        <pt x="466" y="-144" on="1"/>
        <pt x="484" y="-149" on="0"/>
        <pt x="495" y="-152" on="1"/>
        <pt x="495" y="-184" on="0"/>
        <pt x="498" y="-197" on="1"/>
        <pt x="384" y="-181" on="0"/>
        <pt x="291" y="-114" on="0"/>
        <pt x="290" y="-33" on="1"/>
        <pt x="290" y="-7" on="1"/>
        <pt x="245" y="-5" on="0"/>
        <pt x="181" y="11" on="0"/>
        <pt x="120" y="53" on="0"/>
        <pt x="102" y="89" on="1"/>
        <pt x="62" y="169" on="0"/>
        <pt x="62" y="328" on="1"/>
        <pt x="62" y="419" on="0"/>
        <pt x="111" y="555" on="0"/>
        <pt x="152" y="591" on="1"/>
        <pt x="230" y="661" on="0"/>
      </contour>
      <contour>
        <pt x="309" y="599" on="1"/>
        <pt x="219" y="599" on="0"/>
        <pt x="133" y="473" on="0"/>
        <pt x="133" y="328" on="1"/>
        <pt x="133" y="192" on="0"/>
        <pt x="165" y="126" on="1"/>
        <pt x="193" y="70" on="0"/>
        <pt x="264" y="58" on="1"/>
        <pt x="295" y="52" on="0"/>
        <pt x="342" y="52" on="1"/>
        <pt x="436" y="52" on="0"/>
        <pt x="527" y="183" on="0"/>
        <pt x="527" y="329" on="1"/>
        <pt x="527" y="403" on="0"/>
        <pt x="511" y="495" on="0"/>
        <pt x="466" y="568" on="0"/>
        <pt x="379" y="599" on="0"/>
      </contour>
    </TTGlyph>
    <TTGlyph name="R" xMin="91" yMin="-17" xMax="537" yMax="648">
      <contour>
        <pt x="264" y="253" on="1"/>
        <pt x="204" y="254" on="1"/>
        <pt x="158" y="254" on="1"/>
        <pt x="158" y="0" on="1"/>
        <pt x="91" y="0" on="1"/>
        <pt x="91" y="648" on="1"/>
        <pt x="281" y="648" on="1"/>
        <pt x="334" y="648" on="0"/>
        <pt x="407" y="635" on="0"/>
        <pt x="441" y="616" on="1"/>
        <pt x="509" y="576" on="0"/>
        <pt x="509" y="453" on="1"/>
        <pt x="509" y="361" on="0"/>
        <pt x="436" y="273" on="0"/>
        <pt x="369" y="260" on="1"/>
        <pt x="537" y="18" on="1"/>
        <pt x="485" y="-17" on="1"/>
        <pt x="295" y="253" on="1"/>
      </contour>
      <contour>
        <pt x="224" y="311" on="1"/>
        <pt x="300" y="310" on="1"/>
        <pt x="381" y="310" on="0"/>
        <pt x="439" y="361" on="0"/>
        <pt x="439" y="537" on="0"/>
        <pt x="366" y="587" on="0"/>
        <pt x="269" y="587" on="1"/>
        <pt x="158" y="587" on="1"/>
        <pt x="158" y="311" on="1"/>
      </contour>
    </TTGlyph>
    <TTGlyph name="S" xMin="48" yMin="-9" xMax="470" yMax="660">
      <contour>
        <pt x="65" y="75" on="1"/>
        <pt x="142" y="46" on="0"/>
        <pt x="320" y="46" on="0"/>
        <pt x="394" y="99" on="0"/>
        <pt x="394" y="171" on="1"/>
        <pt x="394" y="209" on="0"/>
        <pt x="370" y="234" on="1"/>
        <pt x="347" y="256" on="0"/>
        <pt x="328" y="266" on="1"/>
        <pt x="292" y="284" on="1"/>
        <pt x="275" y="292" on="0"/>
        <pt x="226" y="314" on="0"/>
        <pt x="190" y="331" on="0"/>
        <pt x="128" y="364" on="0"/>
        <pt x="102" y="387" on="0"/>
        <pt x="86" y="404" on="1"/>
        <pt x="58" y="435" on="0"/>
        <pt x="58" y="484" on="1"/>
        <pt x="58" y="567" on="0"/>
        <pt x="172" y="660" on="0"/>
        <pt x="352" y="660" on="0"/>
        <pt x="429" y="635" on="1"/>
        <pt x="416" y="585" on="1"/>
        <pt x="354" y="605" on="0"/>
        <pt x="193" y="605" on="0"/>
        <pt x="127" y="554" on="0"/>
        <pt x="127" y="492" on="1"/>
        <pt x="127" y="446" on="0"/>
        <pt x="174" y="416" on="1"/>
        <pt x="212" y="392" on="0"/>
        <pt x="370" y="323" on="0"/>
        <pt x="398" y="304" on="1"/>
        <pt x="469" y="256" on="0"/>
        <pt x="470" y="174" on="1"/>
        <pt x="470" y="-9" on="0"/>
        <pt x="233" y="-9" on="1"/>
        <pt x="134" y="-9" on="0"/>
        <pt x="48" y="20" on="1"/>
      </contour>
    </TTGlyph>
    <TTGlyph name="Scaron" xMin="48" yMin="-9" xMax="470" yMax="859">
      <contour>
        <pt x="65" y="75" on="1"/>
        <pt x="142" y="46" on="0"/>
        <pt x="320" y="46" on="0"/>
        <pt x="394" y="99" on="0"/>
        <pt x="394" y="171" on="1"/>
        <pt x="394" y="209" on="0"/>
        <pt x="370" y="234" on="1"/>
        <pt x="347" y="256" on="0"/>
        <pt x="328" y="266" on="1"/>
        <pt x="292" y="284" on="1"/>
        <pt x="275" y="292" on="0"/>
        <pt x="226" y="314" on="0"/>
        <pt x="190" y="331" on="0"/>
        <pt x="128" y="364" on="0"/>
        <pt x="102" y="387" on="0"/>
        <pt x="86" y="404" on="1"/>
        <pt x="58" y="435" on="0"/>
        <pt x="58" y="484" on="1"/>
        <pt x="58" y="567" on="0"/>
        <pt x="172" y="660" on="0"/>
        <pt x="352" y="660" on="0"/>
        <pt x="429" y="635" on="1"/>
        <pt x="416" y="585" on="1"/>
        <pt x="354" y="605" on="0"/>
        <pt x="193" y="605" on="0"/>
        <pt x="127" y="554" on="0"/>
        <pt x="127" y="492" on="1"/>
        <pt x="127" y="446" on="0"/>
        <pt x="174" y="416" on="1"/>
        <pt x="212" y="392" on="0"/>
        <pt x="370" y="323" on="0"/>
        <pt x="398" y="304" on="1"/>
        <pt x="469" y="256" on="0"/>
        <pt x="470" y="174" on="1"/>
        <pt x="470" y="-9" on="0"/>
        <pt x="233" y="-9" on="1"/>
        <pt x="134" y="-9" on="0"/>
        <pt x="48" y="20" on="1"/>
      </contour>
      <contour>
        <pt x="155" y="859" on="1"/>
        <pt x="261" y="772" on="1"/>
        <pt x="366" y="859" on="1"/>
        <pt x="395" y="829" on="1"/>
        <pt x="291" y="723" on="1"/>
        <pt x="231" y="723" on="1"/>
        <pt x="127" y="829" on="1"/>
      </contour>
    </TTGlyph>
    <TTGlyph name="T" xMin="24" yMin="0" xMax="453" yMax="648">
      <contour>
        <pt x="24" y="592" on="1"/>
        <pt x="24" y="648" on="1"/>
        <pt x="453" y="648" on="1"/>
        <pt x="453" y="592" on="1"/>
        <pt x="271" y="592" on="1"/>
        <pt x="271" y="0" on="1"/>
        <pt x="205" y="0" on="1"/>
        <pt x="205" y="592" on="1"/>
      </contour>
    </TTGlyph>
    <TTGlyph name="Thorn" xMin="91" yMin="-201" xMax="509" yMax="660">
      <contour>
        <pt x="264" y="52" on="1"/>
        <pt x="204" y="53" on="1"/>
        <pt x="158" y="53" on="1"/>
        <pt x="158" y="-201" on="1"/>
        <pt x="91" y="-201" on="1"/>
        <pt x="91" y="660" on="1"/>
        <pt x="158" y="660" on="1"/>
        <pt x="158" y="447" on="1"/>
        <pt x="281" y="447" on="1"/>
        <pt x="334" y="447" on="0"/>
        <pt x="407" y="434" on="0"/>
        <pt x="441" y="414" on="1"/>
        <pt x="509" y="376" on="0"/>
        <pt x="509" y="252" on="1"/>
        <pt x="509" y="149" on="0"/>
        <pt x="460" y="102" on="1"/>
        <pt x="439" y="81" on="0"/>
        <pt x="369" y="58" on="0"/>
        <pt x="309" y="52" on="0"/>
      </contour>
      <contour>
        <pt x="224" y="110" on="1"/>
        <pt x="300" y="109" on="1"/>
        <pt x="381" y="109" on="0"/>
        <pt x="439" y="160" on="0"/>
        <pt x="439" y="336" on="0"/>
        <pt x="366" y="386" on="0"/>
        <pt x="269" y="386" on="1"/>
        <pt x="158" y="386" on="1"/>
        <pt x="158" y="110" on="1"/>
      </contour>
    </TTGlyph>
    <TTGlyph name="U" xMin="87" yMin="-10" xMax="526" yMax="648">
      <contour>
        <pt x="310" y="-10" on="1"/>
        <pt x="308" y="-10" on="0"/>
        <pt x="284" y="-10" on="0"/>
        <pt x="260" y="-9" on="0"/>
        <pt x="210" y="-2" on="0"/>
        <pt x="176" y="13" on="0"/>
        <pt x="133" y="45" on="0"/>
        <pt x="120" y="67" on="1"/>
        <pt x="87" y="120" on="0"/>
        <pt x="87" y="204" on="1"/>
        <pt x="87" y="648" on="1"/>
        <pt x="154" y="648" on="1"/>
        <pt x="154" y="204" on="1"/>
        <pt x="157" y="47" on="0"/>
        <pt x="310" y="47" on="1"/>
        <pt x="375" y="47" on="0"/>
        <pt x="461" y="123" on="0"/>
        <pt x="461" y="200" on="1"/>
        <pt x="461" y="648" on="1"/>
        <pt x="526" y="648" on="1"/>
        <pt x="525" y="202" on="1"/>
        <pt x="525" y="-10" on="0"/>
      </contour>
    </TTGlyph>
    <TTGlyph name="Uacute" xMin="87" yMin="-10" xMax="526" yMax="875">
      <contour>
        <pt x="310" y="-10" on="1"/>
        <pt x="308" y="-10" on="0"/>
        <pt x="284" y="-10" on="0"/>
        <pt x="260" y="-9" on="0"/>
        <pt x="210" y="-2" on="0"/>
        <pt x="176" y="13" on="0"/>
        <pt x="133" y="45" on="0"/>
        <pt x="120" y="67" on="1"/>
        <pt x="87" y="120" on="0"/>
        <pt x="87" y="204" on="1"/>
        <pt x="87" y="648" on="1"/>
        <pt x="154" y="648" on="1"/>
        <pt x="154" y="204" on="1"/>
        <pt x="157" y="47" on="0"/>
        <pt x="310" y="47" on="1"/>
        <pt x="375" y="47" on="0"/>
        <pt x="461" y="123" on="0"/>
        <pt x="461" y="200" on="1"/>
        <pt x="461" y="648" on="1"/>
        <pt x="526" y="648" on="1"/>
        <pt x="525" y="202" on="1"/>
        <pt x="525" y="-10" on="0"/>
      </contour>
      <contour>
        <pt x="383" y="875" on="1"/>
        <pt x="431" y="830" on="1"/>
        <pt x="389" y="792" on="0"/>
        <pt x="335" y="755" on="1"/>
        <pt x="267" y="727" on="1"/>
        <pt x="262" y="733" on="0"/>
        <pt x="244" y="749" on="0"/>
        <pt x="239" y="756" on="1"/>
        <pt x="260" y="770" on="1"/>
        <pt x="320" y="811" on="0"/>
        <pt x="365" y="855" on="0"/>
      </contour>
    </TTGlyph>
    <TTGlyph name="Ucircumflex" xMin="87" yMin="-10" xMax="526" yMax="879">
      <contour>
        <pt x="310" y="-10" on="1"/>
        <pt x="308" y="-10" on="0"/>
        <pt x="284" y="-10" on="0"/>
        <pt x="260" y="-9" on="0"/>
        <pt x="210" y="-2" on="0"/>
        <pt x="176" y="13" on="0"/>
        <pt x="133" y="45" on="0"/>
        <pt x="120" y="67" on="1"/>
        <pt x="87" y="120" on="0"/>
        <pt x="87" y="204" on="1"/>
        <pt x="87" y="648" on="1"/>
        <pt x="154" y="648" on="1"/>
        <pt x="154" y="204" on="1"/>
        <pt x="157" y="47" on="0"/>
        <pt x="310" y="47" on="1"/>
        <pt x="375" y="47" on="0"/>
        <pt x="461" y="123" on="0"/>
        <pt x="461" y="200" on="1"/>
        <pt x="461" y="648" on="1"/>
        <pt x="526" y="648" on="1"/>
        <pt x="525" y="202" on="1"/>
        <pt x="525" y="-10" on="0"/>
      </contour>
      <contour>
        <pt x="306" y="830" on="1"/>
        <pt x="200" y="743" on="1"/>
        <pt x="172" y="773" on="1"/>
        <pt x="276" y="879" on="1"/>
        <pt x="336" y="879" on="1"/>
        <pt x="440" y="773" on="1"/>
        <pt x="411" y="743" on="1"/>
      </contour>
    </TTGlyph>
    <TTGlyph name="Udieresis" xMin="87" yMin="-10" xMax="526" yMax="814">
      <contour>
        <pt x="310" y="-10" on="1"/>
        <pt x="308" y="-10" on="0"/>
        <pt x="284" y="-10" on="0"/>
        <pt x="260" y="-9" on="0"/>
        <pt x="210" y="-2" on="0"/>
        <pt x="176" y="13" on="0"/>
        <pt x="133" y="45" on="0"/>
        <pt x="120" y="67" on="1"/>
        <pt x="87" y="120" on="0"/>
        <pt x="87" y="204" on="1"/>
        <pt x="87" y="648" on="1"/>
        <pt x="154" y="648" on="1"/>
        <pt x="154" y="204" on="1"/>
        <pt x="157" y="47" on="0"/>
        <pt x="310" y="47" on="1"/>
        <pt x="375" y="47" on="0"/>
        <pt x="461" y="123" on="0"/>
        <pt x="461" y="200" on="1"/>
        <pt x="461" y="648" on="1"/>
        <pt x="526" y="648" on="1"/>
        <pt x="525" y="202" on="1"/>
        <pt x="525" y="-10" on="0"/>
      </contour>
      <contour>
        <pt x="197" y="814" on="1"/>
        <pt x="269" y="814" on="1"/>
        <pt x="269" y="740" on="1"/>
        <pt x="197" y="740" on="1"/>
      </contour>
      <contour>
        <pt x="343" y="814" on="1"/>
        <pt x="415" y="814" on="1"/>
        <pt x="415" y="740" on="1"/>
        <pt x="343" y="740" on="1"/>
      </contour>
    </TTGlyph>
    <TTGlyph name="Ugrave" xMin="87" yMin="-10" xMax="526" yMax="872">
      <contour>
        <pt x="310" y="-10" on="1"/>
        <pt x="308" y="-10" on="0"/>
        <pt x="284" y="-10" on="0"/>
        <pt x="260" y="-9" on="0"/>
        <pt x="210" y="-2" on="0"/>
        <pt x="176" y="13" on="0"/>
        <pt x="133" y="45" on="0"/>
        <pt x="120" y="67" on="1"/>
        <pt x="87" y="120" on="0"/>
        <pt x="87" y="204" on="1"/>
        <pt x="87" y="648" on="1"/>
        <pt x="154" y="648" on="1"/>
        <pt x="154" y="204" on="1"/>
        <pt x="157" y="47" on="0"/>
        <pt x="310" y="47" on="1"/>
        <pt x="375" y="47" on="0"/>
        <pt x="461" y="123" on="0"/>
        <pt x="461" y="200" on="1"/>
        <pt x="461" y="648" on="1"/>
        <pt x="526" y="648" on="1"/>
        <pt x="525" y="202" on="1"/>
        <pt x="525" y="-10" on="0"/>
      </contour>
      <contour>
        <pt x="210" y="827" on="1"/>
        <pt x="258" y="872" on="1"/>
        <pt x="296" y="830" on="0"/>
        <pt x="321" y="811" on="1"/>
        <pt x="356" y="784" on="0"/>
        <pt x="382" y="767" on="1"/>
        <pt x="402" y="753" on="1"/>
        <pt x="397" y="746" on="0"/>
        <pt x="379" y="730" on="0"/>
        <pt x="374" y="724" on="1"/>
        <pt x="306" y="752" on="1"/>
        <pt x="252" y="789" on="0"/>
      </contour>
    </TTGlyph>
    <TTGlyph name="V" xMin="35" yMin="0" xMax="543" yMax="648">
      <contour>
        <pt x="248" y="0" on="1"/>
        <pt x="35" y="648" on="1"/>
        <pt x="110" y="648" on="1"/>
        <pt x="289" y="81" on="1"/>
        <pt x="471" y="648" on="1"/>
        <pt x="543" y="648" on="1"/>
        <pt x="331" y="0" on="1"/>
      </contour>
    </TTGlyph>
    <TTGlyph name="W" xMin="65" yMin="0" xMax="735" yMax="648">
      <contour>
        <pt x="364" y="493" on="1"/>
        <pt x="434" y="493" on="1"/>
        <pt x="619" y="71" on="1"/>
        <pt x="624" y="160" on="1"/>
        <pt x="666" y="648" on="1"/>
        <pt x="735" y="648" on="1"/>
        <pt x="665" y="0" on="1"/>
        <pt x="584" y="0" on="1"/>
        <pt x="400" y="417" on="1"/>
        <pt x="220" y="0" on="1"/>
        <pt x="134" y="0" on="1"/>
        <pt x="65" y="648" on="1"/>
        <pt x="134" y="648" on="1"/>
        <pt x="178" y="161" on="1"/>
        <pt x="183" y="70" on="1"/>
      </contour>
    </TTGlyph>
    <TTGlyph name="X" xMin="22" yMin="0" xMax="550" yMax="648">
      <contour>
        <pt x="41" y="648" on="1"/>
        <pt x="116" y="648" on="1"/>
        <pt x="286" y="381" on="1"/>
        <pt x="455" y="648" on="1"/>
        <pt x="531" y="648" on="1"/>
        <pt x="331" y="338" on="1"/>
        <pt x="550" y="0" on="1"/>
        <pt x="478" y="0" on="1"/>
        <pt x="286" y="296" on="1"/>
        <pt x="94" y="0" on="1"/>
        <pt x="22" y="0" on="1"/>
        <pt x="241" y="338" on="1"/>
      </contour>
    </TTGlyph>
    <TTGlyph name="Y" xMin="30" yMin="0" xMax="508" yMax="648">
      <contour>
        <pt x="236" y="0" on="1"/>
        <pt x="236" y="265" on="1"/>
        <pt x="30" y="648" on="1"/>
        <pt x="104" y="648" on="1"/>
        <pt x="269" y="324" on="1"/>
        <pt x="437" y="648" on="1"/>
        <pt x="508" y="648" on="1"/>
        <pt x="303" y="265" on="1"/>
        <pt x="302" y="0" on="1"/>
      </contour>
    </TTGlyph>
    <TTGlyph name="Yacute" xMin="30" yMin="0" xMax="508" yMax="875">
      <contour>
        <pt x="236" y="0" on="1"/>
        <pt x="236" y="265" on="1"/>
        <pt x="30" y="648" on="1"/>
        <pt x="104" y="648" on="1"/>
        <pt x="269" y="324" on="1"/>
        <pt x="437" y="648" on="1"/>
        <pt x="508" y="648" on="1"/>
        <pt x="303" y="265" on="1"/>
        <pt x="302" y="0" on="1"/>
      </contour>
      <contour>
        <pt x="345" y="875" on="1"/>
        <pt x="393" y="830" on="1"/>
        <pt x="351" y="792" on="0"/>
        <pt x="297" y="755" on="1"/>
        <pt x="229" y="727" on="1"/>
        <pt x="224" y="733" on="0"/>
        <pt x="206" y="749" on="0"/>
        <pt x="201" y="756" on="1"/>
        <pt x="222" y="770" on="1"/>
        <pt x="282" y="811" on="0"/>
        <pt x="327" y="855" on="0"/>
      </contour>
    </TTGlyph>
    <TTGlyph name="Ydieresis" xMin="30" yMin="0" xMax="508" yMax="814">
      <contour>
        <pt x="236" y="0" on="1"/>
        <pt x="236" y="265" on="1"/>
        <pt x="30" y="648" on="1"/>
        <pt x="104" y="648" on="1"/>
        <pt x="269" y="324" on="1"/>
        <pt x="437" y="648" on="1"/>
        <pt x="508" y="648" on="1"/>
        <pt x="303" y="265" on="1"/>
        <pt x="302" y="0" on="1"/>
      </contour>
      <contour>
        <pt x="160" y="814" on="1"/>
        <pt x="232" y="814" on="1"/>
        <pt x="232" y="740" on="1"/>
        <pt x="160" y="740" on="1"/>
      </contour>
      <contour>
        <pt x="306" y="814" on="1"/>
        <pt x="378" y="814" on="1"/>
        <pt x="378" y="740" on="1"/>
        <pt x="306" y="740" on="1"/>
      </contour>
    </TTGlyph>
    <TTGlyph name="Z" xMin="47" yMin="0" xMax="476" yMax="648">
      <contour>
        <pt x="47" y="592" on="1"/>
        <pt x="47" y="648" on="1"/>
        <pt x="476" y="648" on="1"/>
        <pt x="476" y="592" on="1"/>
        <pt x="118" y="56" on="1"/>
        <pt x="476" y="58" on="1"/>
        <pt x="457" y="0" on="1"/>
        <pt x="47" y="0" on="1"/>
        <pt x="47" y="56" on="1"/>
        <pt x="403" y="592" on="1"/>
      </contour>
    </TTGlyph>
    <TTGlyph name="Zcaron" xMin="47" yMin="0" xMax="476" yMax="859">
      <contour>
        <pt x="47" y="592" on="1"/>
        <pt x="47" y="648" on="1"/>
        <pt x="476" y="648" on="1"/>
        <pt x="476" y="592" on="1"/>
        <pt x="118" y="56" on="1"/>
        <pt x="476" y="58" on="1"/>
        <pt x="457" y="0" on="1"/>
        <pt x="47" y="0" on="1"/>
        <pt x="47" y="56" on="1"/>
        <pt x="403" y="592" on="1"/>
      </contour>
      <contour>
        <pt x="165" y="859" on="1"/>
        <pt x="271" y="772" on="1"/>
        <pt x="376" y="859" on="1"/>
        <pt x="405" y="829" on="1"/>
        <pt x="301" y="723" on="1"/>
        <pt x="241" y="723" on="1"/>
        <pt x="137" y="829" on="1"/>
      </contour>
    </TTGlyph>
    <TTGlyph name="a" xMin="46" yMin="-5" xMax="431" yMax="501">
      <contour>
        <pt x="408" y="299" on="1"/>
        <pt x="407" y="180" on="1"/>
        <pt x="407" y="152" on="0"/>
        <pt x="408" y="128" on="1"/>
        <pt x="430" y="6" on="1"/>
        <pt x="431" y="1" on="1"/>
        <pt x="387" y="1" on="1"/>
        <pt x="383" y="4" on="1"/>
        <pt x="359" y="62" on="1"/>
        <pt x="266" y="-2" on="0"/>
        <pt x="176" y="-5" on="1"/>
        <pt x="113" y="-5" on="0"/>
        <pt x="46" y="62" on="0"/>
        <pt x="46" y="123" on="1"/>
        <pt x="46" y="207" on="0"/>
        <pt x="140" y="267" on="0"/>
        <pt x="222" y="267" on="1"/>
        <pt x="232" y="267" on="0"/>
        <pt x="343" y="261" on="1"/>
        <pt x="343" y="326" on="1"/>
        <pt x="343" y="392" on="0"/>
        <pt x="294" y="443" on="0"/>
        <pt x="206" y="443" on="0"/>
        <pt x="80" y="416" on="1"/>
        <pt x="71" y="464" on="1"/>
        <pt x="195" y="501" on="0"/>
        <pt x="249" y="501" on="1"/>
        <pt x="331" y="501" on="0"/>
        <pt x="379" y="450" on="1"/>
        <pt x="408" y="419" on="0"/>
      </contour>
      <contour>
        <pt x="343" y="211" on="1"/>
        <pt x="238" y="215" on="1"/>
        <pt x="158" y="215" on="0"/>
        <pt x="110" y="183" on="0"/>
        <pt x="110" y="88" on="0"/>
        <pt x="142" y="53" on="0"/>
        <pt x="221" y="53" on="0"/>
        <pt x="328" y="85" on="0"/>
        <pt x="343" y="106" on="1"/>
      </contour>
    </TTGlyph>
    <TTGlyph name="aacute" xMin="46" yMin="-5" xMax="431" yMax="719">
      <contour>
        <pt x="408" y="299" on="1"/>
        <pt x="407" y="180" on="1"/>
        <pt x="407" y="152" on="0"/>
        <pt x="408" y="128" on="1"/>
        <pt x="430" y="6" on="1"/>
        <pt x="431" y="1" on="1"/>
        <pt x="387" y="1" on="1"/>
        <pt x="383" y="4" on="1"/>
        <pt x="359" y="62" on="1"/>
        <pt x="266" y="-2" on="0"/>
        <pt x="176" y="-5" on="1"/>
        <pt x="113" y="-5" on="0"/>
        <pt x="46" y="62" on="0"/>
        <pt x="46" y="123" on="1"/>
        <pt x="46" y="207" on="0"/>
        <pt x="140" y="267" on="0"/>
        <pt x="222" y="267" on="1"/>
        <pt x="232" y="267" on="0"/>
        <pt x="343" y="261" on="1"/>
        <pt x="343" y="326" on="1"/>
        <pt x="343" y="392" on="0"/>
        <pt x="294" y="443" on="0"/>
        <pt x="206" y="443" on="0"/>
        <pt x="80" y="416" on="1"/>
        <pt x="71" y="464" on="1"/>
        <pt x="195" y="501" on="0"/>
        <pt x="249" y="501" on="1"/>
        <pt x="331" y="501" on="0"/>
        <pt x="379" y="450" on="1"/>
        <pt x="408" y="419" on="0"/>
      </contour>
      <contour>
        <pt x="343" y="211" on="1"/>
        <pt x="238" y="215" on="1"/>
        <pt x="158" y="215" on="0"/>
        <pt x="110" y="183" on="0"/>
        <pt x="110" y="88" on="0"/>
        <pt x="142" y="53" on="0"/>
        <pt x="221" y="53" on="0"/>
        <pt x="328" y="85" on="0"/>
        <pt x="343" y="106" on="1"/>
      </contour>
      <contour>
        <pt x="287" y="719" on="1"/>
        <pt x="335" y="674" on="1"/>
        <pt x="293" y="636" on="0"/>
        <pt x="239" y="599" on="1"/>
        <pt x="171" y="571" on="1"/>
        <pt x="166" y="577" on="0"/>
        <pt x="148" y="593" on="0"/>
        <pt x="143" y="600" on="1"/>
        <pt x="164" y="614" on="1"/>
        <pt x="224" y="655" on="0"/>
        <pt x="269" y="699" on="0"/>
      </contour>
    </TTGlyph>
    <TTGlyph name="acircumflex" xMin="46" yMin="-5" xMax="431" yMax="723">
      <contour>
        <pt x="408" y="299" on="1"/>
        <pt x="407" y="180" on="1"/>
        <pt x="407" y="152" on="0"/>
        <pt x="408" y="128" on="1"/>
        <pt x="430" y="6" on="1"/>
        <pt x="431" y="1" on="1"/>
        <pt x="387" y="1" on="1"/>
        <pt x="383" y="4" on="1"/>
        <pt x="359" y="62" on="1"/>
        <pt x="266" y="-2" on="0"/>
        <pt x="176" y="-5" on="1"/>
        <pt x="113" y="-5" on="0"/>
        <pt x="46" y="62" on="0"/>
        <pt x="46" y="123" on="1"/>
        <pt x="46" y="207" on="0"/>
        <pt x="140" y="267" on="0"/>
        <pt x="222" y="267" on="1"/>
        <pt x="232" y="267" on="0"/>
        <pt x="343" y="261" on="1"/>
        <pt x="343" y="326" on="1"/>
        <pt x="343" y="392" on="0"/>
        <pt x="294" y="443" on="0"/>
        <pt x="206" y="443" on="0"/>
        <pt x="80" y="416" on="1"/>
        <pt x="71" y="464" on="1"/>
        <pt x="195" y="501" on="0"/>
        <pt x="249" y="501" on="1"/>
        <pt x="331" y="501" on="0"/>
        <pt x="379" y="450" on="1"/>
        <pt x="408" y="419" on="0"/>
      </contour>
      <contour>
        <pt x="343" y="211" on="1"/>
        <pt x="238" y="215" on="1"/>
        <pt x="158" y="215" on="0"/>
        <pt x="110" y="183" on="0"/>
        <pt x="110" y="88" on="0"/>
        <pt x="142" y="53" on="0"/>
        <pt x="221" y="53" on="0"/>
        <pt x="328" y="85" on="0"/>
        <pt x="343" y="106" on="1"/>
      </contour>
      <contour>
        <pt x="239" y="674" on="1"/>
        <pt x="133" y="587" on="1"/>
        <pt x="105" y="617" on="1"/>
        <pt x="209" y="723" on="1"/>
        <pt x="269" y="723" on="1"/>
        <pt x="373" y="617" on="1"/>
        <pt x="344" y="587" on="1"/>
      </contour>
    </TTGlyph>
    <TTGlyph name="acute" xMin="76" yMin="571" xMax="268" yMax="719">
      <contour>
        <pt x="220" y="719" on="1"/>
        <pt x="268" y="674" on="1"/>
        <pt x="226" y="636" on="0"/>
        <pt x="172" y="599" on="1"/>
        <pt x="104" y="571" on="1"/>
        <pt x="99" y="577" on="0"/>
        <pt x="81" y="593" on="0"/>
        <pt x="76" y="600" on="1"/>
        <pt x="96" y="614" on="1"/>
        <pt x="157" y="655" on="0"/>
        <pt x="202" y="699" on="0"/>
      </contour>
    </TTGlyph>
    <TTGlyph name="adieresis" xMin="46" yMin="-5" xMax="431" yMax="658">
      <contour>
        <pt x="408" y="299" on="1"/>
        <pt x="407" y="180" on="1"/>
        <pt x="407" y="152" on="0"/>
        <pt x="408" y="128" on="1"/>
        <pt x="430" y="6" on="1"/>
        <pt x="431" y="1" on="1"/>
        <pt x="387" y="1" on="1"/>
        <pt x="383" y="4" on="1"/>
        <pt x="359" y="62" on="1"/>
        <pt x="266" y="-2" on="0"/>
        <pt x="176" y="-5" on="1"/>
        <pt x="113" y="-5" on="0"/>
        <pt x="46" y="62" on="0"/>
        <pt x="46" y="123" on="1"/>
        <pt x="46" y="207" on="0"/>
        <pt x="140" y="267" on="0"/>
        <pt x="222" y="267" on="1"/>
        <pt x="232" y="267" on="0"/>
        <pt x="343" y="261" on="1"/>
        <pt x="343" y="326" on="1"/>
        <pt x="343" y="392" on="0"/>
        <pt x="294" y="443" on="0"/>
        <pt x="206" y="443" on="0"/>
        <pt x="80" y="416" on="1"/>
        <pt x="71" y="464" on="1"/>
        <pt x="195" y="501" on="0"/>
        <pt x="249" y="501" on="1"/>
        <pt x="331" y="501" on="0"/>
        <pt x="379" y="450" on="1"/>
        <pt x="408" y="419" on="0"/>
      </contour>
      <contour>
        <pt x="343" y="211" on="1"/>
        <pt x="238" y="215" on="1"/>
        <pt x="158" y="215" on="0"/>
        <pt x="110" y="183" on="0"/>
        <pt x="110" y="88" on="0"/>
        <pt x="142" y="53" on="0"/>
        <pt x="221" y="53" on="0"/>
        <pt x="328" y="85" on="0"/>
        <pt x="343" y="106" on="1"/>
      </contour>
      <contour>
        <pt x="132" y="658" on="1"/>
        <pt x="204" y="658" on="1"/>
        <pt x="204" y="584" on="1"/>
        <pt x="132" y="584" on="1"/>
      </contour>
      <contour>
        <pt x="278" y="658" on="1"/>
        <pt x="350" y="658" on="1"/>
        <pt x="350" y="584" on="1"/>
        <pt x="278" y="584" on="1"/>
      </contour>
    </TTGlyph>
    <TTGlyph name="ae" xMin="46" yMin="-9" xMax="729" yMax="501">
      <contour>
        <pt x="408" y="299" on="1"/>
        <pt x="407" y="180" on="1"/>
        <pt x="407" y="152" on="0"/>
        <pt x="408" y="128" on="1"/>
        <pt x="409" y="100" on="1"/>
        <pt x="396" y="87" on="0"/>
        <pt x="339" y="46" on="0"/>
        <pt x="314" y="32" on="1"/>
        <pt x="246" y="-3" on="0"/>
        <pt x="113" y="-5" on="0"/>
        <pt x="46" y="62" on="0"/>
        <pt x="46" y="123" on="1"/>
        <pt x="46" y="207" on="0"/>
        <pt x="140" y="267" on="0"/>
        <pt x="222" y="267" on="1"/>
        <pt x="232" y="267" on="0"/>
        <pt x="343" y="261" on="1"/>
        <pt x="343" y="326" on="1"/>
        <pt x="343" y="392" on="0"/>
        <pt x="294" y="443" on="0"/>
        <pt x="206" y="443" on="0"/>
        <pt x="80" y="416" on="1"/>
        <pt x="71" y="464" on="1"/>
        <pt x="195" y="501" on="0"/>
        <pt x="249" y="501" on="1"/>
        <pt x="331" y="501" on="0"/>
        <pt x="379" y="450" on="1"/>
        <pt x="408" y="419" on="0"/>
      </contour>
      <contour>
        <pt x="343" y="211" on="1"/>
        <pt x="238" y="215" on="1"/>
        <pt x="158" y="215" on="0"/>
        <pt x="110" y="183" on="0"/>
        <pt x="110" y="88" on="0"/>
        <pt x="142" y="53" on="0"/>
        <pt x="236" y="53" on="0"/>
        <pt x="331" y="90" on="0"/>
        <pt x="350" y="108" on="1"/>
        <pt x="369" y="127" on="1"/>
      </contour>
      <contour>
        <pt x="729" y="321" on="1"/>
        <pt x="729" y="285" on="0"/>
        <pt x="723" y="246" on="1"/>
        <pt x="409" y="246" on="1"/>
        <pt x="413" y="136" on="0"/>
        <pt x="479" y="53" on="0"/>
        <pt x="563" y="53" on="1"/>
        <pt x="626" y="53" on="0"/>
        <pt x="710" y="80" on="1"/>
        <pt x="716" y="30" on="1"/>
        <pt x="693" y="21" on="0"/>
        <pt x="668" y="14" on="0"/>
        <pt x="640" y="5" on="0"/>
        <pt x="626" y="1" on="0"/>
        <pt x="600" y="-5" on="0"/>
        <pt x="591" y="-6" on="1"/>
        <pt x="564" y="-9" on="0"/>
        <pt x="545" y="-9" on="1"/>
        <pt x="451" y="-9" on="0"/>
        <pt x="343" y="123" on="0"/>
        <pt x="343" y="241" on="1"/>
        <pt x="343" y="306" on="0"/>
        <pt x="375" y="405" on="0"/>
        <pt x="419" y="458" on="0"/>
        <pt x="450" y="474" on="1"/>
        <pt x="496" y="499" on="0"/>
        <pt x="550" y="501" on="1"/>
        <pt x="729" y="500" on="0"/>
      </contour>
      <contour>
        <pt x="666" y="337" on="1"/>
        <pt x="666" y="397" on="0"/>
        <pt x="606" y="445" on="0"/>
        <pt x="488" y="445" on="0"/>
        <pt x="412" y="382" on="0"/>
        <pt x="411" y="297" on="1"/>
        <pt x="663" y="297" on="1"/>
        <pt x="666" y="320" on="0"/>
      </contour>
    </TTGlyph>
    <TTGlyph name="agrave" xMin="46" yMin="-5" xMax="431" yMax="716">
      <contour>
        <pt x="408" y="299" on="1"/>
        <pt x="407" y="180" on="1"/>
        <pt x="407" y="152" on="0"/>
        <pt x="408" y="128" on="1"/>
        <pt x="430" y="6" on="1"/>
        <pt x="431" y="1" on="1"/>
        <pt x="387" y="1" on="1"/>
        <pt x="383" y="4" on="1"/>
        <pt x="359" y="62" on="1"/>
        <pt x="266" y="-2" on="0"/>
        <pt x="176" y="-5" on="1"/>
        <pt x="113" y="-5" on="0"/>
        <pt x="46" y="62" on="0"/>
        <pt x="46" y="123" on="1"/>
        <pt x="46" y="207" on="0"/>
        <pt x="140" y="267" on="0"/>
        <pt x="222" y="267" on="1"/>
        <pt x="232" y="267" on="0"/>
        <pt x="343" y="261" on="1"/>
        <pt x="343" y="326" on="1"/>
        <pt x="343" y="392" on="0"/>
        <pt x="294" y="443" on="0"/>
        <pt x="206" y="443" on="0"/>
        <pt x="80" y="416" on="1"/>
        <pt x="71" y="464" on="1"/>
        <pt x="195" y="501" on="0"/>
        <pt x="249" y="501" on="1"/>
        <pt x="331" y="501" on="0"/>
        <pt x="379" y="450" on="1"/>
        <pt x="408" y="419" on="0"/>
      </contour>
      <contour>
        <pt x="343" y="211" on="1"/>
        <pt x="238" y="215" on="1"/>
        <pt x="158" y="215" on="0"/>
        <pt x="110" y="183" on="0"/>
        <pt x="110" y="88" on="0"/>
        <pt x="142" y="53" on="0"/>
        <pt x="221" y="53" on="0"/>
        <pt x="328" y="85" on="0"/>
        <pt x="343" y="106" on="1"/>
      </contour>
      <contour>
        <pt x="143" y="671" on="1"/>
        <pt x="191" y="716" on="1"/>
        <pt x="229" y="674" on="0"/>
        <pt x="254" y="655" on="1"/>
        <pt x="289" y="628" on="0"/>
        <pt x="314" y="611" on="1"/>
        <pt x="335" y="597" on="1"/>
        <pt x="330" y="590" on="0"/>
        <pt x="312" y="574" on="0"/>
        <pt x="307" y="568" on="1"/>
        <pt x="239" y="596" on="1"/>
        <pt x="185" y="633" on="0"/>
      </contour>
    </TTGlyph>
    <TTGlyph name="ampersand" xMin="61" yMin="-9" xMax="560" yMax="659">
      <contour>
        <pt x="557" y="355" on="1"/>
        <pt x="560" y="314" on="1"/>
        <pt x="559" y="302" on="1"/>
        <pt x="463" y="302" on="1"/>
        <pt x="480" y="232" on="0"/>
        <pt x="480" y="121" on="0"/>
        <pt x="438" y="48" on="0"/>
        <pt x="405" y="28" on="1"/>
        <pt x="342" y="-9" on="0"/>
        <pt x="275" y="-9" on="1"/>
        <pt x="184" y="-9" on="0"/>
        <pt x="61" y="82" on="0"/>
        <pt x="61" y="169" on="1"/>
        <pt x="61" y="286" on="0"/>
        <pt x="152" y="332" on="1"/>
        <pt x="81" y="387" on="0"/>
        <pt x="81" y="566" on="0"/>
        <pt x="192" y="659" on="0"/>
        <pt x="302" y="659" on="0"/>
        <pt x="340" y="644" on="1"/>
        <pt x="317" y="591" on="1"/>
        <pt x="291" y="604" on="0"/>
        <pt x="250" y="604" on="1"/>
        <pt x="187" y="604" on="0"/>
        <pt x="149" y="545" on="0"/>
        <pt x="149" y="420" on="0"/>
        <pt x="216" y="361" on="0"/>
        <pt x="279" y="352" on="1"/>
        <pt x="264" y="302" on="1"/>
        <pt x="217" y="302" on="0"/>
        <pt x="201" y="307" on="1"/>
        <pt x="188" y="302" on="0"/>
        <pt x="161" y="282" on="0"/>
        <pt x="130" y="216" on="0"/>
        <pt x="130" y="123" on="0"/>
        <pt x="206" y="46" on="0"/>
        <pt x="275" y="46" on="1"/>
        <pt x="412" y="46" on="0"/>
        <pt x="412" y="168" on="1"/>
        <pt x="412" y="274" on="0"/>
        <pt x="399" y="342" on="1"/>
        <pt x="399" y="349" on="0"/>
        <pt x="518" y="354" on="1"/>
      </contour>
    </TTGlyph>
    <TTGlyph name="aring" xMin="46" yMin="-5" xMax="431" yMax="765">
      <contour>
        <pt x="408" y="299" on="1"/>
        <pt x="407" y="180" on="1"/>
        <pt x="407" y="152" on="0"/>
        <pt x="408" y="128" on="1"/>
        <pt x="430" y="6" on="1"/>
        <pt x="431" y="1" on="1"/>
        <pt x="387" y="1" on="1"/>
        <pt x="383" y="4" on="1"/>
        <pt x="359" y="62" on="1"/>
        <pt x="266" y="-2" on="0"/>
        <pt x="176" y="-5" on="1"/>
        <pt x="113" y="-5" on="0"/>
        <pt x="46" y="62" on="0"/>
        <pt x="46" y="123" on="1"/>
        <pt x="46" y="207" on="0"/>
        <pt x="140" y="267" on="0"/>
        <pt x="222" y="267" on="1"/>
        <pt x="232" y="267" on="0"/>
        <pt x="343" y="261" on="1"/>
        <pt x="343" y="326" on="1"/>
        <pt x="343" y="392" on="0"/>
        <pt x="294" y="443" on="0"/>
        <pt x="206" y="443" on="0"/>
        <pt x="80" y="416" on="1"/>
        <pt x="71" y="464" on="1"/>
        <pt x="195" y="501" on="0"/>
        <pt x="249" y="501" on="1"/>
        <pt x="331" y="501" on="0"/>
        <pt x="379" y="450" on="1"/>
        <pt x="408" y="419" on="0"/>
      </contour>
      <contour>
        <pt x="343" y="211" on="1"/>
        <pt x="238" y="215" on="1"/>
        <pt x="158" y="215" on="0"/>
        <pt x="110" y="183" on="0"/>
        <pt x="110" y="88" on="0"/>
        <pt x="142" y="53" on="0"/>
        <pt x="221" y="53" on="0"/>
        <pt x="328" y="85" on="0"/>
        <pt x="343" y="106" on="1"/>
      </contour>
      <contour>
        <pt x="336" y="710" on="0"/>
        <pt x="336" y="630" on="0"/>
        <pt x="285" y="572" on="0"/>
        <pt x="191" y="572" on="0"/>
        <pt x="142" y="628" on="0"/>
        <pt x="142" y="709" on="0"/>
        <pt x="192" y="765" on="0"/>
        <pt x="287" y="765" on="0"/>
      </contour>
      <contour>
        <pt x="267" y="606" on="0"/>
        <pt x="297" y="645" on="0"/>
        <pt x="297" y="694" on="0"/>
        <pt x="268" y="731" on="0"/>
        <pt x="211" y="731" on="0"/>
        <pt x="181" y="694" on="0"/>
        <pt x="181" y="644" on="0"/>
        <pt x="209" y="606" on="0"/>
      </contour>
    </TTGlyph>
    <TTGlyph name="asciicircum" xMin="48" yMin="305" xMax="445" yMax="644">
      <contour>
        <pt x="243" y="572" on="1"/>
        <pt x="242" y="572" on="0"/>
        <pt x="240" y="570" on="1"/>
        <pt x="238" y="568" on="0"/>
        <pt x="235" y="561" on="0"/>
        <pt x="234" y="559" on="1"/>
        <pt x="111" y="305" on="1"/>
        <pt x="48" y="305" on="1"/>
        <pt x="216" y="644" on="1"/>
        <pt x="276" y="644" on="1"/>
        <pt x="445" y="305" on="1"/>
        <pt x="382" y="305" on="1"/>
        <pt x="270" y="526" on="0"/>
        <pt x="257" y="559" on="1"/>
        <pt x="249" y="571" on="0"/>
        <pt x="246" y="572" on="1"/>
      </contour>
    </TTGlyph>
    <TTGlyph name="asciitilde" xMin="72" yMin="221" xMax="429" yMax="320">
      <contour>
        <pt x="382" y="246" on="1"/>
        <pt x="363" y="231" on="0"/>
        <pt x="344" y="227" on="0"/>
        <pt x="326" y="227" on="0"/>
        <pt x="310" y="230" on="1"/>
        <pt x="165" y="253" on="1"/>
        <pt x="90" y="221" on="1"/>
        <pt x="72" y="249" on="1"/>
        <pt x="114" y="290" on="1"/>
        <pt x="135" y="307" on="0"/>
        <pt x="152" y="313" on="0"/>
        <pt x="170" y="313" on="0"/>
        <pt x="182" y="311" on="1"/>
        <pt x="337" y="285" on="1"/>
        <pt x="411" y="320" on="1"/>
        <pt x="429" y="285" on="1"/>
      </contour>
    </TTGlyph>
    <TTGlyph name="asterisk" xMin="57" yMin="390" xMax="350" yMax="669">
      <contour>
        <pt x="183" y="552" on="1"/>
        <pt x="177" y="669" on="1"/>
        <pt x="230" y="669" on="1"/>
        <pt x="224" y="552" on="1"/>
        <pt x="333" y="593" on="1"/>
        <pt x="350" y="543" on="1"/>
        <pt x="237" y="512" on="1"/>
        <pt x="310" y="421" on="1"/>
        <pt x="267" y="390" on="1"/>
        <pt x="203" y="488" on="1"/>
        <pt x="139" y="390" on="1"/>
        <pt x="97" y="421" on="1"/>
        <pt x="170" y="513" on="1"/>
        <pt x="57" y="543" on="1"/>
        <pt x="73" y="593" on="1"/>
      </contour>
    </TTGlyph>
    <TTGlyph name="at" xMin="58" yMin="-108" xMax="727" yMax="500">
      <contour>
        <pt x="489" y="250" on="1"/>
        <pt x="478" y="251" on="1"/>
        <pt x="425" y="254" on="0"/>
        <pt x="331" y="254" on="0"/>
        <pt x="293" y="225" on="0"/>
        <pt x="293" y="146" on="0"/>
        <pt x="319" y="119" on="0"/>
        <pt x="385" y="119" on="0"/>
        <pt x="476" y="148" on="0"/>
        <pt x="489" y="166" on="1"/>
      </contour>
      <contour>
        <pt x="489" y="298" on="1"/>
        <pt x="490" y="353" on="1"/>
        <pt x="490" y="405" on="0"/>
        <pt x="444" y="446" on="0"/>
        <pt x="331" y="446" on="0"/>
        <pt x="182" y="394" on="0"/>
        <pt x="120" y="295" on="0"/>
        <pt x="120" y="119" on="0"/>
        <pt x="139" y="35" on="0"/>
        <pt x="210" y="-28" on="0"/>
        <pt x="299" y="-55" on="0"/>
        <pt x="431" y="-55" on="0"/>
        <pt x="513" y="-48" on="0"/>
        <pt x="586" y="-24" on="0"/>
        <pt x="628" y="16" on="0"/>
        <pt x="644" y="50" on="1"/>
        <pt x="671" y="112" on="0"/>
        <pt x="671" y="249" on="1"/>
        <pt x="727" y="246" on="1"/>
        <pt x="727" y="78" on="0"/>
        <pt x="675" y="-4" on="1"/>
        <pt x="630" y="-76" on="0"/>
        <pt x="510" y="-97" on="1"/>
        <pt x="459" y="-106" on="0"/>
        <pt x="383" y="-108" on="1"/>
        <pt x="58" y="-108" on="0"/>
        <pt x="58" y="156" on="1"/>
        <pt x="58" y="311" on="0"/>
        <pt x="148" y="435" on="0"/>
        <pt x="340" y="500" on="0"/>
        <pt x="485" y="500" on="0"/>
        <pt x="525" y="455" on="1"/>
        <pt x="547" y="431" on="0"/>
        <pt x="548" y="378" on="1"/>
        <pt x="549" y="362" on="0"/>
        <pt x="549" y="321" on="1"/>
        <pt x="549" y="298" on="1"/>
        <pt x="549" y="203" on="0"/>
        <pt x="550" y="178" on="1"/>
        <pt x="553" y="159" on="0"/>
        <pt x="567" y="84" on="0"/>
        <pt x="570" y="65" on="1"/>
        <pt x="529" y="65" on="1"/>
        <pt x="522" y="72" on="1"/>
        <pt x="505" y="123" on="1"/>
        <pt x="418" y="66" on="0"/>
        <pt x="348" y="64" on="1"/>
        <pt x="294" y="64" on="0"/>
        <pt x="234" y="123" on="0"/>
        <pt x="234" y="176" on="1"/>
        <pt x="234" y="250" on="0"/>
        <pt x="316" y="303" on="0"/>
        <pt x="389" y="303" on="1"/>
        <pt x="417" y="303" on="0"/>
        <pt x="471" y="299" on="1"/>
      </contour>
    </TTGlyph>
    <TTGlyph name="atilde" xMin="46" yMin="-5" xMax="431" yMax="664">
      <contour>
        <pt x="408" y="299" on="1"/>
        <pt x="407" y="180" on="1"/>
        <pt x="407" y="152" on="0"/>
        <pt x="408" y="128" on="1"/>
        <pt x="430" y="6" on="1"/>
        <pt x="431" y="1" on="1"/>
        <pt x="387" y="1" on="1"/>
        <pt x="383" y="4" on="1"/>
        <pt x="359" y="62" on="1"/>
        <pt x="266" y="-2" on="0"/>
        <pt x="176" y="-5" on="1"/>
        <pt x="113" y="-5" on="0"/>
        <pt x="46" y="62" on="0"/>
        <pt x="46" y="123" on="1"/>
        <pt x="46" y="207" on="0"/>
        <pt x="140" y="267" on="0"/>
        <pt x="222" y="267" on="1"/>
        <pt x="232" y="267" on="0"/>
        <pt x="343" y="261" on="1"/>
        <pt x="343" y="326" on="1"/>
        <pt x="343" y="392" on="0"/>
        <pt x="294" y="443" on="0"/>
        <pt x="206" y="443" on="0"/>
        <pt x="80" y="416" on="1"/>
        <pt x="71" y="464" on="1"/>
        <pt x="195" y="501" on="0"/>
        <pt x="249" y="501" on="1"/>
        <pt x="331" y="501" on="0"/>
        <pt x="379" y="450" on="1"/>
        <pt x="408" y="419" on="0"/>
      </contour>
      <contour>
        <pt x="343" y="211" on="1"/>
        <pt x="238" y="215" on="1"/>
        <pt x="158" y="215" on="0"/>
        <pt x="110" y="183" on="0"/>
        <pt x="110" y="88" on="0"/>
        <pt x="142" y="53" on="0"/>
        <pt x="221" y="53" on="0"/>
        <pt x="328" y="85" on="0"/>
        <pt x="343" y="106" on="1"/>
      </contour>
      <contour>
        <pt x="340" y="596" on="1"/>
        <pt x="321" y="581" on="0"/>
        <pt x="303" y="578" on="0"/>
        <pt x="286" y="578" on="0"/>
        <pt x="268" y="583" on="1"/>
        <pt x="183" y="603" on="1"/>
        <pt x="108" y="571" on="1"/>
        <pt x="90" y="599" on="1"/>
        <pt x="132" y="634" on="1"/>
        <pt x="153" y="652" on="0"/>
        <pt x="168" y="655" on="0"/>
        <pt x="183" y="655" on="0"/>
        <pt x="200" y="651" on="1"/>
        <pt x="295" y="629" on="1"/>
        <pt x="369" y="664" on="1"/>
        <pt x="387" y="635" on="1"/>
      </contour>
    </TTGlyph>
    <TTGlyph name="b" xMin="75" yMin="-12" xMax="454" yMax="736">
      <contour>
        <pt x="75" y="736" on="1"/>
        <pt x="137" y="736" on="1"/>
        <pt x="137" y="447" on="1"/>
        <pt x="197" y="500" on="0"/>
        <pt x="324" y="500" on="0"/>
        <pt x="401" y="463" on="0"/>
        <pt x="420" y="426" on="1"/>
        <pt x="454" y="361" on="0"/>
        <pt x="454" y="252" on="1"/>
        <pt x="454" y="183" on="0"/>
        <pt x="420" y="79" on="0"/>
        <pt x="373" y="27" on="0"/>
        <pt x="343" y="11" on="1"/>
        <pt x="300" y="-12" on="0"/>
        <pt x="258" y="-12" on="1"/>
        <pt x="232" y="-12" on="0"/>
        <pt x="198" y="-5" on="0"/>
        <pt x="180" y="-2" on="0"/>
        <pt x="155" y="7" on="0"/>
        <pt x="142" y="11" on="0"/>
        <pt x="115" y="23" on="0"/>
        <pt x="111" y="25" on="1"/>
        <pt x="81" y="40" on="0"/>
        <pt x="75" y="42" on="1"/>
      </contour>
      <contour>
        <pt x="137" y="67" on="1"/>
        <pt x="193" y="47" on="0"/>
        <pt x="293" y="47" on="0"/>
        <pt x="345" y="72" on="0"/>
        <pt x="371" y="104" on="0"/>
        <pt x="378" y="134" on="1"/>
        <pt x="386" y="174" on="0"/>
        <pt x="386" y="238" on="1"/>
        <pt x="386" y="357" on="0"/>
        <pt x="346" y="441" on="0"/>
        <pt x="186" y="441" on="0"/>
        <pt x="137" y="385" on="1"/>
      </contour>
    </TTGlyph>
    <TTGlyph name="backslash" xMin="23" yMin="-50" xMax="354" yMax="751">
      <contour>
        <pt x="77" y="751" on="1"/>
        <pt x="354" y="-31" on="1"/>
        <pt x="299" y="-50" on="1"/>
        <pt x="23" y="732" on="1"/>
      </contour>
    </TTGlyph>
    <TTGlyph name="bar" xMin="91" yMin="-44" xMax="155" yMax="682">
      <contour>
        <pt x="91" y="682" on="1"/>
        <pt x="155" y="682" on="1"/>
        <pt x="154" y="-44" on="1"/>
        <pt x="91" y="-44" on="1"/>
      </contour>
    </TTGlyph>
    <TTGlyph name="braceleft" xMin="42" yMin="-186" xMax="214" yMax="727">
      <contour>
        <pt x="170" y="563" on="1"/>
        <pt x="171" y="371" on="1"/>
        <pt x="171" y="348" on="0"/>
        <pt x="153" y="322" on="0"/>
        <pt x="142" y="308" on="0"/>
        <pt x="126" y="296" on="0"/>
        <pt x="121" y="292" on="1"/>
        <pt x="106" y="280" on="0"/>
        <pt x="103" y="280" on="1"/>
        <pt x="100" y="278" on="0"/>
        <pt x="100" y="264" on="0"/>
        <pt x="103" y="262" on="1"/>
        <pt x="142" y="238" on="0"/>
        <pt x="152" y="223" on="1"/>
        <pt x="171" y="196" on="0"/>
        <pt x="171" y="171" on="1"/>
        <pt x="171" y="43" on="0"/>
        <pt x="170" y="-21" on="1"/>
        <pt x="173" y="-97" on="1"/>
        <pt x="187" y="-126" on="0"/>
        <pt x="214" y="-163" on="1"/>
        <pt x="188" y="-186" on="1"/>
        <pt x="181" y="-180" on="0"/>
        <pt x="154" y="-158" on="0"/>
        <pt x="147" y="-151" on="0"/>
        <pt x="128" y="-134" on="0"/>
        <pt x="125" y="-127" on="0"/>
        <pt x="113" y="-112" on="0"/>
        <pt x="112" y="-100" on="0"/>
        <pt x="106" y="-82" on="0"/>
        <pt x="106" y="-72" on="1"/>
        <pt x="105" y="-20" on="1"/>
        <pt x="105" y="184" on="1"/>
        <pt x="105" y="188" on="0"/>
        <pt x="60" y="239" on="0"/>
        <pt x="44" y="254" on="1"/>
        <pt x="42" y="261" on="0"/>
        <pt x="42" y="285" on="0"/>
        <pt x="43" y="288" on="1"/>
        <pt x="105" y="350" on="0"/>
        <pt x="105" y="358" on="1"/>
        <pt x="105" y="561" on="1"/>
        <pt x="106" y="614" on="1"/>
        <pt x="106" y="624" on="0"/>
        <pt x="112" y="641" on="0"/>
        <pt x="113" y="654" on="0"/>
        <pt x="125" y="669" on="0"/>
        <pt x="128" y="676" on="0"/>
        <pt x="147" y="693" on="0"/>
        <pt x="154" y="699" on="0"/>
        <pt x="182" y="722" on="0"/>
        <pt x="188" y="727" on="1"/>
        <pt x="214" y="704" on="1"/>
        <pt x="187" y="670" on="0"/>
        <pt x="173" y="639" on="1"/>
      </contour>
    </TTGlyph>
    <TTGlyph name="braceright" xMin="52" yMin="-186" xMax="224" yMax="727">
      <contour>
        <pt x="161" y="-20" on="1"/>
        <pt x="160" y="-72" on="1"/>
        <pt x="160" y="-82" on="0"/>
        <pt x="154" y="-100" on="0"/>
        <pt x="153" y="-112" on="0"/>
        <pt x="141" y="-127" on="0"/>
        <pt x="138" y="-134" on="0"/>
        <pt x="119" y="-151" on="0"/>
        <pt x="112" y="-158" on="0"/>
        <pt x="85" y="-180" on="0"/>
        <pt x="78" y="-186" on="1"/>
        <pt x="52" y="-163" on="1"/>
        <pt x="79" y="-126" on="0"/>
        <pt x="93" y="-97" on="1"/>
        <pt x="96" y="-21" on="1"/>
        <pt x="95" y="43" on="0"/>
        <pt x="95" y="171" on="1"/>
        <pt x="95" y="220" on="0"/>
        <pt x="155" y="257" on="1"/>
        <pt x="163" y="262" on="1"/>
        <pt x="166" y="264" on="0"/>
        <pt x="166" y="278" on="0"/>
        <pt x="163" y="280" on="1"/>
        <pt x="160" y="280" on="0"/>
        <pt x="140" y="296" on="0"/>
        <pt x="124" y="308" on="0"/>
        <pt x="113" y="322" on="0"/>
        <pt x="107" y="330" on="1"/>
        <pt x="95" y="348" on="0"/>
        <pt x="95" y="371" on="1"/>
        <pt x="96" y="563" on="1"/>
        <pt x="93" y="639" on="1"/>
        <pt x="79" y="670" on="0"/>
        <pt x="52" y="704" on="1"/>
        <pt x="78" y="727" on="1"/>
        <pt x="84" y="722" on="0"/>
        <pt x="112" y="699" on="0"/>
        <pt x="119" y="693" on="0"/>
        <pt x="138" y="676" on="0"/>
        <pt x="141" y="669" on="0"/>
        <pt x="153" y="654" on="0"/>
        <pt x="154" y="641" on="0"/>
        <pt x="160" y="624" on="0"/>
        <pt x="160" y="614" on="1"/>
        <pt x="161" y="561" on="1"/>
        <pt x="161" y="358" on="1"/>
        <pt x="161" y="350" on="0"/>
        <pt x="223" y="288" on="1"/>
        <pt x="224" y="285" on="0"/>
        <pt x="224" y="280" on="1"/>
        <pt x="224" y="261" on="0"/>
        <pt x="222" y="254" on="1"/>
        <pt x="206" y="239" on="0"/>
        <pt x="161" y="188" on="0"/>
        <pt x="161" y="184" on="1"/>
      </contour>
    </TTGlyph>
    <TTGlyph name="bracketleft" xMin="84" yMin="-166" xMax="194" yMax="707">
      <contour>
        <pt x="85" y="541" on="1"/>
        <pt x="86" y="594" on="1"/>
        <pt x="86" y="604" on="0"/>
        <pt x="92" y="621" on="0"/>
        <pt x="93" y="634" on="0"/>
        <pt x="105" y="649" on="0"/>
        <pt x="108" y="656" on="0"/>
        <pt x="127" y="673" on="0"/>
        <pt x="134" y="679" on="0"/>
        <pt x="162" y="702" on="0"/>
        <pt x="168" y="707" on="1"/>
        <pt x="194" y="684" on="1"/>
        <pt x="167" y="650" on="0"/>
        <pt x="153" y="619" on="1"/>
        <pt x="150" y="543" on="1"/>
        <pt x="152" y="407" on="0"/>
        <pt x="152" y="135" on="0"/>
        <pt x="150" y="-1" on="1"/>
        <pt x="153" y="-77" on="1"/>
        <pt x="167" y="-106" on="0"/>
        <pt x="194" y="-143" on="1"/>
        <pt x="168" y="-166" on="1"/>
        <pt x="161" y="-160" on="0"/>
        <pt x="134" y="-138" on="0"/>
        <pt x="127" y="-131" on="0"/>
        <pt x="108" y="-114" on="0"/>
        <pt x="105" y="-107" on="0"/>
        <pt x="93" y="-92" on="0"/>
        <pt x="92" y="-80" on="0"/>
        <pt x="86" y="-62" on="0"/>
        <pt x="86" y="-52" on="1"/>
        <pt x="85" y="0" on="1"/>
        <pt x="84" y="409" on="1"/>
        <pt x="84" y="523" on="0"/>
      </contour>
    </TTGlyph>
    <TTGlyph name="bracketright" xMin="58" yMin="-166" xMax="167" yMax="707">
      <contour>
        <pt x="167" y="0" on="1"/>
        <pt x="166" y="-52" on="1"/>
        <pt x="166" y="-62" on="0"/>
        <pt x="160" y="-80" on="0"/>
        <pt x="159" y="-92" on="0"/>
        <pt x="147" y="-107" on="0"/>
        <pt x="144" y="-114" on="0"/>
        <pt x="125" y="-131" on="0"/>
        <pt x="118" y="-138" on="0"/>
        <pt x="91" y="-160" on="0"/>
        <pt x="84" y="-166" on="1"/>
        <pt x="58" y="-143" on="1"/>
        <pt x="85" y="-106" on="0"/>
        <pt x="99" y="-77" on="1"/>
        <pt x="102" y="-1" on="1"/>
        <pt x="100" y="135" on="0"/>
        <pt x="100" y="407" on="0"/>
        <pt x="102" y="543" on="1"/>
        <pt x="99" y="619" on="1"/>
        <pt x="85" y="650" on="0"/>
        <pt x="58" y="684" on="1"/>
        <pt x="84" y="707" on="1"/>
        <pt x="90" y="702" on="0"/>
        <pt x="118" y="679" on="0"/>
        <pt x="125" y="673" on="0"/>
        <pt x="144" y="656" on="0"/>
        <pt x="147" y="649" on="0"/>
        <pt x="159" y="634" on="0"/>
        <pt x="160" y="621" on="0"/>
        <pt x="166" y="604" on="0"/>
        <pt x="166" y="594" on="1"/>
        <pt x="167" y="541" on="1"/>
      </contour>
    </TTGlyph>
    <TTGlyph name="breve" xMin="65" yMin="563" xMax="267" yMax="660">
      <contour>
        <pt x="227" y="660" on="1"/>
        <pt x="267" y="660" on="1"/>
        <pt x="267" y="620" on="0"/>
        <pt x="215" y="563" on="0"/>
        <pt x="115" y="563" on="0"/>
        <pt x="65" y="619" on="0"/>
        <pt x="65" y="660" on="1"/>
        <pt x="105" y="660" on="1"/>
        <pt x="105" y="630" on="0"/>
        <pt x="130" y="598" on="0"/>
        <pt x="165" y="598" on="1"/>
        <pt x="227" y="598" on="0"/>
      </contour>
    </TTGlyph>
    <TTGlyph name="brokenbar" xMin="92" yMin="-44" xMax="153" yMax="684">
      <contour>
        <pt x="92" y="-44" on="1"/>
        <pt x="92" y="242" on="1"/>
        <pt x="153" y="242" on="1"/>
        <pt x="153" y="-44" on="1"/>
      </contour>
      <contour>
        <pt x="92" y="394" on="1"/>
        <pt x="92" y="684" on="1"/>
        <pt x="153" y="684" on="1"/>
        <pt x="153" y="394" on="1"/>
      </contour>
    </TTGlyph>
    <TTGlyph name="bullet" xMin="85" yMin="247" xMax="270" yMax="445">
      <contour>
        <pt x="85" y="397" on="0"/>
        <pt x="141" y="445" on="0"/>
        <pt x="227" y="445" on="0"/>
        <pt x="270" y="399" on="0"/>
        <pt x="270" y="292" on="0"/>
        <pt x="216" y="247" on="0"/>
        <pt x="135" y="247" on="0"/>
        <pt x="85" y="289" on="0"/>
      </contour>
    </TTGlyph>
    <TTGlyph name="c" xMin="54" yMin="-10" xMax="421" yMax="501">
      <contour>
        <pt x="175" y="479" on="0"/>
        <pt x="247" y="501" on="0"/>
        <pt x="338" y="501" on="0"/>
        <pt x="393" y="482" on="1"/>
        <pt x="385" y="438" on="1"/>
        <pt x="330" y="449" on="0"/>
        <pt x="297" y="449" on="1"/>
        <pt x="211" y="449" on="0"/>
        <pt x="121" y="360" on="0"/>
        <pt x="121" y="245" on="1"/>
        <pt x="121" y="43" on="0"/>
        <pt x="285" y="43" on="1"/>
        <pt x="336" y="43" on="0"/>
        <pt x="394" y="79" on="1"/>
        <pt x="421" y="37" on="1"/>
        <pt x="356" y="-10" on="0"/>
        <pt x="269" y="-10" on="1"/>
        <pt x="224" y="-10" on="0"/>
        <pt x="157" y="8" on="0"/>
        <pt x="124" y="33" on="1"/>
        <pt x="54" y="85" on="0"/>
        <pt x="54" y="245" on="1"/>
        <pt x="54" y="320" on="0"/>
        <pt x="100" y="427" on="0"/>
      </contour>
    </TTGlyph>
    <TTGlyph name="caron" xMin="55" yMin="567" xMax="323" yMax="703">
      <contour>
        <pt x="83" y="703" on="1"/>
        <pt x="189" y="616" on="1"/>
        <pt x="294" y="703" on="1"/>
        <pt x="323" y="673" on="1"/>
        <pt x="219" y="567" on="1"/>
        <pt x="159" y="567" on="1"/>
        <pt x="55" y="673" on="1"/>
      </contour>
    </TTGlyph>
    <TTGlyph name="ccedilla" xMin="54" yMin="-178" xMax="421" yMax="501">
      <contour>
        <pt x="247" y="501" on="0"/>
        <pt x="175" y="479" on="0"/>
        <pt x="100" y="427" on="0"/>
        <pt x="54" y="320" on="0"/>
        <pt x="54" y="245" on="1"/>
        <pt x="54" y="85" on="0"/>
        <pt x="124" y="33" on="1"/>
        <pt x="157" y="8" on="0"/>
        <pt x="224" y="-10" on="0"/>
        <pt x="269" y="-10" on="1"/>
        <pt x="356" y="-10" on="0"/>
        <pt x="421" y="37" on="1"/>
        <pt x="394" y="79" on="1"/>
        <pt x="336" y="43" on="0"/>
        <pt x="285" y="43" on="1"/>
        <pt x="121" y="43" on="0"/>
        <pt x="121" y="245" on="1"/>
        <pt x="121" y="360" on="0"/>
        <pt x="211" y="449" on="0"/>
        <pt x="297" y="449" on="1"/>
        <pt x="330" y="449" on="0"/>
        <pt x="385" y="438" on="1"/>
        <pt x="393" y="482" on="1"/>
        <pt x="338" y="501" on="0"/>
      </contour>
      <contour>
        <pt x="218" y="-5" on="1"/>
        <pt x="278" y="-5" on="1"/>
        <pt x="278" y="-64" on="1"/>
        <pt x="236" y="-174" on="1"/>
        <pt x="233" y="-178" on="1"/>
        <pt x="189" y="-178" on="1"/>
        <pt x="218" y="-64" on="1"/>
      </contour>
    </TTGlyph>
    <TTGlyph name="cedilla" xMin="140" yMin="-178" xMax="229" yMax="-5">
      <contour>
        <pt x="169" y="-5" on="1"/>
        <pt x="229" y="-5" on="1"/>
        <pt x="229" y="-64" on="1"/>
        <pt x="187" y="-174" on="1"/>
        <pt x="184" y="-178" on="1"/>
        <pt x="140" y="-178" on="1"/>
        <pt x="169" y="-64" on="1"/>
      </contour>
    </TTGlyph>
    <TTGlyph name="cent" xMin="56" yMin="-15" xMax="421" yMax="684">
      <contour>
        <pt x="238" y="-15" on="1"/>
        <pt x="238" y="80" on="1"/>
        <pt x="162" y="86" on="0"/>
        <pt x="112" y="134" on="1"/>
        <pt x="56" y="188" on="0"/>
        <pt x="56" y="334" on="1"/>
        <pt x="56" y="461" on="0"/>
        <pt x="116" y="521" on="1"/>
        <pt x="169" y="574" on="0"/>
        <pt x="238" y="586" on="1"/>
        <pt x="238" y="684" on="1"/>
        <pt x="292" y="684" on="1"/>
        <pt x="292" y="590" on="1"/>
        <pt x="340" y="589" on="0"/>
        <pt x="393" y="571" on="1"/>
        <pt x="385" y="527" on="1"/>
        <pt x="330" y="538" on="0"/>
        <pt x="297" y="538" on="1"/>
        <pt x="211" y="538" on="0"/>
        <pt x="121" y="449" on="0"/>
        <pt x="121" y="334" on="1"/>
        <pt x="121" y="132" on="0"/>
        <pt x="285" y="132" on="1"/>
        <pt x="336" y="132" on="0"/>
        <pt x="394" y="168" on="1"/>
        <pt x="421" y="126" on="1"/>
        <pt x="363" y="84" on="0"/>
        <pt x="292" y="79" on="1"/>
        <pt x="292" y="-15" on="1"/>
      </contour>
    </TTGlyph>
    <TTGlyph name="circumflex" xMin="55" yMin="587" xMax="323" yMax="723">
      <contour>
        <pt x="189" y="674" on="1"/>
        <pt x="83" y="587" on="1"/>
        <pt x="55" y="617" on="1"/>
        <pt x="159" y="723" on="1"/>
        <pt x="219" y="723" on="1"/>
        <pt x="323" y="617" on="1"/>
        <pt x="294" y="587" on="1"/>
      </contour>
    </TTGlyph>
    <TTGlyph name="colon" xMin="72" yMin="2" xMax="157" yMax="408">
      <contour>
        <pt x="157" y="93" on="1"/>
        <pt x="157" y="2" on="1"/>
        <pt x="72" y="2" on="1"/>
        <pt x="73" y="93" on="1"/>
      </contour>
      <contour>
        <pt x="157" y="408" on="1"/>
        <pt x="157" y="317" on="1"/>
        <pt x="72" y="317" on="1"/>
        <pt x="73" y="408" on="1"/>
      </contour>
    </TTGlyph>
    <TTGlyph name="comma" xMin="44" yMin="-126" xMax="146" yMax="92">
      <contour>
        <pt x="145" y="92" on="1"/>
        <pt x="146" y="1" on="1"/>
        <pt x="93" y="-126" on="1"/>
        <pt x="44" y="-126" on="1"/>
        <pt x="69" y="1" on="1"/>
        <pt x="70" y="92" on="1"/>
      </contour>
    </TTGlyph>
    <TTGlyph name="copyright" xMin="60" yMin="-14" xMax="696" yMax="622">
      <contour>
        <pt x="389" y="494" on="1"/>
        <pt x="422" y="494" on="0"/>
        <pt x="480" y="478" on="1"/>
        <pt x="468" y="438" on="1"/>
        <pt x="449" y="440" on="1"/>
        <pt x="411" y="448" on="0"/>
        <pt x="391" y="448" on="1"/>
        <pt x="328" y="448" on="0"/>
        <pt x="269" y="395" on="0"/>
        <pt x="269" y="223" on="0"/>
        <pt x="323" y="162" on="0"/>
        <pt x="419" y="162" on="0"/>
        <pt x="462" y="188" on="1"/>
        <pt x="480" y="148" on="1"/>
        <pt x="434" y="116" on="0"/>
        <pt x="368" y="116" on="1"/>
        <pt x="336" y="116" on="0"/>
        <pt x="290" y="128" on="0"/>
        <pt x="266" y="146" on="1"/>
        <pt x="218" y="183" on="0"/>
        <pt x="218" y="305" on="1"/>
        <pt x="218" y="421" on="0"/>
        <pt x="278" y="462" on="1"/>
        <pt x="326" y="494" on="0"/>
      </contour>
      <contour>
        <pt x="509" y="622" on="0"/>
        <pt x="696" y="435" on="0"/>
        <pt x="696" y="171" on="0"/>
        <pt x="515" y="-14" on="0"/>
        <pt x="247" y="-14" on="0"/>
        <pt x="60" y="173" on="0"/>
        <pt x="60" y="437" on="0"/>
        <pt x="241" y="622" on="0"/>
      </contour>
      <contour>
        <pt x="500" y="35" on="0"/>
        <pt x="639" y="184" on="0"/>
        <pt x="639" y="415" on="0"/>
        <pt x="487" y="570" on="0"/>
        <pt x="255" y="570" on="0"/>
        <pt x="116" y="423" on="0"/>
        <pt x="116" y="191" on="0"/>
        <pt x="268" y="35" on="0"/>
      </contour>
    </TTGlyph>
    <TTGlyph name="currency" xMin="64" yMin="-8" xMax="618" yMax="633">
      <contour>
        <pt x="141" y="124" on="1"/>
        <pt x="76" y="192" on="0"/>
        <pt x="76" y="442" on="0"/>
        <pt x="138" y="504" on="1"/>
        <pt x="64" y="593" on="1"/>
        <pt x="112" y="633" on="1"/>
        <pt x="189" y="541" on="1"/>
        <pt x="249" y="570" on="0"/>
        <pt x="430" y="570" on="0"/>
        <pt x="490" y="539" on="1"/>
        <pt x="570" y="633" on="1"/>
        <pt x="618" y="593" on="1"/>
        <pt x="542" y="502" on="1"/>
        <pt x="610" y="434" on="0"/>
        <pt x="610" y="179" on="0"/>
        <pt x="547" y="117" on="1"/>
        <pt x="618" y="33" on="1"/>
        <pt x="569" y="-8" on="1"/>
        <pt x="494" y="80" on="1"/>
        <pt x="435" y="52" on="0"/>
        <pt x="254" y="52" on="0"/>
        <pt x="191" y="85" on="1"/>
        <pt x="113" y="-8" on="1"/>
        <pt x="64" y="33" on="1"/>
      </contour>
      <contour>
        <pt x="341" y="108" on="1"/>
        <pt x="470" y="108" on="0"/>
        <pt x="512" y="172" on="1"/>
        <pt x="532" y="204" on="0"/>
        <pt x="547" y="268" on="0"/>
        <pt x="547" y="350" on="0"/>
        <pt x="529" y="416" on="0"/>
        <pt x="508" y="447" on="1"/>
        <pt x="463" y="514" on="0"/>
        <pt x="232" y="514" on="0"/>
        <pt x="138" y="414" on="0"/>
        <pt x="138" y="207" on="0"/>
        <pt x="245" y="108" on="0"/>
      </contour>
    </TTGlyph>
    <TTGlyph name="d" xMin="55" yMin="-10" xMax="458" yMax="736">
      <contour>
        <pt x="363" y="33" on="0"/>
        <pt x="285" y="-10" on="0"/>
        <pt x="185" y="-10" on="0"/>
        <pt x="108" y="27" on="0"/>
        <pt x="89" y="64" on="1"/>
        <pt x="55" y="129" on="0"/>
        <pt x="55" y="238" on="1"/>
        <pt x="55" y="307" on="0"/>
        <pt x="89" y="410" on="0"/>
        <pt x="136" y="463" on="0"/>
        <pt x="166" y="479" on="1"/>
        <pt x="209" y="502" on="0"/>
        <pt x="293" y="502" on="0"/>
        <pt x="372" y="466" on="1"/>
        <pt x="372" y="736" on="1"/>
        <pt x="434" y="736" on="1"/>
        <pt x="434" y="127" on="1"/>
        <pt x="458" y="0" on="1"/>
        <pt x="417" y="0" on="1"/>
        <pt x="413" y="3" on="1"/>
        <pt x="389" y="61" on="1"/>
      </contour>
      <contour>
        <pt x="123" y="349" on="0"/>
        <pt x="123" y="133" on="0"/>
        <pt x="163" y="49" on="0"/>
        <pt x="322" y="49" on="0"/>
        <pt x="372" y="105" on="1"/>
        <pt x="372" y="423" on="1"/>
        <pt x="322" y="443" on="0"/>
        <pt x="174" y="443" on="0"/>
      </contour>
    </TTGlyph>
    <TTGlyph name="dagger" xMin="39" yMin="-44" xMax="420" yMax="682">
      <contour>
        <pt x="39" y="433" on="1"/>
        <pt x="39" y="492" on="1"/>
        <pt x="197" y="492" on="1"/>
        <pt x="197" y="682" on="1"/>
        <pt x="261" y="682" on="1"/>
        <pt x="260" y="492" on="1"/>
        <pt x="420" y="492" on="1"/>
        <pt x="420" y="433" on="1"/>
        <pt x="260" y="433" on="1"/>
        <pt x="260" y="-44" on="1"/>
        <pt x="197" y="-44" on="1"/>
        <pt x="197" y="433" on="1"/>
      </contour>
    </TTGlyph>
    <TTGlyph name="daggerdbl" xMin="55" yMin="-44" xMax="386" yMax="682">
      <contour>
        <pt x="55" y="384" on="1"/>
        <pt x="55" y="443" on="1"/>
        <pt x="188" y="443" on="1"/>
        <pt x="188" y="682" on="1"/>
        <pt x="252" y="682" on="1"/>
        <pt x="251" y="443" on="1"/>
        <pt x="386" y="443" on="1"/>
        <pt x="386" y="384" on="1"/>
        <pt x="251" y="384" on="1"/>
        <pt x="251" y="243" on="1"/>
        <pt x="386" y="243" on="1"/>
        <pt x="386" y="184" on="1"/>
        <pt x="251" y="184" on="1"/>
        <pt x="251" y="-44" on="1"/>
        <pt x="188" y="-44" on="1"/>
        <pt x="188" y="184" on="1"/>
        <pt x="55" y="184" on="1"/>
        <pt x="55" y="243" on="1"/>
        <pt x="188" y="243" on="1"/>
        <pt x="188" y="384" on="1"/>
      </contour>
    </TTGlyph>
    <TTGlyph name="degree" xMin="52" yMin="451" xMax="288" yMax="686">
      <contour>
        <pt x="228" y="686" on="0"/>
        <pt x="288" y="620" on="0"/>
        <pt x="288" y="521" on="0"/>
        <pt x="227" y="451" on="0"/>
        <pt x="111" y="451" on="0"/>
        <pt x="52" y="519" on="0"/>
        <pt x="52" y="618" on="0"/>
        <pt x="113" y="686" on="0"/>
      </contour>
      <contour>
        <pt x="238" y="540" on="0"/>
        <pt x="238" y="600" on="0"/>
        <pt x="205" y="642" on="0"/>
        <pt x="135" y="642" on="0"/>
        <pt x="102" y="599" on="0"/>
        <pt x="102" y="538" on="0"/>
        <pt x="134" y="495" on="0"/>
        <pt x="204" y="495" on="0"/>
      </contour>
    </TTGlyph>
    <TTGlyph name="dieresis" xMin="166" yMin="584" xMax="384" yMax="658">
      <contour>
        <pt x="166" y="658" on="1"/>
        <pt x="238" y="658" on="1"/>
        <pt x="238" y="584" on="1"/>
        <pt x="166" y="584" on="1"/>
      </contour>
      <contour>
        <pt x="312" y="658" on="1"/>
        <pt x="384" y="658" on="1"/>
        <pt x="384" y="584" on="1"/>
        <pt x="312" y="584" on="1"/>
      </contour>
    </TTGlyph>
    <TTGlyph name="divide" xMin="67" yMin="95" xMax="460" yMax="501">
      <contour>
        <pt x="67" y="269" on="1"/>
        <pt x="67" y="328" on="1"/>
        <pt x="460" y="328" on="1"/>
        <pt x="460" y="269" on="1"/>
      </contour>
      <contour>
        <pt x="306" y="501" on="1"/>
        <pt x="306" y="410" on="1"/>
        <pt x="221" y="410" on="1"/>
        <pt x="222" y="501" on="1"/>
      </contour>
      <contour>
        <pt x="306" y="186" on="1"/>
        <pt x="306" y="95" on="1"/>
        <pt x="221" y="95" on="1"/>
        <pt x="222" y="186" on="1"/>
      </contour>
    </TTGlyph>
    <TTGlyph name="dollar" xMin="50" yMin="-97" xMax="452" yMax="714">
      <contour>
        <pt x="229" y="-97" on="1"/>
        <pt x="229" y="-7" on="1"/>
        <pt x="226" y="-7" on="1"/>
        <pt x="140" y="-7" on="0"/>
        <pt x="50" y="22" on="1"/>
        <pt x="66" y="75" on="1"/>
        <pt x="144" y="46" on="0"/>
        <pt x="306" y="46" on="0"/>
        <pt x="377" y="94" on="0"/>
        <pt x="377" y="160" on="1"/>
        <pt x="377" y="204" on="0"/>
        <pt x="344" y="228" on="1"/>
        <pt x="301" y="260" on="0"/>
        <pt x="261" y="273" on="1"/>
        <pt x="201" y="300" on="0"/>
        <pt x="149" y="325" on="0"/>
        <pt x="84" y="370" on="0"/>
        <pt x="60" y="417" on="0"/>
        <pt x="59" y="449" on="1"/>
        <pt x="59" y="520" on="0"/>
        <pt x="154" y="605" on="0"/>
        <pt x="229" y="611" on="1"/>
        <pt x="229" y="714" on="1"/>
        <pt x="283" y="714" on="1"/>
        <pt x="283" y="610" on="1"/>
        <pt x="348" y="605" on="0"/>
        <pt x="419" y="582" on="1"/>
        <pt x="406" y="534" on="1"/>
        <pt x="312" y="558" on="0"/>
        <pt x="270" y="558" on="1"/>
        <pt x="190" y="558" on="0"/>
        <pt x="127" y="514" on="0"/>
        <pt x="127" y="457" on="1"/>
        <pt x="127" y="414" on="0"/>
        <pt x="171" y="386" on="1"/>
        <pt x="202" y="366" on="0"/>
        <pt x="359" y="300" on="0"/>
        <pt x="388" y="280" on="1"/>
        <pt x="451" y="236" on="0"/>
        <pt x="452" y="162" on="1"/>
        <pt x="452" y="15" on="0"/>
        <pt x="283" y="-4" on="1"/>
        <pt x="283" y="-97" on="1"/>
      </contour>
    </TTGlyph>
    <TTGlyph name="dotaccent" xMin="81" yMin="585" xMax="151" yMax="657">
      <contour>
        <pt x="81" y="657" on="1"/>
        <pt x="151" y="657" on="1"/>
        <pt x="151" y="585" on="1"/>
        <pt x="81" y="585" on="1"/>
      </contour>
    </TTGlyph>
    <TTGlyph name="dotlessi" xMin="78" yMin="0" xMax="140" yMax="492">
      <contour>
        <pt x="78" y="492" on="1"/>
        <pt x="140" y="492" on="1"/>
        <pt x="140" y="0" on="1"/>
        <pt x="78" y="0" on="1"/>
      </contour>
    </TTGlyph>
    <TTGlyph name="e" xMin="54" yMin="-9" xMax="440" yMax="501">
      <contour>
        <pt x="440" y="321" on="1"/>
        <pt x="440" y="285" on="0"/>
        <pt x="434" y="246" on="1"/>
        <pt x="120" y="246" on="1"/>
        <pt x="124" y="136" on="0"/>
        <pt x="190" y="53" on="0"/>
        <pt x="274" y="53" on="1"/>
        <pt x="337" y="53" on="0"/>
        <pt x="421" y="80" on="1"/>
        <pt x="427" y="30" on="1"/>
        <pt x="404" y="21" on="0"/>
        <pt x="379" y="14" on="0"/>
        <pt x="351" y="5" on="0"/>
        <pt x="337" y="1" on="0"/>
        <pt x="311" y="-5" on="0"/>
        <pt x="302" y="-6" on="1"/>
        <pt x="275" y="-9" on="0"/>
        <pt x="256" y="-9" on="1"/>
        <pt x="162" y="-9" on="0"/>
        <pt x="54" y="123" on="0"/>
        <pt x="54" y="241" on="1"/>
        <pt x="54" y="306" on="0"/>
        <pt x="86" y="405" on="0"/>
        <pt x="130" y="458" on="0"/>
        <pt x="161" y="474" on="1"/>
        <pt x="207" y="499" on="0"/>
        <pt x="261" y="501" on="1"/>
        <pt x="440" y="500" on="0"/>
      </contour>
      <contour>
        <pt x="377" y="337" on="1"/>
        <pt x="377" y="397" on="0"/>
        <pt x="317" y="445" on="0"/>
        <pt x="199" y="445" on="0"/>
        <pt x="123" y="382" on="0"/>
        <pt x="122" y="297" on="1"/>
        <pt x="374" y="297" on="1"/>
        <pt x="377" y="320" on="0"/>
      </contour>
    </TTGlyph>
    <TTGlyph name="eacute" xMin="54" yMin="-9" xMax="440" yMax="719">
      <contour>
        <pt x="440" y="321" on="1"/>
        <pt x="440" y="285" on="0"/>
        <pt x="434" y="246" on="1"/>
        <pt x="120" y="246" on="1"/>
        <pt x="124" y="136" on="0"/>
        <pt x="190" y="53" on="0"/>
        <pt x="274" y="53" on="1"/>
        <pt x="337" y="53" on="0"/>
        <pt x="421" y="80" on="1"/>
        <pt x="427" y="30" on="1"/>
        <pt x="404" y="21" on="0"/>
        <pt x="379" y="14" on="0"/>
        <pt x="351" y="5" on="0"/>
        <pt x="337" y="1" on="0"/>
        <pt x="311" y="-5" on="0"/>
        <pt x="302" y="-6" on="1"/>
        <pt x="275" y="-9" on="0"/>
        <pt x="256" y="-9" on="1"/>
        <pt x="162" y="-9" on="0"/>
        <pt x="54" y="123" on="0"/>
        <pt x="54" y="241" on="1"/>
        <pt x="54" y="306" on="0"/>
        <pt x="86" y="405" on="0"/>
        <pt x="130" y="458" on="0"/>
        <pt x="161" y="474" on="1"/>
        <pt x="207" y="499" on="0"/>
        <pt x="261" y="501" on="1"/>
        <pt x="440" y="500" on="0"/>
      </contour>
      <contour>
        <pt x="377" y="337" on="1"/>
        <pt x="377" y="397" on="0"/>
        <pt x="317" y="445" on="0"/>
        <pt x="199" y="445" on="0"/>
        <pt x="123" y="382" on="0"/>
        <pt x="122" y="297" on="1"/>
        <pt x="374" y="297" on="1"/>
        <pt x="377" y="320" on="0"/>
      </contour>
      <contour>
        <pt x="325" y="719" on="1"/>
        <pt x="373" y="674" on="1"/>
        <pt x="331" y="636" on="0"/>
        <pt x="277" y="599" on="1"/>
        <pt x="209" y="571" on="1"/>
        <pt x="204" y="577" on="0"/>
        <pt x="186" y="593" on="0"/>
        <pt x="181" y="600" on="1"/>
        <pt x="202" y="614" on="1"/>
        <pt x="262" y="655" on="0"/>
        <pt x="307" y="699" on="0"/>
      </contour>
    </TTGlyph>
    <TTGlyph name="ecircumflex" xMin="54" yMin="-9" xMax="440" yMax="723">
      <contour>
        <pt x="440" y="321" on="1"/>
        <pt x="440" y="285" on="0"/>
        <pt x="434" y="246" on="1"/>
        <pt x="120" y="246" on="1"/>
        <pt x="124" y="136" on="0"/>
        <pt x="190" y="53" on="0"/>
        <pt x="274" y="53" on="1"/>
        <pt x="337" y="53" on="0"/>
        <pt x="421" y="80" on="1"/>
        <pt x="427" y="30" on="1"/>
        <pt x="404" y="21" on="0"/>
        <pt x="379" y="14" on="0"/>
        <pt x="351" y="5" on="0"/>
        <pt x="337" y="1" on="0"/>
        <pt x="311" y="-5" on="0"/>
        <pt x="302" y="-6" on="1"/>
        <pt x="275" y="-9" on="0"/>
        <pt x="256" y="-9" on="1"/>
        <pt x="162" y="-9" on="0"/>
        <pt x="54" y="123" on="0"/>
        <pt x="54" y="241" on="1"/>
        <pt x="54" y="306" on="0"/>
        <pt x="86" y="405" on="0"/>
        <pt x="130" y="458" on="0"/>
        <pt x="161" y="474" on="1"/>
        <pt x="207" y="499" on="0"/>
        <pt x="261" y="501" on="1"/>
        <pt x="440" y="500" on="0"/>
      </contour>
      <contour>
        <pt x="377" y="337" on="1"/>
        <pt x="377" y="397" on="0"/>
        <pt x="317" y="445" on="0"/>
        <pt x="199" y="445" on="0"/>
        <pt x="123" y="382" on="0"/>
        <pt x="122" y="297" on="1"/>
        <pt x="374" y="297" on="1"/>
        <pt x="377" y="320" on="0"/>
      </contour>
      <contour>
        <pt x="254" y="674" on="1"/>
        <pt x="148" y="587" on="1"/>
        <pt x="120" y="617" on="1"/>
        <pt x="224" y="723" on="1"/>
        <pt x="284" y="723" on="1"/>
        <pt x="388" y="617" on="1"/>
        <pt x="359" y="587" on="1"/>
      </contour>
    </TTGlyph>
    <TTGlyph name="edieresis" xMin="54" yMin="-9" xMax="440" yMax="658">
      <contour>
        <pt x="440" y="321" on="1"/>
        <pt x="440" y="285" on="0"/>
        <pt x="434" y="246" on="1"/>
        <pt x="120" y="246" on="1"/>
        <pt x="124" y="136" on="0"/>
        <pt x="190" y="53" on="0"/>
        <pt x="274" y="53" on="1"/>
        <pt x="337" y="53" on="0"/>
        <pt x="421" y="80" on="1"/>
        <pt x="427" y="30" on="1"/>
        <pt x="404" y="21" on="0"/>
        <pt x="379" y="14" on="0"/>
        <pt x="351" y="5" on="0"/>
        <pt x="337" y="1" on="0"/>
        <pt x="311" y="-5" on="0"/>
        <pt x="302" y="-6" on="1"/>
        <pt x="275" y="-9" on="0"/>
        <pt x="256" y="-9" on="1"/>
        <pt x="162" y="-9" on="0"/>
        <pt x="54" y="123" on="0"/>
        <pt x="54" y="241" on="1"/>
        <pt x="54" y="306" on="0"/>
        <pt x="86" y="405" on="0"/>
        <pt x="130" y="458" on="0"/>
        <pt x="161" y="474" on="1"/>
        <pt x="207" y="499" on="0"/>
        <pt x="261" y="501" on="1"/>
        <pt x="440" y="500" on="0"/>
      </contour>
      <contour>
        <pt x="377" y="337" on="1"/>
        <pt x="377" y="397" on="0"/>
        <pt x="317" y="445" on="0"/>
        <pt x="199" y="445" on="0"/>
        <pt x="123" y="382" on="0"/>
        <pt x="122" y="297" on="1"/>
        <pt x="374" y="297" on="1"/>
        <pt x="377" y="320" on="0"/>
      </contour>
      <contour>
        <pt x="146" y="658" on="1"/>
        <pt x="218" y="658" on="1"/>
        <pt x="218" y="584" on="1"/>
        <pt x="146" y="584" on="1"/>
      </contour>
      <contour>
        <pt x="292" y="658" on="1"/>
        <pt x="364" y="658" on="1"/>
        <pt x="364" y="584" on="1"/>
        <pt x="292" y="584" on="1"/>
      </contour>
    </TTGlyph>
    <TTGlyph name="egrave" xMin="54" yMin="-9" xMax="440" yMax="716">
      <contour>
        <pt x="440" y="321" on="1"/>
        <pt x="440" y="285" on="0"/>
        <pt x="434" y="246" on="1"/>
        <pt x="120" y="246" on="1"/>
        <pt x="124" y="136" on="0"/>
        <pt x="190" y="53" on="0"/>
        <pt x="274" y="53" on="1"/>
        <pt x="337" y="53" on="0"/>
        <pt x="421" y="80" on="1"/>
        <pt x="427" y="30" on="1"/>
        <pt x="404" y="21" on="0"/>
        <pt x="379" y="14" on="0"/>
        <pt x="351" y="5" on="0"/>
        <pt x="337" y="1" on="0"/>
        <pt x="311" y="-5" on="0"/>
        <pt x="302" y="-6" on="1"/>
        <pt x="275" y="-9" on="0"/>
        <pt x="256" y="-9" on="1"/>
        <pt x="162" y="-9" on="0"/>
        <pt x="54" y="123" on="0"/>
        <pt x="54" y="241" on="1"/>
        <pt x="54" y="306" on="0"/>
        <pt x="86" y="405" on="0"/>
        <pt x="130" y="458" on="0"/>
        <pt x="161" y="474" on="1"/>
        <pt x="207" y="499" on="0"/>
        <pt x="261" y="501" on="1"/>
        <pt x="440" y="500" on="0"/>
      </contour>
      <contour>
        <pt x="377" y="337" on="1"/>
        <pt x="377" y="397" on="0"/>
        <pt x="317" y="445" on="0"/>
        <pt x="199" y="445" on="0"/>
        <pt x="123" y="382" on="0"/>
        <pt x="122" y="297" on="1"/>
        <pt x="374" y="297" on="1"/>
        <pt x="377" y="320" on="0"/>
      </contour>
      <contour>
        <pt x="158" y="671" on="1"/>
        <pt x="206" y="716" on="1"/>
        <pt x="244" y="674" on="0"/>
        <pt x="269" y="655" on="1"/>
        <pt x="304" y="628" on="0"/>
        <pt x="330" y="611" on="1"/>
        <pt x="350" y="597" on="1"/>
        <pt x="345" y="590" on="0"/>
        <pt x="327" y="574" on="0"/>
        <pt x="322" y="568" on="1"/>
        <pt x="254" y="596" on="1"/>
        <pt x="200" y="633" on="0"/>
      </contour>
    </TTGlyph>
    <TTGlyph name="eight" xMin="61" yMin="-9" xMax="453" yMax="659">
      <contour>
        <pt x="169" y="-9" on="0"/>
        <pt x="61" y="81" on="0"/>
        <pt x="61" y="169" on="1"/>
        <pt x="61" y="227" on="0"/>
        <pt x="114" y="310" on="0"/>
        <pt x="156" y="332" on="1"/>
        <pt x="81" y="383" on="0"/>
        <pt x="81" y="483" on="1"/>
        <pt x="81" y="540" on="0"/>
        <pt x="144" y="624" on="0"/>
        <pt x="221" y="659" on="0"/>
        <pt x="256" y="659" on="1"/>
        <pt x="433" y="659" on="0"/>
        <pt x="433" y="481" on="1"/>
        <pt x="433" y="432" on="0"/>
        <pt x="390" y="354" on="0"/>
        <pt x="357" y="330" on="1"/>
        <pt x="453" y="281" on="0"/>
        <pt x="453" y="169" on="1"/>
        <pt x="453" y="110" on="0"/>
        <pt x="418" y="68" on="1"/>
        <pt x="355" y="-9" on="0"/>
      </contour>
      <contour>
        <pt x="128" y="120" on="0"/>
        <pt x="190" y="46" on="0"/>
        <pt x="325" y="46" on="0"/>
        <pt x="385" y="108" on="0"/>
        <pt x="385" y="168" on="1"/>
        <pt x="385" y="240" on="0"/>
        <pt x="339" y="266" on="1"/>
        <pt x="306" y="285" on="0"/>
        <pt x="221" y="301" on="0"/>
        <pt x="208" y="306" on="1"/>
        <pt x="205" y="305" on="0"/>
        <pt x="194" y="302" on="0"/>
        <pt x="166" y="283" on="0"/>
        <pt x="145" y="256" on="0"/>
        <pt x="128" y="202" on="0"/>
      </contour>
      <contour>
        <pt x="192" y="604" on="0"/>
        <pt x="149" y="543" on="0"/>
        <pt x="149" y="482" on="1"/>
        <pt x="149" y="363" on="0"/>
        <pt x="304" y="349" on="1"/>
        <pt x="306" y="349" on="0"/>
        <pt x="324" y="359" on="0"/>
        <pt x="337" y="370" on="0"/>
        <pt x="349" y="389" on="0"/>
        <pt x="354" y="402" on="1"/>
        <pt x="366" y="431" on="0"/>
        <pt x="366" y="506" on="0"/>
        <pt x="359" y="542" on="0"/>
        <pt x="349" y="562" on="1"/>
        <pt x="328" y="604" on="0"/>
      </contour>
    </TTGlyph>
    <TTGlyph name="ellipsis" xMin="69" yMin="0" xMax="534" yMax="90">
      <contour>
        <pt x="154" y="90" on="1"/>
        <pt x="154" y="0" on="1"/>
        <pt x="69" y="0" on="1"/>
        <pt x="69" y="90" on="1"/>
      </contour>
      <contour>
        <pt x="534" y="90" on="1"/>
        <pt x="534" y="0" on="1"/>
        <pt x="449" y="0" on="1"/>
        <pt x="449" y="90" on="1"/>
      </contour>
      <contour>
        <pt x="344" y="90" on="1"/>
        <pt x="344" y="0" on="1"/>
        <pt x="259" y="0" on="1"/>
        <pt x="259" y="90" on="1"/>
      </contour>
    </TTGlyph>
    <TTGlyph name="emdash" xMin="76" yMin="270" xMax="792" yMax="329">
      <contour>
        <pt x="76" y="270" on="1"/>
        <pt x="76" y="329" on="1"/>
        <pt x="792" y="329" on="1"/>
        <pt x="792" y="270" on="1"/>
      </contour>
    </TTGlyph>
    <TTGlyph name="endash" xMin="66" yMin="270" xMax="495" yMax="329">
      <contour>
        <pt x="66" y="270" on="1"/>
        <pt x="66" y="329" on="1"/>
        <pt x="495" y="329" on="1"/>
        <pt x="495" y="270" on="1"/>
      </contour>
    </TTGlyph>
    <TTGlyph name="equal" xMin="76" yMin="184" xMax="407" yMax="443">
      <contour>
        <pt x="76" y="184" on="1"/>
        <pt x="76" y="243" on="1"/>
        <pt x="407" y="243" on="1"/>
        <pt x="407" y="184" on="1"/>
      </contour>
      <contour>
        <pt x="76" y="384" on="1"/>
        <pt x="76" y="443" on="1"/>
        <pt x="407" y="443" on="1"/>
        <pt x="407" y="384" on="1"/>
      </contour>
    </TTGlyph>
    <TTGlyph name="eth" xMin="56" yMin="-8" xMax="449" yMax="748">
      <contour>
        <pt x="449" y="181" on="0"/>
        <pt x="419" y="66" on="0"/>
        <pt x="398" y="42" on="1"/>
        <pt x="351" y="-8" on="0"/>
        <pt x="152" y="-8" on="0"/>
        <pt x="56" y="119" on="0"/>
        <pt x="56" y="325" on="0"/>
        <pt x="142" y="441" on="0"/>
        <pt x="273" y="441" on="0"/>
        <pt x="375" y="412" on="1"/>
        <pt x="369" y="495" on="0"/>
        <pt x="329" y="582" on="0"/>
        <pt x="286" y="612" on="1"/>
        <pt x="216" y="538" on="1"/>
        <pt x="177" y="575" on="1"/>
        <pt x="237" y="640" on="1"/>
        <pt x="115" y="695" on="1"/>
        <pt x="135" y="741" on="1"/>
        <pt x="266" y="695" on="1"/>
        <pt x="269" y="693" on="0"/>
        <pt x="282" y="688" on="1"/>
        <pt x="339" y="748" on="1"/>
        <pt x="378" y="711" on="1"/>
        <pt x="331" y="661" on="1"/>
        <pt x="393" y="618" on="0"/>
        <pt x="449" y="461" on="0"/>
      </contour>
      <contour>
        <pt x="379" y="216" on="1"/>
        <pt x="378" y="322" on="1"/>
        <pt x="378" y="355" on="1"/>
        <pt x="276" y="381" on="0"/>
        <pt x="225" y="381" on="1"/>
        <pt x="120" y="381" on="0"/>
        <pt x="120" y="216" on="1"/>
        <pt x="120" y="132" on="0"/>
        <pt x="174" y="52" on="0"/>
        <pt x="235" y="52" on="1"/>
        <pt x="327" y="52" on="0"/>
        <pt x="354" y="99" on="1"/>
        <pt x="365" y="117" on="0"/>
        <pt x="370" y="130" on="1"/>
        <pt x="379" y="155" on="0"/>
      </contour>
    </TTGlyph>
    <TTGlyph name="exclam" xMin="87" yMin="1" xMax="162" yMax="671">
      <contour>
        <pt x="147" y="146" on="1"/>
        <pt x="102" y="146" on="1"/>
        <pt x="92" y="380" on="1"/>
        <pt x="87" y="671" on="1"/>
        <pt x="162" y="671" on="1"/>
        <pt x="157" y="380" on="1"/>
      </contour>
      <contour>
        <pt x="160" y="1" on="1"/>
        <pt x="88" y="1" on="1"/>
        <pt x="88" y="75" on="1"/>
        <pt x="160" y="75" on="1"/>
      </contour>
    </TTGlyph>
    <TTGlyph name="exclamdown" xMin="81" yMin="-170" xMax="156" yMax="500">
      <contour>
        <pt x="96" y="355" on="1"/>
        <pt x="141" y="355" on="1"/>
        <pt x="151" y="121" on="1"/>
        <pt x="156" y="-170" on="1"/>
        <pt x="81" y="-170" on="1"/>
        <pt x="86" y="121" on="1"/>
      </contour>
      <contour>
        <pt x="82" y="500" on="1"/>
        <pt x="154" y="500" on="1"/>
        <pt x="154" y="426" on="1"/>
        <pt x="82" y="426" on="1"/>
      </contour>
    </TTGlyph>
    <TTGlyph name="f" xMin="44" yMin="-201" xMax="296" yMax="737">
      <contour>
        <pt x="153" y="500" on="1"/>
        <pt x="153" y="492" on="0"/>
        <pt x="238" y="492" on="0"/>
        <pt x="274" y="493" on="0"/>
        <pt x="279" y="493" on="1"/>
        <pt x="270" y="444" on="1"/>
        <pt x="161" y="444" on="1"/>
        <pt x="153" y="444" on="0"/>
        <pt x="153" y="440" on="1"/>
        <pt x="153" y="-74" on="1"/>
        <pt x="118" y="-198" on="1"/>
        <pt x="115" y="-201" on="1"/>
        <pt x="69" y="-201" on="1"/>
        <pt x="91" y="-74" on="1"/>
        <pt x="91" y="438" on="1"/>
        <pt x="91" y="443" on="0"/>
        <pt x="78" y="443" on="1"/>
        <pt x="44" y="443" on="1"/>
        <pt x="45" y="472" on="1"/>
        <pt x="86" y="491" on="0"/>
        <pt x="91" y="493" on="1"/>
        <pt x="91" y="494" on="1"/>
        <pt x="90" y="572" on="1"/>
        <pt x="90" y="624" on="0"/>
        <pt x="132" y="695" on="0"/>
        <pt x="162" y="710" on="1"/>
        <pt x="219" y="736" on="0"/>
        <pt x="269" y="736" on="1"/>
        <pt x="272" y="736" on="0"/>
        <pt x="275" y="736" on="1"/>
        <pt x="296" y="735" on="1"/>
        <pt x="285" y="686" on="1"/>
        <pt x="284" y="684" on="0"/>
        <pt x="267" y="687" on="0"/>
        <pt x="252" y="687" on="0"/>
        <pt x="218" y="676" on="0"/>
        <pt x="180" y="658" on="0"/>
        <pt x="153" y="608" on="0"/>
        <pt x="153" y="572" on="1"/>
      </contour>
    </TTGlyph>
    <TTGlyph name="fi" xMin="44" yMin="-201" xMax="410" yMax="737">
      <contour>
        <pt x="269" y="492" on="1"/>
        <pt x="320" y="492" on="1"/>
        <pt x="363" y="492" on="0"/>
        <pt x="406" y="492" on="1"/>
        <pt x="406" y="0" on="1"/>
        <pt x="344" y="0" on="1"/>
        <pt x="344" y="444" on="1"/>
        <pt x="161" y="444" on="1"/>
        <pt x="153" y="444" on="0"/>
        <pt x="153" y="440" on="1"/>
        <pt x="153" y="-74" on="1"/>
        <pt x="118" y="-198" on="1"/>
        <pt x="115" y="-201" on="1"/>
        <pt x="69" y="-201" on="1"/>
        <pt x="91" y="-74" on="1"/>
        <pt x="91" y="438" on="1"/>
        <pt x="91" y="443" on="0"/>
        <pt x="78" y="443" on="1"/>
        <pt x="44" y="443" on="1"/>
        <pt x="45" y="472" on="1"/>
        <pt x="86" y="491" on="0"/>
        <pt x="91" y="493" on="1"/>
        <pt x="91" y="494" on="1"/>
        <pt x="90" y="572" on="1"/>
        <pt x="90" y="624" on="0"/>
        <pt x="132" y="695" on="0"/>
        <pt x="162" y="710" on="1"/>
        <pt x="219" y="736" on="0"/>
        <pt x="269" y="736" on="1"/>
        <pt x="272" y="736" on="0"/>
        <pt x="275" y="736" on="1"/>
        <pt x="296" y="735" on="1"/>
        <pt x="285" y="686" on="1"/>
        <pt x="284" y="684" on="0"/>
        <pt x="267" y="687" on="0"/>
        <pt x="252" y="687" on="0"/>
        <pt x="218" y="676" on="0"/>
        <pt x="180" y="658" on="0"/>
        <pt x="153" y="608" on="0"/>
        <pt x="153" y="572" on="1"/>
        <pt x="153" y="500" on="1"/>
        <pt x="153" y="492" on="0"/>
      </contour>
      <contour>
        <pt x="340" y="657" on="1"/>
        <pt x="410" y="657" on="1"/>
        <pt x="410" y="585" on="1"/>
        <pt x="340" y="585" on="1"/>
      </contour>
    </TTGlyph>
    <TTGlyph name="five" xMin="50" yMin="-7" xMax="430" yMax="648">
      <contour>
        <pt x="430" y="113" on="0"/>
        <pt x="328" y="-7" on="0"/>
        <pt x="143" y="-7" on="0"/>
        <pt x="50" y="47" on="1"/>
        <pt x="73" y="104" on="1"/>
        <pt x="157" y="55" on="0"/>
        <pt x="303" y="55" on="0"/>
        <pt x="359" y="120" on="0"/>
        <pt x="359" y="287" on="0"/>
        <pt x="297" y="345" on="0"/>
        <pt x="232" y="345" on="1"/>
        <pt x="88" y="345" on="1"/>
        <pt x="88" y="648" on="1"/>
        <pt x="393" y="648" on="1"/>
        <pt x="393" y="591" on="1"/>
        <pt x="156" y="591" on="1"/>
        <pt x="153" y="409" on="1"/>
        <pt x="244" y="409" on="1"/>
        <pt x="430" y="409" on="0"/>
        <pt x="430" y="214" on="1"/>
      </contour>
    </TTGlyph>
    <TTGlyph name="fl" xMin="43" yMin="-201" xMax="433" yMax="734">
      <contour>
        <pt x="342" y="122" on="1"/>
        <pt x="343" y="684" on="1"/>
        <pt x="324" y="688" on="0"/>
        <pt x="293" y="688" on="0"/>
        <pt x="248" y="682" on="0"/>
        <pt x="196" y="662" on="0"/>
        <pt x="161" y="610" on="0"/>
        <pt x="159" y="572" on="1"/>
        <pt x="159" y="500" on="1"/>
        <pt x="159" y="495" on="0"/>
        <pt x="162" y="492" on="0"/>
        <pt x="168" y="492" on="1"/>
        <pt x="281" y="492" on="1"/>
        <pt x="273" y="445" on="1"/>
        <pt x="164" y="445" on="1"/>
        <pt x="156" y="445" on="0"/>
        <pt x="156" y="441" on="1"/>
        <pt x="156" y="-73" on="1"/>
        <pt x="117" y="-198" on="1"/>
        <pt x="114" y="-201" on="1"/>
        <pt x="68" y="-201" on="1"/>
        <pt x="90" y="-74" on="1"/>
        <pt x="91" y="439" on="1"/>
        <pt x="91" y="443" on="0"/>
        <pt x="70" y="444" on="0"/>
        <pt x="43" y="444" on="1"/>
        <pt x="44" y="472" on="1"/>
        <pt x="52" y="476" on="0"/>
        <pt x="85" y="489" on="0"/>
        <pt x="91" y="492" on="1"/>
        <pt x="91" y="573" on="1"/>
        <pt x="92" y="634" on="0"/>
        <pt x="156" y="711" on="0"/>
        <pt x="250" y="734" on="0"/>
        <pt x="352" y="734" on="0"/>
        <pt x="408" y="719" on="1"/>
        <pt x="408" y="122" on="1"/>
        <pt x="433" y="-6" on="1"/>
        <pt x="384" y="-6" on="1"/>
        <pt x="380" y="-2" on="1"/>
      </contour>
    </TTGlyph>
    <TTGlyph name="florin" xMin="-49" yMin="-202" xMax="299" yMax="735">
      <contour>
        <pt x="-49" y="-202" on="1"/>
        <pt x="-41" y="-156" on="1"/>
        <pt x="-28" y="-155" on="1"/>
        <pt x="45" y="-149" on="0"/>
        <pt x="78" y="-97" on="1"/>
        <pt x="93" y="-73" on="0"/>
        <pt x="94" y="-39" on="1"/>
        <pt x="94" y="438" on="1"/>
        <pt x="94" y="443" on="0"/>
        <pt x="81" y="443" on="1"/>
        <pt x="47" y="443" on="1"/>
        <pt x="48" y="472" on="1"/>
        <pt x="89" y="491" on="0"/>
        <pt x="94" y="493" on="1"/>
        <pt x="94" y="494" on="1"/>
        <pt x="93" y="572" on="1"/>
        <pt x="100" y="729" on="0"/>
        <pt x="299" y="735" on="1"/>
        <pt x="291" y="689" on="1"/>
        <pt x="278" y="688" on="1"/>
        <pt x="205" y="682" on="0"/>
        <pt x="172" y="630" on="1"/>
        <pt x="157" y="606" on="0"/>
        <pt x="156" y="572" on="1"/>
        <pt x="156" y="500" on="1"/>
        <pt x="156" y="492" on="0"/>
        <pt x="241" y="492" on="0"/>
        <pt x="277" y="493" on="0"/>
        <pt x="282" y="493" on="1"/>
        <pt x="273" y="444" on="1"/>
        <pt x="164" y="444" on="1"/>
        <pt x="156" y="444" on="0"/>
        <pt x="156" y="440" on="1"/>
        <pt x="156" y="-39" on="1"/>
        <pt x="149" y="-196" on="0"/>
      </contour>
    </TTGlyph>
    <TTGlyph name="four" xMin="46" yMin="0" xMax="424" yMax="659">
      <contour>
        <pt x="356" y="384" on="1"/>
        <pt x="356" y="237" on="1"/>
        <pt x="424" y="237" on="1"/>
        <pt x="424" y="181" on="1"/>
        <pt x="356" y="181" on="1"/>
        <pt x="356" y="0" on="1"/>
        <pt x="288" y="0" on="1"/>
        <pt x="288" y="181" on="1"/>
        <pt x="46" y="181" on="1"/>
        <pt x="46" y="252" on="1"/>
        <pt x="46" y="306" on="0"/>
        <pt x="75" y="354" on="1"/>
        <pt x="274" y="659" on="1"/>
        <pt x="324" y="627" on="1"/>
        <pt x="143" y="347" on="1"/>
        <pt x="122" y="315" on="0"/>
        <pt x="114" y="288" on="0"/>
        <pt x="114" y="257" on="1"/>
        <pt x="114" y="237" on="1"/>
        <pt x="288" y="238" on="1"/>
        <pt x="288" y="384" on="1"/>
      </contour>
    </TTGlyph>
    <TTGlyph name="fraction" xMin="23" yMin="-26" xMax="346" yMax="751">
      <contour>
        <pt x="23" y="-7" on="1"/>
        <pt x="292" y="751" on="1"/>
        <pt x="346" y="732" on="1"/>
        <pt x="78" y="-26" on="1"/>
      </contour>
    </TTGlyph>
    <TTGlyph name="g" xMin="48" yMin="-202" xMax="474" yMax="509">
      <contour>
        <pt x="407" y="342" on="1"/>
        <pt x="407" y="264" on="0"/>
        <pt x="316" y="173" on="0"/>
        <pt x="238" y="173" on="1"/>
        <pt x="214" y="173" on="0"/>
        <pt x="175" y="180" on="1"/>
        <pt x="119" y="102" on="1"/>
        <pt x="370" y="103" on="1"/>
        <pt x="420" y="103" on="0"/>
        <pt x="474" y="28" on="0"/>
        <pt x="474" y="-31" on="1"/>
        <pt x="474" y="-114" on="0"/>
        <pt x="343" y="-202" on="0"/>
        <pt x="143" y="-202" on="0"/>
        <pt x="48" y="-133" on="0"/>
        <pt x="48" y="-58" on="1"/>
        <pt x="143" y="40" on="1"/>
        <pt x="88" y="40" on="0"/>
        <pt x="53" y="70" on="0"/>
        <pt x="53" y="102" on="1"/>
        <pt x="94" y="148" on="0"/>
        <pt x="131" y="197" on="1"/>
        <pt x="94" y="225" on="0"/>
        <pt x="70" y="292" on="0"/>
        <pt x="70" y="344" on="1"/>
        <pt x="70" y="421" on="0"/>
        <pt x="166" y="509" on="0"/>
        <pt x="244" y="509" on="1"/>
        <pt x="296" y="509" on="0"/>
        <pt x="338" y="487" on="1"/>
        <pt x="449" y="486" on="1"/>
        <pt x="436" y="434" on="1"/>
        <pt x="379" y="433" on="1"/>
        <pt x="407" y="387" on="0"/>
      </contour>
      <contour>
        <pt x="284" y="-151" on="0"/>
        <pt x="322" y="-148" on="0"/>
        <pt x="365" y="-135" on="0"/>
        <pt x="378" y="-124" on="1"/>
        <pt x="409" y="-99" on="0"/>
        <pt x="408" y="14" on="0"/>
        <pt x="383" y="41" on="0"/>
        <pt x="331" y="41" on="1"/>
        <pt x="196" y="41" on="1"/>
        <pt x="114" y="-68" on="1"/>
        <pt x="114" y="-123" on="0"/>
        <pt x="157" y="-139" on="1"/>
        <pt x="190" y="-151" on="0"/>
      </contour>
      <contour>
        <pt x="238" y="223" on="1"/>
        <pt x="348" y="223" on="0"/>
        <pt x="348" y="339" on="1"/>
        <pt x="348" y="405" on="0"/>
        <pt x="295" y="458" on="0"/>
        <pt x="185" y="458" on="0"/>
        <pt x="131" y="403" on="0"/>
        <pt x="130" y="338" on="1"/>
        <pt x="130" y="223" on="0"/>
      </contour>
    </TTGlyph>
    <TTGlyph name="germandbls" xMin="44" yMin="-201" xMax="574" yMax="738">
      <contour>
        <pt x="91" y="494" on="1"/>
        <pt x="90" y="572" on="1"/>
        <pt x="90" y="657" on="0"/>
        <pt x="191" y="738" on="0"/>
        <pt x="358" y="738" on="0"/>
        <pt x="466" y="660" on="0"/>
        <pt x="466" y="594" on="1"/>
        <pt x="466" y="515" on="0"/>
        <pt x="414" y="478" on="1"/>
        <pt x="392" y="463" on="0"/>
        <pt x="370" y="450" on="1"/>
        <pt x="318" y="418" on="0"/>
        <pt x="318" y="370" on="1"/>
        <pt x="318" y="346" on="0"/>
        <pt x="371" y="315" on="0"/>
        <pt x="446" y="292" on="0"/>
        <pt x="521" y="259" on="0"/>
        <pt x="574" y="187" on="0"/>
        <pt x="574" y="85" on="0"/>
        <pt x="544" y="52" on="1"/>
        <pt x="488" y="-8" on="0"/>
        <pt x="386" y="-8" on="1"/>
        <pt x="306" y="-8" on="0"/>
        <pt x="242" y="19" on="1"/>
        <pt x="257" y="68" on="1"/>
        <pt x="319" y="44" on="0"/>
        <pt x="427" y="44" on="0"/>
        <pt x="504" y="89" on="0"/>
        <pt x="504" y="175" on="0"/>
        <pt x="452" y="227" on="0"/>
        <pt x="378" y="252" on="0"/>
        <pt x="305" y="276" on="0"/>
        <pt x="253" y="326" on="0"/>
        <pt x="253" y="405" on="0"/>
        <pt x="283" y="460" on="0"/>
        <pt x="326" y="491" on="0"/>
        <pt x="347" y="504" on="1"/>
        <pt x="398" y="537" on="0"/>
        <pt x="398" y="629" on="0"/>
        <pt x="327" y="688" on="0"/>
        <pt x="218" y="688" on="0"/>
        <pt x="153" y="632" on="0"/>
        <pt x="153" y="572" on="1"/>
        <pt x="153" y="-74" on="1"/>
        <pt x="118" y="-198" on="1"/>
        <pt x="115" y="-201" on="1"/>
        <pt x="69" y="-201" on="1"/>
        <pt x="91" y="-74" on="1"/>
        <pt x="91" y="438" on="1"/>
        <pt x="91" y="443" on="0"/>
        <pt x="78" y="443" on="1"/>
        <pt x="44" y="443" on="1"/>
        <pt x="45" y="472" on="1"/>
        <pt x="86" y="491" on="0"/>
        <pt x="91" y="493" on="1"/>
      </contour>
    </TTGlyph>
    <TTGlyph name="grave" xMin="88" yMin="568" xMax="280" yMax="716">
      <contour>
        <pt x="88" y="671" on="1"/>
        <pt x="136" y="716" on="1"/>
        <pt x="174" y="674" on="0"/>
        <pt x="199" y="655" on="1"/>
        <pt x="234" y="628" on="0"/>
        <pt x="260" y="611" on="1"/>
        <pt x="280" y="597" on="1"/>
        <pt x="275" y="590" on="0"/>
        <pt x="257" y="574" on="0"/>
        <pt x="252" y="568" on="1"/>
        <pt x="184" y="596" on="1"/>
        <pt x="130" y="633" on="0"/>
      </contour>
    </TTGlyph>
    <TTGlyph name="greater" xMin="70" yMin="81" xMax="399" yMax="478">
      <contour>
        <pt x="327" y="283" on="1"/>
        <pt x="327" y="284" on="0"/>
        <pt x="326" y="286" on="1"/>
        <pt x="323" y="288" on="0"/>
        <pt x="316" y="291" on="0"/>
        <pt x="314" y="292" on="1"/>
        <pt x="70" y="415" on="1"/>
        <pt x="70" y="478" on="1"/>
        <pt x="399" y="310" on="1"/>
        <pt x="399" y="250" on="1"/>
        <pt x="70" y="81" on="1"/>
        <pt x="70" y="144" on="1"/>
        <pt x="263" y="243" on="0"/>
        <pt x="314" y="269" on="1"/>
        <pt x="326" y="277" on="0"/>
        <pt x="327" y="280" on="1"/>
      </contour>
    </TTGlyph>
    <TTGlyph name="guillemotleft" xMin="46" yMin="88" xMax="435" yMax="471">
      <contour>
        <pt x="115" y="293" on="0"/>
        <pt x="115" y="266" on="0"/>
        <pt x="138" y="243" on="1"/>
        <pt x="249" y="126" on="1"/>
        <pt x="208" y="88" on="1"/>
        <pt x="46" y="261" on="1"/>
        <pt x="46" y="299" on="1"/>
        <pt x="207" y="471" on="1"/>
        <pt x="249" y="435" on="1"/>
        <pt x="138" y="316" on="1"/>
      </contour>
      <contour>
        <pt x="301" y="293" on="0"/>
        <pt x="301" y="266" on="0"/>
        <pt x="324" y="243" on="1"/>
        <pt x="435" y="126" on="1"/>
        <pt x="394" y="88" on="1"/>
        <pt x="232" y="261" on="1"/>
        <pt x="232" y="299" on="1"/>
        <pt x="393" y="471" on="1"/>
        <pt x="435" y="435" on="1"/>
        <pt x="324" y="316" on="1"/>
      </contour>
    </TTGlyph>
    <TTGlyph name="guillemotright" xMin="55" yMin="88" xMax="444" yMax="471">
      <contour>
        <pt x="375" y="266" on="0"/>
        <pt x="375" y="293" on="0"/>
        <pt x="352" y="316" on="1"/>
        <pt x="241" y="435" on="1"/>
        <pt x="283" y="471" on="1"/>
        <pt x="444" y="299" on="1"/>
        <pt x="444" y="261" on="1"/>
        <pt x="282" y="88" on="1"/>
        <pt x="241" y="126" on="1"/>
        <pt x="352" y="243" on="1"/>
      </contour>
      <contour>
        <pt x="189" y="266" on="0"/>
        <pt x="189" y="293" on="0"/>
        <pt x="166" y="316" on="1"/>
        <pt x="55" y="435" on="1"/>
        <pt x="97" y="471" on="1"/>
        <pt x="258" y="299" on="1"/>
        <pt x="258" y="261" on="1"/>
        <pt x="96" y="88" on="1"/>
        <pt x="55" y="126" on="1"/>
        <pt x="166" y="243" on="1"/>
      </contour>
    </TTGlyph>
    <TTGlyph name="guilsinglleft" xMin="43" yMin="71" xMax="250" yMax="462">
      <contour>
        <pt x="137" y="301" on="1"/>
        <pt x="116" y="280" on="0"/>
        <pt x="116" y="256" on="0"/>
        <pt x="137" y="231" on="1"/>
        <pt x="249" y="111" on="1"/>
        <pt x="206" y="71" on="1"/>
        <pt x="43" y="248" on="1"/>
        <pt x="43" y="286" on="1"/>
        <pt x="205" y="462" on="1"/>
        <pt x="250" y="424" on="1"/>
      </contour>
    </TTGlyph>
    <TTGlyph name="guilsinglright" xMin="56" yMin="71" xMax="263" yMax="462">
      <contour>
        <pt x="169" y="231" on="1"/>
        <pt x="190" y="256" on="0"/>
        <pt x="190" y="280" on="0"/>
        <pt x="169" y="301" on="1"/>
        <pt x="56" y="424" on="1"/>
        <pt x="101" y="462" on="1"/>
        <pt x="263" y="286" on="1"/>
        <pt x="263" y="248" on="1"/>
        <pt x="100" y="71" on="1"/>
        <pt x="57" y="111" on="1"/>
      </contour>
    </TTGlyph>
    <TTGlyph name="h" xMin="78" yMin="0" xMax="445" yMax="736">
      <contour>
        <pt x="142" y="0" on="1"/>
        <pt x="78" y="0" on="1"/>
        <pt x="78" y="736" on="1"/>
        <pt x="142" y="736" on="1"/>
        <pt x="142" y="445" on="1"/>
        <pt x="187" y="475" on="0"/>
        <pt x="256" y="503" on="0"/>
        <pt x="300" y="503" on="1"/>
        <pt x="445" y="503" on="0"/>
        <pt x="445" y="352" on="1"/>
        <pt x="445" y="0" on="1"/>
        <pt x="380" y="0" on="1"/>
        <pt x="380" y="352" on="1"/>
        <pt x="379" y="443" on="0"/>
        <pt x="276" y="443" on="1"/>
        <pt x="232" y="443" on="0"/>
        <pt x="148" y="404" on="0"/>
        <pt x="142" y="387" on="1"/>
      </contour>
    </TTGlyph>
    <TTGlyph name="hungarumlaut" xMin="74" yMin="553" xMax="391" yMax="726">
      <contour>
        <pt x="109" y="553" on="1"/>
        <pt x="74" y="574" on="1"/>
        <pt x="75" y="576" on="0"/>
        <pt x="101" y="604" on="0"/>
        <pt x="110" y="615" on="0"/>
        <pt x="134" y="646" on="0"/>
        <pt x="142" y="658" on="1"/>
        <pt x="158" y="680" on="0"/>
        <pt x="183" y="726" on="1"/>
        <pt x="241" y="695" on="1"/>
        <pt x="209" y="645" on="0"/>
        <pt x="167" y="598" on="1"/>
      </contour>
      <contour>
        <pt x="259" y="553" on="1"/>
        <pt x="224" y="574" on="1"/>
        <pt x="225" y="576" on="0"/>
        <pt x="251" y="604" on="0"/>
        <pt x="260" y="615" on="0"/>
        <pt x="284" y="646" on="0"/>
        <pt x="292" y="658" on="1"/>
        <pt x="308" y="680" on="0"/>
        <pt x="333" y="726" on="1"/>
        <pt x="391" y="695" on="1"/>
        <pt x="359" y="645" on="0"/>
        <pt x="317" y="598" on="1"/>
      </contour>
    </TTGlyph>
    <TTGlyph name="hyphen" xMin="72" yMin="284" xMax="453" yMax="343">
      <contour>
        <pt x="72" y="284" on="1"/>
        <pt x="72" y="343" on="1"/>
        <pt x="453" y="343" on="1"/>
        <pt x="453" y="284" on="1"/>
      </contour>
    </TTGlyph>
    <TTGlyph name="i" xMin="74" yMin="0" xMax="144" yMax="657">
      <contour>
        <pt x="78" y="492" on="1"/>
        <pt x="140" y="492" on="1"/>
        <pt x="140" y="0" on="1"/>
        <pt x="78" y="0" on="1"/>
      </contour>
      <contour>
        <pt x="74" y="657" on="1"/>
        <pt x="144" y="657" on="1"/>
        <pt x="144" y="585" on="1"/>
        <pt x="74" y="585" on="1"/>
      </contour>
    </TTGlyph>
    <TTGlyph name="i.alt" xMin="70" yMin="-4" xMax="164" yMax="658">
      <contour>
        <pt x="74" y="123" on="1"/>
        <pt x="75" y="493" on="1"/>
        <pt x="140" y="493" on="1"/>
        <pt x="140" y="123" on="1"/>
        <pt x="164" y="0" on="1"/>
        <pt x="164" y="-4" on="1"/>
        <pt x="115" y="-4" on="1"/>
        <pt x="111" y="-1" on="1"/>
      </contour>
      <contour>
        <pt x="142" y="658" on="1"/>
        <pt x="142" y="584" on="1"/>
        <pt x="70" y="584" on="1"/>
        <pt x="70" y="658" on="1"/>
      </contour>
    </TTGlyph>
    <TTGlyph name="iacute" xMin="53" yMin="1" xMax="246" yMax="710">
      <contour>
        <pt x="78" y="493" on="1"/>
        <pt x="143" y="493" on="1"/>
        <pt x="143" y="1" on="1"/>
        <pt x="78" y="1" on="1"/>
      </contour>
      <contour>
        <pt x="197" y="710" on="1"/>
        <pt x="246" y="664" on="1"/>
        <pt x="204" y="627" on="0"/>
        <pt x="149" y="590" on="1"/>
        <pt x="81" y="562" on="1"/>
        <pt x="76" y="569" on="0"/>
        <pt x="58" y="585" on="0"/>
        <pt x="53" y="591" on="1"/>
        <pt x="54" y="592" on="0"/>
        <pt x="82" y="610" on="0"/>
        <pt x="90" y="616" on="0"/>
        <pt x="117" y="634" on="0"/>
        <pt x="133" y="648" on="0"/>
        <pt x="146" y="659" on="1"/>
        <pt x="163" y="673" on="0"/>
      </contour>
    </TTGlyph>
    <TTGlyph name="icircumflex" xMin="-23" yMin="1" xMax="245" yMax="723">
      <contour>
        <pt x="78" y="493" on="1"/>
        <pt x="143" y="493" on="1"/>
        <pt x="143" y="1" on="1"/>
        <pt x="78" y="1" on="1"/>
      </contour>
      <contour>
        <pt x="111" y="674" on="1"/>
        <pt x="5" y="587" on="1"/>
        <pt x="-23" y="617" on="1"/>
        <pt x="81" y="723" on="1"/>
        <pt x="141" y="723" on="1"/>
        <pt x="245" y="617" on="1"/>
        <pt x="216" y="587" on="1"/>
      </contour>
    </TTGlyph>
    <TTGlyph name="idieresis" xMin="9" yMin="1" xMax="227" yMax="658">
      <contour>
        <pt x="78" y="493" on="1"/>
        <pt x="143" y="493" on="1"/>
        <pt x="143" y="1" on="1"/>
        <pt x="78" y="1" on="1"/>
      </contour>
      <contour>
        <pt x="9" y="658" on="1"/>
        <pt x="81" y="658" on="1"/>
        <pt x="81" y="584" on="1"/>
        <pt x="9" y="584" on="1"/>
      </contour>
      <contour>
        <pt x="155" y="658" on="1"/>
        <pt x="227" y="658" on="1"/>
        <pt x="227" y="584" on="1"/>
        <pt x="155" y="584" on="1"/>
      </contour>
    </TTGlyph>
    <TTGlyph name="igrave" xMin="11" yMin="0" xMax="203" yMax="716">
      <contour>
        <pt x="78" y="492" on="1"/>
        <pt x="140" y="492" on="1"/>
        <pt x="140" y="0" on="1"/>
        <pt x="78" y="0" on="1"/>
      </contour>
      <contour>
        <pt x="11" y="671" on="1"/>
        <pt x="59" y="716" on="1"/>
        <pt x="97" y="674" on="0"/>
        <pt x="122" y="655" on="1"/>
        <pt x="157" y="628" on="0"/>
        <pt x="182" y="611" on="1"/>
        <pt x="203" y="597" on="1"/>
        <pt x="198" y="590" on="0"/>
        <pt x="180" y="574" on="0"/>
        <pt x="175" y="568" on="1"/>
        <pt x="107" y="596" on="1"/>
        <pt x="53" y="633" on="0"/>
      </contour>
    </TTGlyph>
    <TTGlyph name="j" xMin="-64" yMin="-202" xMax="144" yMax="657">
      <contour>
        <pt x="74" y="657" on="1"/>
        <pt x="144" y="657" on="1"/>
        <pt x="144" y="585" on="1"/>
        <pt x="74" y="585" on="1"/>
      </contour>
      <contour>
        <pt x="78" y="492" on="1"/>
        <pt x="139" y="492" on="1"/>
        <pt x="139" y="-39" on="1"/>
        <pt x="139" y="-123" on="0"/>
        <pt x="34" y="-193" on="0"/>
        <pt x="-64" y="-202" on="1"/>
        <pt x="-56" y="-156" on="1"/>
        <pt x="36" y="-136" on="0"/>
        <pt x="60" y="-106" on="1"/>
        <pt x="72" y="-90" on="0"/>
        <pt x="78" y="-63" on="0"/>
        <pt x="78" y="-39" on="1"/>
      </contour>
    </TTGlyph>
    <TTGlyph name="k" xMin="78" yMin="0" xMax="477" yMax="736">
      <contour>
        <pt x="140" y="0" on="1"/>
        <pt x="78" y="0" on="1"/>
        <pt x="78" y="736" on="1"/>
        <pt x="140" y="736" on="1"/>
        <pt x="140" y="292" on="1"/>
        <pt x="314" y="492" on="1"/>
        <pt x="389" y="492" on="1"/>
        <pt x="218" y="296" on="1"/>
        <pt x="477" y="0" on="1"/>
        <pt x="397" y="0" on="1"/>
        <pt x="178" y="251" on="1"/>
        <pt x="140" y="207" on="1"/>
      </contour>
    </TTGlyph>
    <TTGlyph name="l" xMin="74" yMin="-9" xMax="161" yMax="736">
      <contour>
        <pt x="74" y="736" on="1"/>
        <pt x="136" y="736" on="1"/>
        <pt x="136" y="119" on="1"/>
        <pt x="161" y="-9" on="1"/>
        <pt x="115" y="-9" on="1"/>
        <pt x="111" y="-5" on="1"/>
        <pt x="74" y="119" on="1"/>
      </contour>
    </TTGlyph>
    <TTGlyph name="less" xMin="50" yMin="81" xMax="379" yMax="478">
      <contour>
        <pt x="379" y="144" on="1"/>
        <pt x="379" y="81" on="1"/>
        <pt x="50" y="250" on="1"/>
        <pt x="50" y="310" on="1"/>
        <pt x="379" y="478" on="1"/>
        <pt x="379" y="415" on="1"/>
        <pt x="135" y="292" on="1"/>
        <pt x="122" y="286" on="0"/>
        <pt x="122" y="275" on="0"/>
        <pt x="137" y="268" on="0"/>
      </contour>
    </TTGlyph>
    <TTGlyph name="logicalnot" xMin="66" yMin="236" xMax="447" yMax="443">
      <contour>
        <pt x="66" y="384" on="1"/>
        <pt x="66" y="443" on="1"/>
        <pt x="447" y="443" on="1"/>
        <pt x="447" y="236" on="1"/>
        <pt x="388" y="236" on="1"/>
        <pt x="388" y="384" on="1"/>
      </contour>
    </TTGlyph>
    <TTGlyph name="lslash" xMin="30" yMin="-9" xMax="312" yMax="736">
      <contour>
        <pt x="30" y="284" on="1"/>
        <pt x="30" y="343" on="1"/>
        <pt x="127" y="343" on="1"/>
        <pt x="127" y="736" on="1"/>
        <pt x="189" y="736" on="1"/>
        <pt x="189" y="343" on="1"/>
        <pt x="312" y="343" on="1"/>
        <pt x="312" y="284" on="1"/>
        <pt x="189" y="284" on="1"/>
        <pt x="189" y="119" on="1"/>
        <pt x="214" y="-9" on="1"/>
        <pt x="168" y="-9" on="1"/>
        <pt x="164" y="-5" on="1"/>
        <pt x="127" y="119" on="1"/>
        <pt x="127" y="284" on="1"/>
      </contour>
    </TTGlyph>
    <TTGlyph name="m" xMin="64" yMin="0" xMax="714" yMax="503">
      <contour>
        <pt x="429" y="0" on="1"/>
        <pt x="364" y="0" on="1"/>
        <pt x="364" y="352" on="1"/>
        <pt x="362" y="404" on="0"/>
        <pt x="327" y="443" on="0"/>
        <pt x="233" y="443" on="0"/>
        <pt x="152" y="404" on="0"/>
        <pt x="145" y="387" on="1"/>
        <pt x="145" y="0" on="1"/>
        <pt x="81" y="0" on="1"/>
        <pt x="81" y="365" on="1"/>
        <pt x="64" y="487" on="1"/>
        <pt x="111" y="487" on="1"/>
        <pt x="114" y="484" on="1"/>
        <pt x="129" y="434" on="1"/>
        <pt x="167" y="459" on="0"/>
        <pt x="204" y="481" on="0"/>
        <pt x="270" y="503" on="0"/>
        <pt x="304" y="503" on="1"/>
        <pt x="388" y="503" on="0"/>
        <pt x="416" y="436" on="1"/>
        <pt x="452" y="460" on="0"/>
        <pt x="472" y="471" on="1"/>
        <pt x="528" y="503" on="0"/>
        <pt x="648" y="503" on="0"/>
        <pt x="713" y="435" on="0"/>
        <pt x="714" y="352" on="1"/>
        <pt x="714" y="0" on="1"/>
        <pt x="649" y="0" on="1"/>
        <pt x="649" y="352" on="1"/>
        <pt x="647" y="404" on="0"/>
        <pt x="612" y="443" on="0"/>
        <pt x="517" y="443" on="0"/>
        <pt x="437" y="404" on="0"/>
        <pt x="429" y="387" on="1"/>
      </contour>
    </TTGlyph>
    <TTGlyph name="macron" xMin="70" yMin="657" xMax="471" yMax="716">
      <contour>
        <pt x="70" y="657" on="1"/>
        <pt x="70" y="716" on="1"/>
        <pt x="471" y="716" on="1"/>
        <pt x="471" y="657" on="1"/>
      </contour>
    </TTGlyph>
    <TTGlyph name="minus" xMin="76" yMin="285" xMax="457" yMax="344">
      <contour>
        <pt x="76" y="285" on="1"/>
        <pt x="76" y="344" on="1"/>
        <pt x="457" y="344" on="1"/>
        <pt x="457" y="285" on="1"/>
      </contour>
    </TTGlyph>
    <TTGlyph name="mu" xMin="89" yMin="-195" xMax="475" yMax="492">
      <contour>
        <pt x="89" y="-195" on="1"/>
        <pt x="89" y="492" on="1"/>
        <pt x="154" y="492" on="1"/>
        <pt x="154" y="141" on="1"/>
        <pt x="155" y="91" on="0"/>
        <pt x="208" y="51" on="0"/>
        <pt x="309" y="51" on="0"/>
        <pt x="386" y="89" on="0"/>
        <pt x="393" y="106" on="1"/>
        <pt x="393" y="492" on="1"/>
        <pt x="457" y="492" on="1"/>
        <pt x="457" y="129" on="1"/>
        <pt x="475" y="0" on="1"/>
        <pt x="433" y="0" on="1"/>
        <pt x="430" y="3" on="1"/>
        <pt x="409" y="59" on="1"/>
        <pt x="370" y="33" on="0"/>
        <pt x="336" y="12" on="0"/>
        <pt x="271" y="-9" on="0"/>
        <pt x="240" y="-9" on="1"/>
        <pt x="183" y="-9" on="0"/>
        <pt x="162" y="11" on="1"/>
        <pt x="154" y="18" on="1"/>
        <pt x="154" y="-195" on="1"/>
      </contour>
    </TTGlyph>
    <TTGlyph name="multiply" xMin="60" yMin="107" xMax="453" yMax="499">
      <contour>
        <pt x="453" y="150" on="1"/>
        <pt x="412" y="109" on="1"/>
        <pt x="257" y="264" on="1"/>
        <pt x="101" y="107" on="1"/>
        <pt x="60" y="148" on="1"/>
        <pt x="214" y="303" on="1"/>
        <pt x="61" y="457" on="1"/>
        <pt x="102" y="498" on="1"/>
        <pt x="255" y="345" on="1"/>
        <pt x="409" y="499" on="1"/>
        <pt x="452" y="460" on="1"/>
        <pt x="298" y="305" on="1"/>
      </contour>
    </TTGlyph>
    <TTGlyph name="n" xMin="64" yMin="0" xMax="449" yMax="503">
      <contour>
        <pt x="449" y="0" on="1"/>
        <pt x="384" y="0" on="1"/>
        <pt x="384" y="352" on="1"/>
        <pt x="383" y="401" on="0"/>
        <pt x="330" y="443" on="0"/>
        <pt x="233" y="443" on="0"/>
        <pt x="152" y="405" on="0"/>
        <pt x="145" y="388" on="1"/>
        <pt x="145" y="0" on="1"/>
        <pt x="81" y="0" on="1"/>
        <pt x="81" y="365" on="1"/>
        <pt x="64" y="487" on="1"/>
        <pt x="107" y="487" on="1"/>
        <pt x="110" y="485" on="1"/>
        <pt x="129" y="434" on="1"/>
        <pt x="164" y="458" on="0"/>
        <pt x="186" y="470" on="1"/>
        <pt x="241" y="503" on="0"/>
        <pt x="306" y="503" on="1"/>
        <pt x="446" y="503" on="0"/>
        <pt x="449" y="352" on="1"/>
      </contour>
    </TTGlyph>
    <TTGlyph name="nine" xMin="59" yMin="-8" xMax="452" yMax="659">
      <contour>
        <pt x="381" y="303" on="1"/>
        <pt x="280" y="273" on="0"/>
        <pt x="142" y="273" on="0"/>
        <pt x="59" y="360" on="0"/>
        <pt x="59" y="466" on="1"/>
        <pt x="59" y="535" on="0"/>
        <pt x="162" y="659" on="0"/>
        <pt x="254" y="659" on="1"/>
        <pt x="354" y="659" on="0"/>
        <pt x="400" y="608" on="1"/>
        <pt x="440" y="565" on="0"/>
        <pt x="448" y="450" on="1"/>
        <pt x="452" y="403" on="0"/>
        <pt x="452" y="329" on="1"/>
        <pt x="452" y="160" on="0"/>
        <pt x="343" y="-8" on="0"/>
        <pt x="247" y="-8" on="1"/>
        <pt x="199" y="-8" on="0"/>
        <pt x="124" y="18" on="0"/>
        <pt x="66" y="52" on="1"/>
        <pt x="88" y="106" on="1"/>
        <pt x="182" y="51" on="0"/>
        <pt x="321" y="51" on="0"/>
        <pt x="379" y="161" on="0"/>
      </contour>
      <contour>
        <pt x="123" y="384" on="0"/>
        <pt x="173" y="333" on="0"/>
        <pt x="279" y="333" on="0"/>
        <pt x="381" y="359" on="1"/>
        <pt x="383" y="387" on="0"/>
        <pt x="383" y="434" on="0"/>
        <pt x="379" y="497" on="0"/>
        <pt x="369" y="530" on="1"/>
        <pt x="348" y="599" on="0"/>
        <pt x="238" y="599" on="1"/>
        <pt x="123" y="599" on="0"/>
        <pt x="123" y="466" on="1"/>
      </contour>
    </TTGlyph>
    <TTGlyph name="ntilde" xMin="63" yMin="1" xMax="450" yMax="665">
      <contour>
        <pt x="450" y="1" on="1"/>
        <pt x="384" y="1" on="1"/>
        <pt x="384" y="352" on="1"/>
        <pt x="383" y="401" on="0"/>
        <pt x="331" y="443" on="0"/>
        <pt x="234" y="443" on="0"/>
        <pt x="153" y="405" on="0"/>
        <pt x="146" y="388" on="1"/>
        <pt x="146" y="1" on="1"/>
        <pt x="80" y="1" on="1"/>
        <pt x="80" y="365" on="1"/>
        <pt x="63" y="487" on="1"/>
        <pt x="108" y="487" on="1"/>
        <pt x="111" y="485" on="1"/>
        <pt x="130" y="434" on="1"/>
        <pt x="165" y="458" on="0"/>
        <pt x="186" y="470" on="1"/>
        <pt x="242" y="503" on="0"/>
        <pt x="307" y="503" on="1"/>
        <pt x="447" y="503" on="0"/>
        <pt x="450" y="352" on="1"/>
      </contour>
      <contour>
        <pt x="361" y="597" on="1"/>
        <pt x="342" y="582" on="0"/>
        <pt x="324" y="579" on="0"/>
        <pt x="307" y="579" on="0"/>
        <pt x="289" y="584" on="1"/>
        <pt x="204" y="604" on="1"/>
        <pt x="129" y="572" on="1"/>
        <pt x="111" y="600" on="1"/>
        <pt x="153" y="635" on="1"/>
        <pt x="174" y="653" on="0"/>
        <pt x="189" y="656" on="0"/>
        <pt x="204" y="656" on="0"/>
        <pt x="221" y="652" on="1"/>
        <pt x="316" y="630" on="1"/>
        <pt x="390" y="665" on="1"/>
        <pt x="408" y="636" on="1"/>
      </contour>
    </TTGlyph>
    <TTGlyph name="numbersign" xMin="44" yMin="-84" xMax="588" yMax="578">
      <contour>
        <pt x="332" y="-71" on="1"/>
        <pt x="367" y="118" on="1"/>
        <pt x="217" y="118" on="1"/>
        <pt x="180" y="-84" on="1"/>
        <pt x="119" y="-71" on="1"/>
        <pt x="154" y="118" on="1"/>
        <pt x="45" y="118" on="1"/>
        <pt x="44" y="176" on="1"/>
        <pt x="165" y="176" on="1"/>
        <pt x="196" y="339" on="1"/>
        <pt x="89" y="339" on="1"/>
        <pt x="88" y="397" on="1"/>
        <pt x="207" y="397" on="1"/>
        <pt x="241" y="578" on="1"/>
        <pt x="301" y="565" on="1"/>
        <pt x="270" y="397" on="1"/>
        <pt x="420" y="397" on="1"/>
        <pt x="454" y="578" on="1"/>
        <pt x="514" y="565" on="1"/>
        <pt x="483" y="397" on="1"/>
        <pt x="587" y="397" on="1"/>
        <pt x="588" y="339" on="1"/>
        <pt x="472" y="339" on="1"/>
        <pt x="441" y="176" on="1"/>
        <pt x="543" y="176" on="1"/>
        <pt x="544" y="118" on="1"/>
        <pt x="430" y="118" on="1"/>
        <pt x="393" y="-84" on="1"/>
      </contour>
      <contour>
        <pt x="259" y="339" on="1"/>
        <pt x="228" y="176" on="1"/>
        <pt x="378" y="176" on="1"/>
        <pt x="409" y="339" on="1"/>
      </contour>
    </TTGlyph>
    <TTGlyph name="o" xMin="55" yMin="-11" xMax="470" yMax="500">
      <contour>
        <pt x="334" y="434" on="0"/>
        <pt x="291" y="444" on="0"/>
        <pt x="215" y="444" on="0"/>
        <pt x="158" y="419" on="0"/>
        <pt x="131" y="360" on="0"/>
        <pt x="123" y="299" on="0"/>
        <pt x="123" y="246" on="1"/>
        <pt x="123" y="133" on="0"/>
        <pt x="174" y="47" on="0"/>
        <pt x="261" y="47" on="1"/>
        <pt x="308" y="47" on="0"/>
        <pt x="366" y="71" on="0"/>
        <pt x="394" y="128" on="0"/>
        <pt x="402" y="191" on="0"/>
        <pt x="402" y="278" on="0"/>
        <pt x="401" y="315" on="0"/>
        <pt x="395" y="364" on="0"/>
        <pt x="384" y="390" on="0"/>
        <pt x="364" y="420" on="0"/>
      </contour>
      <contour>
        <pt x="342" y="500" on="0"/>
        <pt x="428" y="459" on="0"/>
        <pt x="470" y="349" on="0"/>
        <pt x="470" y="175" on="0"/>
        <pt x="433" y="71" on="0"/>
        <pt x="402" y="43" on="1"/>
        <pt x="342" y="-11" on="0"/>
        <pt x="262" y="-11" on="1"/>
        <pt x="145" y="-11" on="0"/>
        <pt x="55" y="99" on="0"/>
        <pt x="55" y="245" on="1"/>
        <pt x="55" y="315" on="0"/>
        <pt x="93" y="419" on="0"/>
        <pt x="125" y="446" on="1"/>
        <pt x="187" y="500" on="0"/>
      </contour>
    </TTGlyph>
    <TTGlyph name="oacute" xMin="55" yMin="-11" xMax="470" yMax="719">
      <contour>
        <pt x="334" y="434" on="0"/>
        <pt x="291" y="444" on="0"/>
        <pt x="215" y="444" on="0"/>
        <pt x="158" y="419" on="0"/>
        <pt x="131" y="360" on="0"/>
        <pt x="123" y="299" on="0"/>
        <pt x="123" y="246" on="1"/>
        <pt x="123" y="133" on="0"/>
        <pt x="174" y="47" on="0"/>
        <pt x="261" y="47" on="1"/>
        <pt x="308" y="47" on="0"/>
        <pt x="366" y="71" on="0"/>
        <pt x="394" y="128" on="0"/>
        <pt x="402" y="191" on="0"/>
        <pt x="402" y="278" on="0"/>
        <pt x="401" y="315" on="0"/>
        <pt x="395" y="364" on="0"/>
        <pt x="384" y="390" on="0"/>
        <pt x="364" y="420" on="0"/>
      </contour>
      <contour>
        <pt x="342" y="500" on="0"/>
        <pt x="428" y="459" on="0"/>
        <pt x="470" y="349" on="0"/>
        <pt x="470" y="175" on="0"/>
        <pt x="433" y="71" on="0"/>
        <pt x="402" y="43" on="1"/>
        <pt x="342" y="-11" on="0"/>
        <pt x="262" y="-11" on="1"/>
        <pt x="145" y="-11" on="0"/>
        <pt x="55" y="99" on="0"/>
        <pt x="55" y="245" on="1"/>
        <pt x="55" y="315" on="0"/>
        <pt x="93" y="419" on="0"/>
        <pt x="125" y="446" on="1"/>
        <pt x="187" y="500" on="0"/>
      </contour>
      <contour>
        <pt x="320" y="719" on="1"/>
        <pt x="368" y="674" on="1"/>
        <pt x="326" y="636" on="0"/>
        <pt x="272" y="599" on="1"/>
        <pt x="204" y="571" on="1"/>
        <pt x="199" y="577" on="0"/>
        <pt x="181" y="593" on="0"/>
        <pt x="176" y="600" on="1"/>
        <pt x="196" y="614" on="1"/>
        <pt x="257" y="655" on="0"/>
        <pt x="302" y="699" on="0"/>
      </contour>
    </TTGlyph>
    <TTGlyph name="ocircumflex" xMin="55" yMin="-11" xMax="470" yMax="723">
      <contour>
        <pt x="334" y="434" on="0"/>
        <pt x="291" y="444" on="0"/>
        <pt x="215" y="444" on="0"/>
        <pt x="158" y="419" on="0"/>
        <pt x="131" y="360" on="0"/>
        <pt x="123" y="299" on="0"/>
        <pt x="123" y="246" on="1"/>
        <pt x="123" y="133" on="0"/>
        <pt x="174" y="47" on="0"/>
        <pt x="261" y="47" on="1"/>
        <pt x="308" y="47" on="0"/>
        <pt x="366" y="71" on="0"/>
        <pt x="394" y="128" on="0"/>
        <pt x="402" y="191" on="0"/>
        <pt x="402" y="278" on="0"/>
        <pt x="401" y="315" on="0"/>
        <pt x="395" y="364" on="0"/>
        <pt x="384" y="390" on="0"/>
        <pt x="364" y="420" on="0"/>
      </contour>
      <contour>
        <pt x="342" y="500" on="0"/>
        <pt x="428" y="459" on="0"/>
        <pt x="470" y="349" on="0"/>
        <pt x="470" y="175" on="0"/>
        <pt x="433" y="71" on="0"/>
        <pt x="402" y="43" on="1"/>
        <pt x="342" y="-11" on="0"/>
        <pt x="262" y="-11" on="1"/>
        <pt x="145" y="-11" on="0"/>
        <pt x="55" y="99" on="0"/>
        <pt x="55" y="245" on="1"/>
        <pt x="55" y="315" on="0"/>
        <pt x="93" y="419" on="0"/>
        <pt x="125" y="446" on="1"/>
        <pt x="187" y="500" on="0"/>
      </contour>
      <contour>
        <pt x="254" y="674" on="1"/>
        <pt x="148" y="587" on="1"/>
        <pt x="120" y="617" on="1"/>
        <pt x="224" y="723" on="1"/>
        <pt x="284" y="723" on="1"/>
        <pt x="388" y="617" on="1"/>
        <pt x="359" y="587" on="1"/>
      </contour>
    </TTGlyph>
    <TTGlyph name="odieresis" xMin="55" yMin="-11" xMax="470" yMax="658">
      <contour>
        <pt x="334" y="434" on="0"/>
        <pt x="291" y="444" on="0"/>
        <pt x="215" y="444" on="0"/>
        <pt x="158" y="419" on="0"/>
        <pt x="131" y="360" on="0"/>
        <pt x="123" y="299" on="0"/>
        <pt x="123" y="246" on="1"/>
        <pt x="123" y="133" on="0"/>
        <pt x="174" y="47" on="0"/>
        <pt x="261" y="47" on="1"/>
        <pt x="308" y="47" on="0"/>
        <pt x="366" y="71" on="0"/>
        <pt x="394" y="128" on="0"/>
        <pt x="402" y="191" on="0"/>
        <pt x="402" y="278" on="0"/>
        <pt x="401" y="315" on="0"/>
        <pt x="395" y="364" on="0"/>
        <pt x="384" y="390" on="0"/>
        <pt x="364" y="420" on="0"/>
      </contour>
      <contour>
        <pt x="342" y="500" on="0"/>
        <pt x="428" y="459" on="0"/>
        <pt x="470" y="349" on="0"/>
        <pt x="470" y="175" on="0"/>
        <pt x="433" y="71" on="0"/>
        <pt x="402" y="43" on="1"/>
        <pt x="342" y="-11" on="0"/>
        <pt x="262" y="-11" on="1"/>
        <pt x="145" y="-11" on="0"/>
        <pt x="55" y="99" on="0"/>
        <pt x="55" y="245" on="1"/>
        <pt x="55" y="315" on="0"/>
        <pt x="93" y="419" on="0"/>
        <pt x="125" y="446" on="1"/>
        <pt x="187" y="500" on="0"/>
      </contour>
      <contour>
        <pt x="146" y="658" on="1"/>
        <pt x="218" y="658" on="1"/>
        <pt x="218" y="584" on="1"/>
        <pt x="146" y="584" on="1"/>
      </contour>
      <contour>
        <pt x="292" y="658" on="1"/>
        <pt x="364" y="658" on="1"/>
        <pt x="364" y="584" on="1"/>
        <pt x="292" y="584" on="1"/>
      </contour>
    </TTGlyph>
    <TTGlyph name="oe" xMin="55" yMin="-11" xMax="790" yMax="501">
      <contour>
        <pt x="790" y="321" on="1"/>
        <pt x="790" y="285" on="0"/>
        <pt x="784" y="246" on="1"/>
        <pt x="470" y="246" on="1"/>
        <pt x="474" y="136" on="0"/>
        <pt x="540" y="53" on="0"/>
        <pt x="624" y="53" on="1"/>
        <pt x="687" y="53" on="0"/>
        <pt x="771" y="80" on="1"/>
        <pt x="777" y="30" on="1"/>
        <pt x="754" y="21" on="0"/>
        <pt x="729" y="14" on="0"/>
        <pt x="701" y="5" on="0"/>
        <pt x="687" y="1" on="0"/>
        <pt x="661" y="-5" on="0"/>
        <pt x="652" y="-6" on="1"/>
        <pt x="625" y="-9" on="0"/>
        <pt x="606" y="-9" on="1"/>
        <pt x="544" y="-9" on="0"/>
        <pt x="465" y="45" on="0"/>
        <pt x="437" y="96" on="1"/>
        <pt x="379" y="-11" on="0"/>
        <pt x="145" y="-11" on="0"/>
        <pt x="55" y="99" on="0"/>
        <pt x="55" y="245" on="1"/>
        <pt x="55" y="315" on="0"/>
        <pt x="93" y="419" on="0"/>
        <pt x="125" y="446" on="1"/>
        <pt x="187" y="500" on="0"/>
        <pt x="343" y="500" on="0"/>
        <pt x="425" y="457" on="0"/>
        <pt x="445" y="407" on="1"/>
        <pt x="474" y="457" on="0"/>
        <pt x="564" y="501" on="0"/>
        <pt x="611" y="501" on="1"/>
        <pt x="790" y="500" on="0"/>
      </contour>
      <contour>
        <pt x="356" y="425" on="0"/>
        <pt x="302" y="444" on="0"/>
        <pt x="215" y="444" on="0"/>
        <pt x="158" y="419" on="0"/>
        <pt x="131" y="360" on="0"/>
        <pt x="123" y="299" on="0"/>
        <pt x="123" y="246" on="1"/>
        <pt x="123" y="133" on="0"/>
        <pt x="174" y="47" on="0"/>
        <pt x="261" y="47" on="1"/>
        <pt x="350" y="47" on="0"/>
        <pt x="378" y="94" on="1"/>
        <pt x="393" y="120" on="0"/>
        <pt x="403" y="181" on="0"/>
        <pt x="404" y="229" on="1"/>
        <pt x="404" y="246" on="1"/>
        <pt x="404" y="329" on="0"/>
        <pt x="386" y="397" on="0"/>
      </contour>
      <contour>
        <pt x="727" y="337" on="1"/>
        <pt x="727" y="397" on="0"/>
        <pt x="667" y="445" on="0"/>
        <pt x="549" y="445" on="0"/>
        <pt x="473" y="382" on="0"/>
        <pt x="472" y="297" on="1"/>
        <pt x="724" y="297" on="1"/>
        <pt x="727" y="320" on="0"/>
      </contour>
    </TTGlyph>
    <TTGlyph name="ogonek" xMin="110" yMin="-178" xMax="199" yMax="-5">
      <contour>
        <pt x="110" y="-5" on="1"/>
        <pt x="170" y="-5" on="1"/>
        <pt x="170" y="-64" on="1"/>
        <pt x="199" y="-178" on="1"/>
        <pt x="155" y="-178" on="1"/>
        <pt x="152" y="-174" on="1"/>
        <pt x="110" y="-64" on="1"/>
      </contour>
    </TTGlyph>
    <TTGlyph name="ograve" xMin="55" yMin="-11" xMax="470" yMax="716">
      <contour>
        <pt x="334" y="434" on="0"/>
        <pt x="291" y="444" on="0"/>
        <pt x="215" y="444" on="0"/>
        <pt x="158" y="419" on="0"/>
        <pt x="131" y="360" on="0"/>
        <pt x="123" y="299" on="0"/>
        <pt x="123" y="246" on="1"/>
        <pt x="123" y="133" on="0"/>
        <pt x="174" y="47" on="0"/>
        <pt x="261" y="47" on="1"/>
        <pt x="308" y="47" on="0"/>
        <pt x="366" y="71" on="0"/>
        <pt x="394" y="128" on="0"/>
        <pt x="402" y="191" on="0"/>
        <pt x="402" y="278" on="0"/>
        <pt x="401" y="315" on="0"/>
        <pt x="395" y="364" on="0"/>
        <pt x="384" y="390" on="0"/>
        <pt x="364" y="420" on="0"/>
      </contour>
      <contour>
        <pt x="342" y="500" on="0"/>
        <pt x="428" y="459" on="0"/>
        <pt x="470" y="349" on="0"/>
        <pt x="470" y="175" on="0"/>
        <pt x="433" y="71" on="0"/>
        <pt x="402" y="43" on="1"/>
        <pt x="342" y="-11" on="0"/>
        <pt x="262" y="-11" on="1"/>
        <pt x="145" y="-11" on="0"/>
        <pt x="55" y="99" on="0"/>
        <pt x="55" y="245" on="1"/>
        <pt x="55" y="315" on="0"/>
        <pt x="93" y="419" on="0"/>
        <pt x="125" y="446" on="1"/>
        <pt x="187" y="500" on="0"/>
      </contour>
      <contour>
        <pt x="158" y="671" on="1"/>
        <pt x="206" y="716" on="1"/>
        <pt x="244" y="674" on="0"/>
        <pt x="269" y="655" on="1"/>
        <pt x="304" y="628" on="0"/>
        <pt x="330" y="611" on="1"/>
        <pt x="350" y="597" on="1"/>
        <pt x="345" y="590" on="0"/>
        <pt x="327" y="574" on="0"/>
        <pt x="322" y="568" on="1"/>
        <pt x="254" y="596" on="1"/>
        <pt x="200" y="633" on="0"/>
      </contour>
    </TTGlyph>
    <TTGlyph name="one" xMin="31" yMin="0" xMax="259" yMax="648">
      <contour>
        <pt x="191" y="0" on="1"/>
        <pt x="191" y="586" on="1"/>
        <pt x="58" y="506" on="1"/>
        <pt x="31" y="551" on="1"/>
        <pt x="191" y="648" on="1"/>
        <pt x="259" y="648" on="1"/>
        <pt x="258" y="0" on="1"/>
      </contour>
    </TTGlyph>
    <TTGlyph name="onehalf" xMin="29" yMin="-17" xMax="677" yMax="741">
      <contour>
        <pt x="147" y="6" on="1"/>
        <pt x="474" y="741" on="1"/>
        <pt x="527" y="718" on="1"/>
        <pt x="201" y="-17" on="1"/>
      </contour>
      <contour>
        <pt x="677" y="51" on="1"/>
        <pt x="495" y="51" on="1"/>
        <pt x="495" y="71" on="1"/>
        <pt x="495" y="139" on="0"/>
        <pt x="565" y="197" on="1"/>
        <pt x="564" y="197" on="1"/>
        <pt x="595" y="222" on="0"/>
        <pt x="613" y="248" on="0"/>
        <pt x="613" y="287" on="0"/>
        <pt x="596" y="302" on="0"/>
        <pt x="548" y="302" on="0"/>
        <pt x="511" y="285" on="1"/>
        <pt x="496" y="330" on="1"/>
        <pt x="551" y="350" on="0"/>
        <pt x="621" y="350" on="0"/>
        <pt x="667" y="307" on="0"/>
        <pt x="667" y="242" on="0"/>
        <pt x="646" y="206" on="0"/>
        <pt x="620" y="182" on="1"/>
        <pt x="565" y="132" on="1"/>
        <pt x="555" y="122" on="0"/>
        <pt x="548" y="97" on="1"/>
        <pt x="677" y="97" on="1"/>
      </contour>
      <contour>
        <pt x="102" y="698" on="1"/>
        <pt x="157" y="698" on="1"/>
        <pt x="157" y="399" on="1"/>
        <pt x="102" y="399" on="1"/>
        <pt x="102" y="636" on="1"/>
        <pt x="54" y="607" on="1"/>
        <pt x="29" y="650" on="1"/>
        <pt x="102" y="697" on="1"/>
      </contour>
    </TTGlyph>
    <TTGlyph name="onequarter" xMin="29" yMin="-17" xMax="676" yMax="741">
      <contour>
        <pt x="147" y="6" on="1"/>
        <pt x="474" y="741" on="1"/>
        <pt x="527" y="718" on="1"/>
        <pt x="201" y="-17" on="1"/>
      </contour>
      <contour>
        <pt x="645" y="175" on="1"/>
        <pt x="676" y="175" on="1"/>
        <pt x="676" y="125" on="1"/>
        <pt x="645" y="125" on="1"/>
        <pt x="645" y="50" on="1"/>
        <pt x="590" y="50" on="1"/>
        <pt x="590" y="125" on="1"/>
        <pt x="480" y="125" on="1"/>
        <pt x="480" y="168" on="1"/>
        <pt x="480" y="197" on="0"/>
        <pt x="494" y="218" on="1"/>
        <pt x="584" y="356" on="1"/>
        <pt x="626" y="329" on="1"/>
        <pt x="545" y="200" on="1"/>
        <pt x="534" y="184" on="0"/>
        <pt x="534" y="175" on="1"/>
        <pt x="590" y="175" on="1"/>
        <pt x="590" y="216" on="1"/>
        <pt x="645" y="216" on="1"/>
      </contour>
      <contour>
        <pt x="102" y="698" on="1"/>
        <pt x="157" y="698" on="1"/>
        <pt x="157" y="399" on="1"/>
        <pt x="102" y="399" on="1"/>
        <pt x="102" y="636" on="1"/>
        <pt x="54" y="607" on="1"/>
        <pt x="29" y="650" on="1"/>
        <pt x="102" y="697" on="1"/>
      </contour>
    </TTGlyph>
    <TTGlyph name="onesuperior" xMin="36" yMin="408" xMax="164" yMax="707">
      <contour>
        <pt x="109" y="707" on="1"/>
        <pt x="164" y="707" on="1"/>
        <pt x="164" y="408" on="1"/>
        <pt x="109" y="408" on="1"/>
        <pt x="109" y="645" on="1"/>
        <pt x="61" y="616" on="1"/>
        <pt x="36" y="659" on="1"/>
        <pt x="109" y="706" on="1"/>
      </contour>
    </TTGlyph>
    <TTGlyph name="ordfeminine" xMin="54" yMin="422" xMax="292" yMax="720">
      <contour>
        <pt x="163" y="588" on="1"/>
        <pt x="201" y="587" on="1"/>
        <pt x="227" y="587" on="1"/>
        <pt x="227" y="615" on="1"/>
        <pt x="227" y="647" on="0"/>
        <pt x="203" y="671" on="0"/>
        <pt x="160" y="671" on="0"/>
        <pt x="114" y="663" on="1"/>
        <pt x="74" y="657" on="1"/>
        <pt x="68" y="699" on="1"/>
        <pt x="94" y="705" on="1"/>
        <pt x="148" y="720" on="0"/>
        <pt x="179" y="720" on="1"/>
        <pt x="230" y="720" on="0"/>
        <pt x="259" y="688" on="1"/>
        <pt x="259" y="689" on="1"/>
        <pt x="279" y="672" on="0"/>
        <pt x="279" y="600" on="1"/>
        <pt x="279" y="505" on="1"/>
        <pt x="292" y="438" on="1"/>
        <pt x="292" y="425" on="1"/>
        <pt x="250" y="426" on="1"/>
        <pt x="240" y="453" on="1"/>
        <pt x="185" y="423" on="0"/>
        <pt x="97" y="421" on="0"/>
        <pt x="54" y="463" on="0"/>
        <pt x="54" y="552" on="0"/>
        <pt x="111" y="588" on="0"/>
      </contour>
      <contour>
        <pt x="216" y="544" on="0"/>
        <pt x="132" y="544" on="0"/>
        <pt x="107" y="529" on="0"/>
        <pt x="107" y="485" on="0"/>
        <pt x="122" y="471" on="0"/>
        <pt x="163" y="471" on="0"/>
        <pt x="218" y="484" on="0"/>
        <pt x="227" y="494" on="1"/>
        <pt x="227" y="543" on="1"/>
      </contour>
    </TTGlyph>
    <TTGlyph name="ordmasculine" xMin="55" yMin="404" xMax="312" yMax="717">
      <contour>
        <pt x="183" y="668" on="1"/>
        <pt x="136" y="668" on="0"/>
        <pt x="110" y="619" on="0"/>
        <pt x="110" y="500" on="0"/>
        <pt x="137" y="453" on="0"/>
        <pt x="230" y="453" on="0"/>
        <pt x="256" y="502" on="0"/>
        <pt x="256" y="593" on="0"/>
        <pt x="253" y="622" on="0"/>
        <pt x="240" y="656" on="0"/>
        <pt x="209" y="668" on="0"/>
      </contour>
      <contour>
        <pt x="183" y="717" on="1"/>
        <pt x="256" y="717" on="0"/>
        <pt x="312" y="653" on="0"/>
        <pt x="312" y="479" on="0"/>
        <pt x="236" y="404" on="0"/>
        <pt x="183" y="404" on="1"/>
        <pt x="111" y="404" on="0"/>
        <pt x="55" y="472" on="0"/>
        <pt x="55" y="642" on="0"/>
        <pt x="133" y="717" on="0"/>
      </contour>
    </TTGlyph>
    <TTGlyph name="oslash" xMin="55" yMin="-74" xMax="470" yMax="556">
      <contour>
        <pt x="104" y="-51" on="1"/>
        <pt x="375" y="556" on="1"/>
        <pt x="428" y="533" on="1"/>
        <pt x="158" y="-74" on="1"/>
      </contour>
      <contour>
        <pt x="334" y="434" on="0"/>
        <pt x="291" y="444" on="0"/>
        <pt x="215" y="444" on="0"/>
        <pt x="158" y="419" on="0"/>
        <pt x="131" y="360" on="0"/>
        <pt x="123" y="299" on="0"/>
        <pt x="123" y="246" on="1"/>
        <pt x="123" y="133" on="0"/>
        <pt x="174" y="47" on="0"/>
        <pt x="261" y="47" on="1"/>
        <pt x="308" y="47" on="0"/>
        <pt x="366" y="71" on="0"/>
        <pt x="394" y="128" on="0"/>
        <pt x="402" y="191" on="0"/>
        <pt x="402" y="278" on="0"/>
        <pt x="401" y="315" on="0"/>
        <pt x="395" y="364" on="0"/>
        <pt x="384" y="390" on="0"/>
        <pt x="364" y="420" on="0"/>
      </contour>
      <contour>
        <pt x="342" y="500" on="0"/>
        <pt x="428" y="459" on="0"/>
        <pt x="470" y="349" on="0"/>
        <pt x="470" y="175" on="0"/>
        <pt x="433" y="71" on="0"/>
        <pt x="402" y="43" on="1"/>
        <pt x="342" y="-11" on="0"/>
        <pt x="262" y="-11" on="1"/>
        <pt x="145" y="-11" on="0"/>
        <pt x="55" y="99" on="0"/>
        <pt x="55" y="245" on="1"/>
        <pt x="55" y="315" on="0"/>
        <pt x="93" y="419" on="0"/>
        <pt x="125" y="446" on="1"/>
        <pt x="187" y="500" on="0"/>
      </contour>
    </TTGlyph>
    <TTGlyph name="otilde" xMin="55" yMin="-11" xMax="470" yMax="664">
      <contour>
        <pt x="334" y="434" on="0"/>
        <pt x="291" y="444" on="0"/>
        <pt x="215" y="444" on="0"/>
        <pt x="158" y="419" on="0"/>
        <pt x="131" y="360" on="0"/>
        <pt x="123" y="299" on="0"/>
        <pt x="123" y="246" on="1"/>
        <pt x="123" y="133" on="0"/>
        <pt x="174" y="47" on="0"/>
        <pt x="261" y="47" on="1"/>
        <pt x="308" y="47" on="0"/>
        <pt x="366" y="71" on="0"/>
        <pt x="394" y="128" on="0"/>
        <pt x="402" y="191" on="0"/>
        <pt x="402" y="278" on="0"/>
        <pt x="401" y="315" on="0"/>
        <pt x="395" y="364" on="0"/>
        <pt x="384" y="390" on="0"/>
        <pt x="364" y="420" on="0"/>
      </contour>
      <contour>
        <pt x="342" y="500" on="0"/>
        <pt x="428" y="459" on="0"/>
        <pt x="470" y="349" on="0"/>
        <pt x="470" y="175" on="0"/>
        <pt x="433" y="71" on="0"/>
        <pt x="402" y="43" on="1"/>
        <pt x="342" y="-11" on="0"/>
        <pt x="262" y="-11" on="1"/>
        <pt x="145" y="-11" on="0"/>
        <pt x="55" y="99" on="0"/>
        <pt x="55" y="245" on="1"/>
        <pt x="55" y="315" on="0"/>
        <pt x="93" y="419" on="0"/>
        <pt x="125" y="446" on="1"/>
        <pt x="187" y="500" on="0"/>
      </contour>
      <contour>
        <pt x="356" y="596" on="1"/>
        <pt x="337" y="581" on="0"/>
        <pt x="319" y="578" on="0"/>
        <pt x="302" y="578" on="0"/>
        <pt x="284" y="583" on="1"/>
        <pt x="199" y="603" on="1"/>
        <pt x="124" y="571" on="1"/>
        <pt x="106" y="599" on="1"/>
        <pt x="148" y="634" on="1"/>
        <pt x="169" y="652" on="0"/>
        <pt x="184" y="655" on="0"/>
        <pt x="199" y="655" on="0"/>
        <pt x="216" y="651" on="1"/>
        <pt x="311" y="629" on="1"/>
        <pt x="385" y="664" on="1"/>
        <pt x="403" y="635" on="1"/>
      </contour>
    </TTGlyph>
    <TTGlyph name="p" xMin="64" yMin="-201" xMax="458" yMax="501">
      <contour>
        <pt x="270" y="501" on="1"/>
        <pt x="386" y="501" on="0"/>
        <pt x="425" y="428" on="1"/>
        <pt x="444" y="392" on="0"/>
        <pt x="458" y="311" on="0"/>
        <pt x="458" y="184" on="0"/>
        <pt x="424" y="81" on="0"/>
        <pt x="378" y="29" on="0"/>
        <pt x="348" y="13" on="1"/>
        <pt x="305" y="-10" on="0"/>
        <pt x="226" y="-10" on="0"/>
        <pt x="143" y="25" on="1"/>
        <pt x="143" y="-201" on="1"/>
        <pt x="81" y="-201" on="1"/>
        <pt x="81" y="365" on="1"/>
        <pt x="64" y="486" on="1"/>
        <pt x="105" y="486" on="1"/>
        <pt x="108" y="483" on="1"/>
        <pt x="126" y="432" on="1"/>
        <pt x="191" y="501" on="0"/>
      </contour>
      <contour>
        <pt x="143" y="68" on="1"/>
        <pt x="197" y="49" on="0"/>
        <pt x="300" y="49" on="0"/>
        <pt x="351" y="74" on="0"/>
        <pt x="376" y="105" on="0"/>
        <pt x="389" y="167" on="0"/>
        <pt x="390" y="203" on="0"/>
        <pt x="390" y="290" on="0"/>
        <pt x="387" y="343" on="0"/>
        <pt x="376" y="400" on="0"/>
        <pt x="364" y="412" on="1"/>
        <pt x="334" y="442" on="0"/>
        <pt x="275" y="442" on="1"/>
        <pt x="191" y="442" on="0"/>
        <pt x="143" y="387" on="1"/>
      </contour>
    </TTGlyph>
    <TTGlyph name="paragraph" xMin="39" yMin="-82" xMax="416" yMax="648">
      <contour>
        <pt x="416" y="648" on="1"/>
        <pt x="416" y="-82" on="1"/>
        <pt x="350" y="-82" on="1"/>
        <pt x="350" y="592" on="1"/>
        <pt x="266" y="592" on="1"/>
        <pt x="266" y="-82" on="1"/>
        <pt x="198" y="-82" on="1"/>
        <pt x="198" y="331" on="1"/>
        <pt x="128" y="331" on="0"/>
        <pt x="39" y="418" on="0"/>
        <pt x="39" y="563" on="0"/>
        <pt x="124" y="648" on="0"/>
        <pt x="198" y="648" on="1"/>
      </contour>
    </TTGlyph>
    <TTGlyph name="parenleft" xMin="58" yMin="-156" xMax="217" yMax="707">
      <contour>
        <pt x="118" y="-89" on="0"/>
        <pt x="58" y="111" on="0"/>
        <pt x="58" y="448" on="0"/>
        <pt x="118" y="642" on="0"/>
        <pt x="191" y="707" on="1"/>
        <pt x="217" y="684" on="1"/>
        <pt x="190" y="650" on="0"/>
        <pt x="175" y="617" on="0"/>
        <pt x="157" y="562" on="0"/>
        <pt x="151" y="541" on="0"/>
        <pt x="136" y="476" on="0"/>
        <pt x="133" y="448" on="1"/>
        <pt x="124" y="364" on="0"/>
        <pt x="124" y="268" on="1"/>
        <pt x="124" y="64" on="0"/>
        <pt x="176" y="-67" on="1"/>
        <pt x="190" y="-96" on="0"/>
        <pt x="217" y="-133" on="1"/>
        <pt x="191" y="-156" on="1"/>
      </contour>
    </TTGlyph>
    <TTGlyph name="parenright" xMin="38" yMin="-156" xMax="197" yMax="707">
      <contour>
        <pt x="101" y="552" on="1"/>
        <pt x="85" y="606" on="0"/>
        <pt x="65" y="650" on="0"/>
        <pt x="38" y="684" on="1"/>
        <pt x="64" y="707" on="1"/>
        <pt x="137" y="642" on="0"/>
        <pt x="197" y="448" on="0"/>
        <pt x="197" y="111" on="0"/>
        <pt x="137" y="-89" on="0"/>
        <pt x="64" y="-156" on="1"/>
        <pt x="38" y="-133" on="1"/>
        <pt x="65" y="-96" on="0"/>
        <pt x="79" y="-67" on="1"/>
        <pt x="131" y="64" on="0"/>
        <pt x="131" y="446" on="0"/>
      </contour>
    </TTGlyph>
    <TTGlyph name="percent" xMin="46" yMin="-11" xMax="661" yMax="696">
      <contour>
        <pt x="196" y="-9" on="1"/>
        <pt x="131" y="-9" on="1"/>
        <pt x="505" y="696" on="1"/>
        <pt x="569" y="696" on="1"/>
      </contour>
      <contour>
        <pt x="222" y="647" on="0"/>
        <pt x="124" y="647" on="0"/>
        <pt x="98" y="609" on="0"/>
        <pt x="98" y="477" on="0"/>
        <pt x="127" y="426" on="0"/>
        <pt x="224" y="426" on="0"/>
        <pt x="249" y="466" on="0"/>
        <pt x="249" y="596" on="0"/>
      </contour>
      <contour>
        <pt x="173" y="696" on="1"/>
        <pt x="253" y="696" on="0"/>
        <pt x="301" y="628" on="0"/>
        <pt x="301" y="463" on="0"/>
        <pt x="235" y="377" on="0"/>
        <pt x="97" y="377" on="0"/>
        <pt x="46" y="447" on="0"/>
        <pt x="46" y="610" on="0"/>
        <pt x="114" y="696" on="0"/>
      </contour>
      <contour>
        <pt x="582" y="259" on="0"/>
        <pt x="484" y="259" on="0"/>
        <pt x="458" y="221" on="0"/>
        <pt x="458" y="89" on="0"/>
        <pt x="487" y="38" on="0"/>
        <pt x="584" y="38" on="0"/>
        <pt x="609" y="78" on="0"/>
        <pt x="609" y="208" on="0"/>
      </contour>
      <contour>
        <pt x="533" y="308" on="1"/>
        <pt x="613" y="308" on="0"/>
        <pt x="661" y="240" on="0"/>
        <pt x="661" y="75" on="0"/>
        <pt x="595" y="-11" on="0"/>
        <pt x="457" y="-11" on="0"/>
        <pt x="406" y="59" on="0"/>
        <pt x="406" y="222" on="0"/>
        <pt x="474" y="308" on="0"/>
      </contour>
    </TTGlyph>
    <TTGlyph name="period" xMin="69" yMin="0" xMax="154" yMax="90">
      <contour>
        <pt x="154" y="90" on="1"/>
        <pt x="154" y="0" on="1"/>
        <pt x="69" y="0" on="1"/>
        <pt x="69" y="90" on="1"/>
      </contour>
    </TTGlyph>
    <TTGlyph name="periodcentered" xMin="66" yMin="208" xMax="175" yMax="324">
      <contour>
        <pt x="66" y="296" on="0"/>
        <pt x="99" y="324" on="0"/>
        <pt x="150" y="324" on="0"/>
        <pt x="175" y="298" on="0"/>
        <pt x="175" y="266" on="1"/>
        <pt x="175" y="208" on="0"/>
        <pt x="66" y="208" on="0"/>
        <pt x="66" y="266" on="1"/>
      </contour>
    </TTGlyph>
    <TTGlyph name="perthousand" xMin="46" yMin="-11" xMax="981" yMax="696">
      <contour>
        <pt x="196" y="-9" on="1"/>
        <pt x="131" y="-9" on="1"/>
        <pt x="505" y="696" on="1"/>
        <pt x="569" y="696" on="1"/>
      </contour>
      <contour>
        <pt x="222" y="647" on="0"/>
        <pt x="124" y="647" on="0"/>
        <pt x="98" y="609" on="0"/>
        <pt x="98" y="477" on="0"/>
        <pt x="127" y="426" on="0"/>
        <pt x="224" y="426" on="0"/>
        <pt x="249" y="466" on="0"/>
        <pt x="249" y="596" on="0"/>
      </contour>
      <contour>
        <pt x="173" y="696" on="1"/>
        <pt x="253" y="696" on="0"/>
        <pt x="301" y="628" on="0"/>
        <pt x="301" y="463" on="0"/>
        <pt x="235" y="377" on="0"/>
        <pt x="97" y="377" on="0"/>
        <pt x="46" y="447" on="0"/>
        <pt x="46" y="610" on="0"/>
        <pt x="114" y="696" on="0"/>
      </contour>
      <contour>
        <pt x="582" y="259" on="0"/>
        <pt x="484" y="259" on="0"/>
        <pt x="458" y="221" on="0"/>
        <pt x="458" y="89" on="0"/>
        <pt x="487" y="38" on="0"/>
        <pt x="584" y="38" on="0"/>
        <pt x="609" y="78" on="0"/>
        <pt x="609" y="208" on="0"/>
      </contour>
      <contour>
        <pt x="533" y="308" on="1"/>
        <pt x="613" y="308" on="0"/>
        <pt x="661" y="240" on="0"/>
        <pt x="661" y="75" on="0"/>
        <pt x="595" y="-11" on="0"/>
        <pt x="457" y="-11" on="0"/>
        <pt x="406" y="59" on="0"/>
        <pt x="406" y="222" on="0"/>
        <pt x="474" y="308" on="0"/>
      </contour>
      <contour>
        <pt x="902" y="259" on="0"/>
        <pt x="804" y="259" on="0"/>
        <pt x="778" y="221" on="0"/>
        <pt x="778" y="89" on="0"/>
        <pt x="807" y="38" on="0"/>
        <pt x="904" y="38" on="0"/>
        <pt x="929" y="78" on="0"/>
        <pt x="929" y="208" on="0"/>
      </contour>
      <contour>
        <pt x="853" y="308" on="1"/>
        <pt x="933" y="308" on="0"/>
        <pt x="981" y="240" on="0"/>
        <pt x="981" y="75" on="0"/>
        <pt x="915" y="-11" on="0"/>
        <pt x="777" y="-11" on="0"/>
        <pt x="726" y="59" on="0"/>
        <pt x="726" y="222" on="0"/>
        <pt x="794" y="308" on="0"/>
      </contour>
    </TTGlyph>
    <TTGlyph name="plus" xMin="54" yMin="124" xMax="435" yMax="509">
      <contour>
        <pt x="214" y="509" on="1"/>
        <pt x="273" y="509" on="1"/>
        <pt x="273" y="343" on="1"/>
        <pt x="435" y="343" on="1"/>
        <pt x="435" y="284" on="1"/>
        <pt x="273" y="284" on="1"/>
        <pt x="273" y="124" on="1"/>
        <pt x="214" y="124" on="1"/>
        <pt x="214" y="284" on="1"/>
        <pt x="54" y="284" on="1"/>
        <pt x="54" y="343" on="1"/>
        <pt x="214" y="343" on="1"/>
      </contour>
    </TTGlyph>
    <TTGlyph name="plusminus" xMin="69" yMin="0" xMax="451" yMax="551">
      <contour>
        <pt x="69" y="0" on="1"/>
        <pt x="69" y="59" on="1"/>
        <pt x="451" y="59" on="1"/>
        <pt x="451" y="0" on="1"/>
      </contour>
      <contour>
        <pt x="230" y="551" on="1"/>
        <pt x="289" y="551" on="1"/>
        <pt x="289" y="385" on="1"/>
        <pt x="451" y="385" on="1"/>
        <pt x="451" y="326" on="1"/>
        <pt x="289" y="326" on="1"/>
        <pt x="289" y="166" on="1"/>
        <pt x="230" y="166" on="1"/>
        <pt x="230" y="326" on="1"/>
        <pt x="70" y="326" on="1"/>
        <pt x="70" y="385" on="1"/>
        <pt x="230" y="385" on="1"/>
      </contour>
    </TTGlyph>
    <TTGlyph name="q" xMin="55" yMin="-201" xMax="432" yMax="501">
      <contour>
        <pt x="432" y="-201" on="1"/>
        <pt x="370" y="-201" on="1"/>
        <pt x="370" y="42" on="1"/>
        <pt x="311" y="-10" on="0"/>
        <pt x="183" y="-10" on="0"/>
        <pt x="107" y="27" on="0"/>
        <pt x="88" y="64" on="1"/>
        <pt x="55" y="127" on="0"/>
        <pt x="55" y="238" on="1"/>
        <pt x="55" y="307" on="0"/>
        <pt x="89" y="410" on="0"/>
        <pt x="135" y="463" on="0"/>
        <pt x="165" y="478" on="1"/>
        <pt x="209" y="501" on="0"/>
        <pt x="249" y="501" on="1"/>
        <pt x="330" y="501" on="0"/>
        <pt x="432" y="448" on="1"/>
      </contour>
      <contour>
        <pt x="370" y="423" on="1"/>
        <pt x="311" y="442" on="0"/>
        <pt x="220" y="442" on="0"/>
        <pt x="173" y="427" on="0"/>
        <pt x="145" y="395" on="0"/>
        <pt x="128" y="365" on="0"/>
        <pt x="125" y="339" on="1"/>
        <pt x="120" y="296" on="0"/>
        <pt x="120" y="203" on="0"/>
        <pt x="123" y="147" on="0"/>
        <pt x="136" y="92" on="0"/>
        <pt x="149" y="78" on="1"/>
        <pt x="177" y="49" on="0"/>
        <pt x="238" y="49" on="1"/>
        <pt x="321" y="49" on="0"/>
        <pt x="370" y="105" on="1"/>
      </contour>
    </TTGlyph>
    <TTGlyph name="question" xMin="37" yMin="-19" xMax="360" yMax="662">
      <contour>
        <pt x="37" y="655" on="1"/>
        <pt x="105" y="662" on="0"/>
        <pt x="196" y="662" on="0"/>
        <pt x="240" y="653" on="0"/>
        <pt x="290" y="636" on="0"/>
        <pt x="321" y="606" on="0"/>
        <pt x="334" y="584" on="1"/>
        <pt x="360" y="544" on="0"/>
        <pt x="360" y="462" on="1"/>
        <pt x="360" y="390" on="0"/>
        <pt x="328" y="354" on="1"/>
        <pt x="310" y="334" on="0"/>
        <pt x="287" y="316" on="0"/>
        <pt x="253" y="295" on="0"/>
        <pt x="223" y="277" on="0"/>
        <pt x="213" y="270" on="0"/>
        <pt x="194" y="256" on="0"/>
        <pt x="187" y="245" on="0"/>
        <pt x="182" y="236" on="1"/>
        <pt x="176" y="224" on="0"/>
        <pt x="176" y="193" on="1"/>
        <pt x="174" y="129" on="1"/>
        <pt x="118" y="129" on="1"/>
        <pt x="116" y="161" on="0"/>
        <pt x="116" y="250" on="0"/>
        <pt x="153" y="304" on="0"/>
        <pt x="205" y="336" on="0"/>
        <pt x="231" y="352" on="1"/>
        <pt x="294" y="391" on="0"/>
        <pt x="294" y="460" on="1"/>
        <pt x="294" y="522" on="0"/>
        <pt x="273" y="551" on="1"/>
        <pt x="262" y="566" on="0"/>
        <pt x="239" y="589" on="0"/>
        <pt x="220" y="594" on="1"/>
        <pt x="178" y="607" on="0"/>
        <pt x="93" y="607" on="0"/>
        <pt x="51" y="601" on="1"/>
        <pt x="42" y="645" on="0"/>
      </contour>
      <contour>
        <pt x="181" y="-19" on="1"/>
        <pt x="109" y="-19" on="1"/>
        <pt x="109" y="55" on="1"/>
        <pt x="181" y="55" on="1"/>
      </contour>
    </TTGlyph>
    <TTGlyph name="questiondown" xMin="43" yMin="-177" xMax="366" yMax="504">
      <contour>
        <pt x="352" y="-116" on="1"/>
        <pt x="366" y="-170" on="1"/>
        <pt x="298" y="-177" on="0"/>
        <pt x="240" y="-177" on="1"/>
        <pt x="207" y="-177" on="0"/>
        <pt x="163" y="-168" on="0"/>
        <pt x="113" y="-151" on="0"/>
        <pt x="82" y="-121" on="0"/>
        <pt x="68" y="-100" on="1"/>
        <pt x="43" y="-59" on="0"/>
        <pt x="43" y="23" on="1"/>
        <pt x="43" y="95" on="0"/>
        <pt x="76" y="132" on="1"/>
        <pt x="93" y="151" on="0"/>
        <pt x="116" y="169" on="0"/>
        <pt x="149" y="190" on="0"/>
        <pt x="191" y="214" on="0"/>
        <pt x="206" y="228" on="1"/>
        <pt x="227" y="247" on="0"/>
        <pt x="227" y="292" on="1"/>
        <pt x="229" y="356" on="1"/>
        <pt x="285" y="356" on="1"/>
        <pt x="287" y="324" on="0"/>
        <pt x="287" y="275" on="1"/>
        <pt x="287" y="204" on="0"/>
        <pt x="224" y="165" on="1"/>
        <pt x="198" y="149" on="0"/>
        <pt x="146" y="117" on="0"/>
        <pt x="109" y="64" on="0"/>
        <pt x="109" y="-37" on="0"/>
        <pt x="130" y="-66" on="1"/>
        <pt x="141" y="-81" on="0"/>
        <pt x="164" y="-104" on="0"/>
        <pt x="201" y="-115" on="0"/>
        <pt x="228" y="-122" on="0"/>
        <pt x="310" y="-122" on="0"/>
      </contour>
      <contour>
        <pt x="222" y="504" on="1"/>
        <pt x="294" y="504" on="1"/>
        <pt x="294" y="430" on="1"/>
        <pt x="222" y="430" on="1"/>
      </contour>
    </TTGlyph>
</ttFont>
